<svg width="16" height="16" viewBox="0 0 16 16" fill="none" xmlns="http://www.w3.org/2000/svg">
<path d="M3.24214 11.9089L7.15102 8.00004C5.48698 6.336 3.91028 4.7593 3.24214 4.09116C3.00783 3.85684 3.00783 3.47658 3.24214 3.24226C3.47646 3.00795 3.85672 3.00795 4.09104 3.24226L7.99992 7.15115L11.9088 3.24226C12.1431 3.00795 12.5234 3.00795 12.7577 3.24226C12.992 3.47658 12.992 3.85684 12.7577 4.09116L8.84882 8.00004L12.7577 11.9089L12.7987 11.9545C12.991 12.1902 12.9774 12.5381 12.7577 12.7578C12.538 12.9775 12.19 12.9911 11.9544 12.7988L11.9088 12.7578L7.99992 8.84894L4.09104 12.7578C3.85672 12.9921 3.47646 12.9921 3.24214 12.7578C3.00783 12.5235 3.00783 12.1432 3.24214 11.9089Z" fill="#7D7D7D"/>
</svg>
