<svg width="20" height="20" viewBox="0 0 20 20" fill="none" xmlns="http://www.w3.org/2000/svg">
<path d="M12.1239 5.48096C12.0425 5.3996 11.9106 5.3996 11.8292 5.48096L10.3561 6.9541C10.2747 7.03546 10.2747 7.16737 10.3561 7.24873L11.8292 8.72187C11.9106 8.80323 12.0425 8.80323 12.1239 8.72187L13.597 7.24873C13.6784 7.16737 13.6784 7.03546 13.597 6.9541L12.1239 5.48096Z" fill="white"/>
<path fill-rule="evenodd" clip-rule="evenodd" d="M17.2644 7.65057C17.1281 9.22681 16.3172 10.5823 15.1422 11.4579C15.1683 11.9869 15.0011 12.5257 14.6339 12.96L10.9308 17.3398C10.7339 17.5726 10.4445 17.7089 10.1363 17.7089L2.83593 17.7088C2.49075 17.7088 2.21094 17.4289 2.21094 17.0838C2.21095 16.7386 2.49078 16.4588 2.83595 16.4588L10.0386 16.4589L13.6794 12.1529C13.9922 11.7829 13.9609 11.2328 13.6082 10.9007C13.2494 10.5629 12.6872 10.5713 12.3387 10.9198L9.18248 14.0761C8.93841 14.3202 8.54268 14.3202 8.2986 14.0762C8.05451 13.8321 8.05451 13.4364 8.29858 13.1923L9.5565 11.9343C8.23778 11.2635 7.24967 10.0636 6.84694 8.63616C6.70283 8.60507 6.59814 8.61573 6.51349 8.6355C6.32929 8.67851 6.17083 8.7726 5.8951 8.93632C5.83166 8.97399 5.762 9.01535 5.6844 9.06062C5.28215 9.29528 5.10866 9.47953 5.01429 9.62629C4.91415 9.78202 4.86587 9.94784 4.78951 10.2565L4.7814 10.2894C4.70843 10.5849 4.6142 10.9665 4.40298 11.4176C4.18335 11.8866 3.84767 12.4108 3.30159 13.0208C3.07135 13.2779 2.67623 13.2998 2.41905 13.0695C2.16188 12.8393 2.14005 12.4442 2.37029 12.187C2.84665 11.6549 3.10997 11.2313 3.27094 10.8875C3.42959 10.5487 3.49898 10.2681 3.57218 9.97216L3.57883 9.94526C3.6508 9.65424 3.73868 9.29891 3.9629 8.95022C4.19573 8.58813 4.54115 8.28041 5.05454 7.98091C5.10014 7.95431 5.1487 7.92503 5.19995 7.89412C5.47891 7.72589 5.8373 7.50976 6.22926 7.41824C6.36841 7.38575 6.50865 7.3683 6.65112 7.36657C6.64458 7.15836 6.65018 6.94755 6.66855 6.73487C6.92142 3.80892 9.49835 1.64195 12.4243 1.89482C15.3503 2.14768 17.5172 4.72462 17.2644 7.65057ZM12.3167 3.14017C14.5548 3.3336 16.2124 5.30479 16.019 7.54294C15.9262 8.61666 15.4245 9.55713 14.6793 10.2238C14.6145 10.1421 14.5431 10.0641 14.4651 9.99062C13.6144 9.18958 12.2811 9.20964 11.4548 10.0359L10.4989 10.9918C10.48 10.9818 10.4604 10.9727 10.4401 10.9645C9.09969 10.4226 8.13409 9.19398 7.93608 7.74849L7.93844 7.7443L7.93526 7.74251C7.89565 7.45005 7.88745 7.14875 7.91391 6.8425C8.10734 4.60434 10.0785 2.94675 12.3167 3.14017Z" fill="white"/>
</svg>
