<svg width="132" height="132" viewBox="0 0 132 132" fill="none" xmlns="http://www.w3.org/2000/svg">
<g id="&#231;&#186;&#162;&#229;&#140;&#133;" clip-path="url(#clip0_30786_26967)">
<g id="Group 480971373">
<g id="Group 480971375">
<path id="Rectangle 41554" opacity="0.01" d="M33.241 110.1L8.73828 110.1L8.73828 116.4L33.241 116.4L33.241 110.1Z" fill="#FCEA9C"/>
</g>
<g id="Group 480971376">
<rect id="Rectangle 43112" x="10.8008" y="57.6001" width="55.2" height="64.8" fill="#CBD1DA"/>
<rect id="Rectangle 43113" x="30" y="57.6001" width="14.4" height="64.8" fill="#B7BDC6"/>
<rect id="Rectangle 43118" x="66" y="57.6001" width="55.2" height="64.8" fill="#B7BDC6"/>
<g id="Rectangle 43121" style="mix-blend-mode:color-burn">
<rect width="55.2" height="64.8" transform="matrix(1 0 0 -1 66 122.4)" fill="url(#paint0_linear_30786_26967)"/>
</g>
<rect id="Rectangle 43120" x="87.6016" y="57.6001" width="14.4" height="64.8" fill="url(#paint1_linear_30786_26967)"/>
</g>
</g>
<g id="Group 1000007607">
<path id="Union" d="M70.7476 1.6288L80.0676 4.14289L76.4157 17.7273L89.1678 10.8646L94.0846 18.8672L81.3343 25.729L95.7138 29.6078L93.3472 38.4112L42.0874 24.584L44.454 15.7806L58.8345 19.6598L51.2488 7.31325L59.5125 2.86603L67.0966 15.21L70.7476 1.6288Z" fill="#B7BDC6"/>
<g id="Group 480971371">
<rect id="Rectangle 43115" x="67.5625" y="30.5903" width="64.8" height="19.2" transform="rotate(15 67.5625 30.5903)" fill="#A0A6B0"/>
<rect id="Rectangle 43120_2" x="90.7422" y="36.8018" width="14.4" height="19.2" transform="rotate(15 90.7422 36.8018)" fill="#707A8A"/>
<rect id="Rectangle 43117" x="4.96875" y="13.8188" width="64.8" height="19.2" transform="rotate(15 4.96875 13.8188)" fill="#CBD1DA"/>
<rect id="Rectangle 43120_3" x="30.4688" y="20.6519" width="14.4" height="19.2" transform="rotate(15 30.4688 20.6519)" fill="#B7BDC6"/>
</g>
</g>
</g>
<defs>
<linearGradient id="paint0_linear_30786_26967" x1="27.6" y1="0" x2="27.6" y2="64.8" gradientUnits="userSpaceOnUse">
<stop stop-color="#7D7D7D"/>
<stop offset="1" stop-color="#A5A5A5" stop-opacity="0"/>
</linearGradient>
<linearGradient id="paint1_linear_30786_26967" x1="88.002" y1="95.0005" x2="88.002" y2="58.0005" gradientUnits="userSpaceOnUse">
<stop stop-color="#707A8A"/>
<stop offset="1" stop-color="#707A8A" stop-opacity="0"/>
</linearGradient>
<clipPath id="clip0_30786_26967">
<rect width="132" height="132" fill="white"/>
</clipPath>
</defs>
</svg>
