<svg width="32" height="32" viewBox="0 0 32 32" fill="none" xmlns="http://www.w3.org/2000/svg">
<g id="coffee-1c">
<g id="Union">
<path fill-rule="evenodd" clip-rule="evenodd" d="M25.5716 13.3398C28.0376 13.4645 29.9987 15.503 29.9987 17.9999C29.9987 20.4969 28.0376 22.5354 25.5716 22.6601L25.332 22.6666H25.0534C24.2154 25.6282 21.5659 27.829 18.3763 27.9908L17.9987 27.9999H12.6654L12.2878 27.9908C8.41316 27.7943 5.33206 24.59 5.33203 20.6666V14.3333C5.33203 13.781 5.77975 13.3333 6.33203 13.3333C6.88432 13.3333 7.33203 13.781 7.33203 14.3333V20.6666C7.33206 23.6121 9.71986 25.9999 12.6654 25.9999H17.9987C20.9442 25.9999 23.332 23.6121 23.332 20.6666V14.3333C23.332 13.781 23.7797 13.3333 24.332 13.3333H25.332L25.5716 13.3398ZM25.332 20.6666C26.8048 20.6666 27.9987 19.4727 27.9987 17.9999C27.9987 16.5272 26.8048 15.3333 25.332 15.3333V20.6666Z" fill="white"/>
<path d="M9.76823 4.21997C10.0151 3.72618 10.6155 3.52549 11.1094 3.77205C11.6032 4.01896 11.8039 4.61932 11.5573 5.1132L11.2982 5.63013C10.794 6.6386 10.8694 7.84043 11.4948 8.77857C12.4543 10.2178 12.6222 12.0357 11.9596 13.6171L11.8151 13.9309L11.5573 14.4465C11.3104 14.9403 10.71 15.141 10.2161 14.8945C9.72239 14.6476 9.52172 14.0472 9.76823 13.5533L10.0273 13.0364L10.1146 12.845C10.5196 11.8785 10.4171 10.7675 9.83073 9.88794C8.80719 8.35263 8.68525 6.38602 9.51042 4.7356L9.76823 4.21997Z" fill="white"/>
<path d="M14.4349 4.21997C14.6818 3.72618 15.2822 3.52549 15.776 3.77205C16.2698 4.01896 16.4705 4.61932 16.224 5.1132L15.9648 5.63013C15.4606 6.6386 15.536 7.84043 16.1615 8.77857C17.1209 10.2178 17.2888 12.0357 16.6263 13.6171L16.4818 13.9309L16.224 14.4465C15.977 14.9403 15.3767 15.141 14.8828 14.8945C14.3891 14.6476 14.1884 14.0472 14.4349 13.5533L14.694 13.0364L14.7812 12.845C15.1863 11.8785 15.0838 10.7675 14.4974 9.88794C13.4739 8.35263 13.3519 6.38602 14.1771 4.7356L14.4349 4.21997Z" fill="white"/>
<path d="M19.1016 4.21997C19.3485 3.72618 19.9488 3.52549 20.4427 3.77205C20.9365 4.01896 21.1372 4.61932 20.8906 5.1132L20.6315 5.63013C20.1273 6.6386 20.2027 7.84043 20.8281 8.77857C21.7876 10.2178 21.9555 12.0357 21.293 13.6171L21.1484 13.9309L20.8906 14.4465C20.6437 14.9403 20.0433 15.141 19.5495 14.8945C19.0557 14.6476 18.855 14.0472 19.1016 13.5533L19.3607 13.0364L19.4479 12.845C19.853 11.8785 19.7504 10.7675 19.1641 9.88794C18.1405 8.35263 18.0186 6.38602 18.8437 4.7356L19.1016 4.21997Z" fill="white"/>
</g>
</g>
</svg>
