<svg width="16" height="17" viewBox="0 0 16 17" fill="none" xmlns="http://www.w3.org/2000/svg">
<path d="M8 2.06641C11.8292 2.06641 14.9336 5.17083 14.9336 9C14.9336 12.8292 11.8292 15.9336 8 15.9336C4.17083 15.9336 1.06641 12.8292 1.06641 9C1.06641 5.17083 4.17083 2.06641 8 2.06641ZM8 3.26693C4.83357 3.26693 2.26693 5.83357 2.26693 9C2.26693 12.1664 4.83357 14.7331 8 14.7331C11.1664 14.7331 13.7331 12.1664 13.7331 9C13.7331 5.83357 11.1664 3.26693 8 3.26693ZM8 11.3333C8.36819 11.3333 8.66667 11.6318 8.66667 12C8.66667 12.3682 8.36819 12.6667 8 12.6667C7.63181 12.6667 7.33333 12.3682 7.33333 12C7.33333 11.6318 7.63181 11.3333 8 11.3333ZM8 5.5332C8.33133 5.5332 8.60019 5.80215 8.60026 6.13346V10.1335C8.60026 10.4648 8.33137 10.7337 8 10.7337C7.66863 10.7337 7.39974 10.4648 7.39974 10.1335V6.13346C7.39981 5.80215 7.66867 5.5332 8 5.5332Z" fill="white"/>
</svg>
