<svg width="25" height="24" viewBox="0 0 25 24" fill="none" xmlns="http://www.w3.org/2000/svg">
<path d="M10.502 9.5C10.502 10.3284 9.83038 11 9.00195 11C8.17353 11 7.50195 10.3284 7.50195 9.5C7.50195 8.67157 8.17353 8 9.00195 8C9.83038 8 10.502 8.67157 10.502 9.5Z" fill="white"/>
<path d="M10.502 9.5C10.502 10.3284 9.83038 11 9.00195 11C8.17353 11 7.50195 10.3284 7.50195 9.5C7.50195 8.67157 8.17353 8 9.00195 8C9.83038 8 10.502 8.67157 10.502 9.5Z" fill="white"/>
<path d="M17.502 9.5C17.502 10.3284 16.8304 11 16.002 11C15.1735 11 14.502 10.3284 14.502 9.5C14.502 8.67157 15.1735 8 16.002 8C16.8304 8 17.502 8.67157 17.502 9.5Z" fill="white"/>
<path d="M17.502 9.5C17.502 10.3284 16.8304 11 16.002 11C15.1735 11 14.502 10.3284 14.502 9.5C14.502 8.67157 15.1735 8 16.002 8C16.8304 8 17.502 8.67157 17.502 9.5Z" fill="white"/>
<path d="M8.19512 17.3462C8.63325 17.505 9.11432 17.3031 9.31231 16.8921L9.34746 16.8071L9.44316 16.5688L9.55742 16.3257C10.1671 15.1404 11.2842 14.4009 12.5018 14.4009C13.8005 14.4009 14.984 15.2426 15.5604 16.5688L15.6561 16.8071C15.8255 17.2744 16.3412 17.5156 16.8084 17.3462C17.2756 17.1767 17.5169 16.6611 17.3475 16.1938C17.3055 16.0781 17.2604 15.964 17.2117 15.852C16.3946 13.9713 14.6234 12.6001 12.5018 12.6001C10.3801 12.6001 8.60891 13.9713 7.7918 15.852L7.65606 16.1938L7.62871 16.2817C7.51731 16.7241 7.75706 17.1873 8.19512 17.3462Z" fill="white"/>
<path d="M21.1016 12C21.1016 7.25035 17.2516 3.40039 12.502 3.40039C7.7523 3.40039 3.90234 7.25035 3.90234 12C3.90234 16.7496 7.7523 20.5996 12.502 20.5996C17.2516 20.5996 21.1016 16.7496 21.1016 12ZM22.9023 12C22.9023 17.7438 18.2457 22.4004 12.502 22.4004C6.75819 22.4004 2.10156 17.7438 2.10156 12C2.10156 6.25624 6.75819 1.59961 12.502 1.59961C18.2457 1.59961 22.9023 6.25624 22.9023 12Z" fill="white"/>
</svg>
