<svg width="20" height="20" viewBox="0 0 20 20" fill="none" xmlns="http://www.w3.org/2000/svg">
<g id="Group 1216402158">
<path id="Union" fill-rule="evenodd" clip-rule="evenodd" d="M7.99479 9.99992C9.83574 9.99992 11.3281 8.50753 11.3281 6.66659C11.3281 4.82564 9.83574 3.33325 7.99479 3.33325C6.15384 3.33325 4.66146 4.82564 4.66146 6.66659C4.66146 8.50753 6.15384 9.99992 7.99479 9.99992ZM10.4292 11.6849C10.3138 11.6728 10.1967 11.6666 10.0781 11.6666H5.91146C4.07051 11.6666 2.57812 13.159 2.57812 14.9999V16.6666H10.2929C9.89114 15.9656 9.66146 15.1533 9.66146 14.2874C9.66146 13.3279 9.94349 12.4343 10.4292 11.6849Z" fill="#F6465D"/>
<path id="Subtract" fill-rule="evenodd" clip-rule="evenodd" d="M17.5781 14.2876C17.5781 16.0135 16.179 17.4126 14.4531 17.4126C12.7272 17.4126 11.3281 16.0135 11.3281 14.2876C11.3281 12.5617 12.7272 11.1626 14.4531 11.1626C16.179 11.1626 17.5781 12.5617 17.5781 14.2876ZM16.3281 13.6626H12.5781V14.9126H16.3281V13.6626Z" fill="#F6465D"/>
</g>
</svg>
