<svg width="24" height="24" viewBox="0 0 24 24" fill="none" xmlns="http://www.w3.org/2000/svg">
<path d="M10.0004 1.94508C10.6477 1.81702 11.3164 1.75 12 1.75C12.6836 1.75 13.3523 1.81702 13.9996 1.94508C14.4059 2.02547 14.6702 2.42004 14.5898 2.82638C14.5094 3.23271 14.1148 3.49695 13.7085 3.41656C13.1565 3.30737 12.5853 3.25 12 3.25C11.4147 3.25 10.8435 3.30737 10.2915 3.41656C9.88517 3.49695 9.49061 3.23271 9.41022 2.82638C9.32983 2.42004 9.59407 2.02547 10.0004 1.94508Z" fill="black"/>
<path d="M16.6551 3.68289C16.8856 3.33869 17.3514 3.24647 17.6956 3.4769C18.813 4.22502 19.775 5.18696 20.5231 6.30441C20.7535 6.64861 20.6613 7.11444 20.3171 7.34488C19.9729 7.57531 19.5071 7.48309 19.2766 7.13889C18.6376 6.18437 17.8156 5.36239 16.8611 4.72335C16.5169 4.49292 16.4247 4.02709 16.6551 3.68289Z" fill="black"/>
<path d="M7.34488 3.68289C7.57531 4.02709 7.48309 4.49292 7.13889 4.72336C6.18437 5.36239 5.36239 6.18437 4.72335 7.13889C4.49292 7.48309 4.02709 7.57531 3.68289 7.34488C3.33869 7.11444 3.24647 6.64861 3.4769 6.30441C4.22502 5.18696 5.18696 4.22502 6.30441 3.4769C6.64861 3.24647 7.11444 3.33869 7.34488 3.68289Z" fill="black"/>
<path d="M21.1736 9.41022C21.58 9.32983 21.9745 9.59407 22.0549 10.0004C22.183 10.6477 22.25 11.3164 22.25 12C22.25 12.6836 22.183 13.3523 22.0549 13.9996C21.9745 14.4059 21.58 14.6702 21.1736 14.5898C20.7673 14.5094 20.503 14.1148 20.5834 13.7085C20.6926 13.1565 20.75 12.5853 20.75 12C20.75 11.4147 20.6926 10.8435 20.5834 10.2915C20.503 9.88517 20.7673 9.49061 21.1736 9.41022Z" fill="black"/>
<path d="M2.82638 9.41022C3.23271 9.49061 3.49695 9.88518 3.41656 10.2915C3.30737 10.8435 3.25 11.4147 3.25 12C3.25 12.5853 3.30737 13.1565 3.41656 13.7085C3.49695 14.1148 3.23271 14.5094 2.82638 14.5898C2.42004 14.6702 2.02547 14.4059 1.94508 13.9996C1.81702 13.3523 1.75 12.6836 1.75 12C1.75 11.3164 1.81702 10.6477 1.94508 10.0004C2.02547 9.59407 2.42004 9.32983 2.82638 9.41022Z" fill="black"/>
<path d="M20.3171 16.6551C20.6613 16.8856 20.7535 17.3514 20.5231 17.6956C19.775 18.813 18.813 19.775 17.6956 20.5231C17.3514 20.7535 16.8856 20.6613 16.6551 20.3171C16.4247 19.9729 16.5169 19.5071 16.8611 19.2766C17.8156 18.6376 18.6376 17.8156 19.2766 16.8611C19.5071 16.5169 19.9729 16.4247 20.3171 16.6551Z" fill="black"/>
<path d="M3.68289 16.6551C4.02709 16.4247 4.49292 16.5169 4.72336 16.8611C5.36239 17.8156 6.18437 18.6376 7.13889 19.2766C7.48309 19.5071 7.57531 19.9729 7.34488 20.3171C7.11444 20.6613 6.64861 20.7535 6.30441 20.5231C5.18696 19.775 4.22502 18.813 3.4769 17.6956C3.24647 17.3514 3.33869 16.8856 3.68289 16.6551Z" fill="black"/>
<path d="M9.41022 21.1736C9.49061 20.7673 9.88518 20.503 10.2915 20.5834C10.8435 20.6926 11.4147 20.75 12 20.75C12.5853 20.75 13.1565 20.6926 13.7085 20.5834C14.1148 20.503 14.5094 20.7673 14.5898 21.1736C14.6702 21.58 14.4059 21.9745 13.9996 22.0549C13.3523 22.183 12.6836 22.25 12 22.25C11.3164 22.25 10.6477 22.183 10.0004 22.0549C9.59407 21.9745 9.32983 21.58 9.41022 21.1736Z" fill="black"/>
</svg>
