<svg width="24" height="24" viewBox="0 0 24 24" fill="none" xmlns="http://www.w3.org/2000/svg">
<path d="M10.3482 7.52273C10.6411 7.81562 11.116 7.81562 11.4089 7.52273C11.7018 7.22983 11.7018 6.75496 11.4089 6.46207L10.5681 5.62132H12C16.0041 5.62132 19.25 8.86726 19.25 12.8713C19.25 16.8754 16.0041 20.1213 12 20.1213C7.99594 20.1213 4.75 16.8754 4.75 12.8713C4.75 12.4571 4.41421 12.1213 4 12.1213C3.58579 12.1213 3.25 12.4571 3.25 12.8713C3.25 17.7038 7.16751 21.6213 12 21.6213C16.8325 21.6213 20.75 17.7038 20.75 12.8713C20.75 8.03883 16.8325 4.12132 12 4.12132H10.5677L11.4089 3.28009C11.7018 2.98719 11.7018 2.51232 11.4089 2.21943C11.116 1.92653 10.6411 1.92653 10.3482 2.21943L8.29763 4.27003C7.96568 4.60198 7.96568 5.14017 8.29763 5.47212L10.3482 7.52273Z" fill="black"/>
<path fill-rule="evenodd" clip-rule="evenodd" d="M13.3424 15.3711C11.9688 15.3711 11.124 14.2447 11.124 12.8848V12.8711C11.124 11.5112 11.9894 10.3711 13.3562 10.3711C14.7229 10.3711 15.5746 11.4974 15.5746 12.8573V12.8711C15.5746 14.231 14.7161 15.3711 13.3424 15.3711ZM13.3562 14.1898C13.8919 14.1898 14.2353 13.6472 14.2353 12.8848V12.8711C14.2353 12.1087 13.8713 11.5524 13.3424 11.5524C12.8136 11.5524 12.4633 12.0881 12.4633 12.8573V12.8711C12.4633 13.6403 12.8205 14.1898 13.3562 14.1898Z" fill="black"/>
<path d="M9.0646 15.1751C9.0646 15.2303 9.10937 15.2751 9.1646 15.2751H10.2764C10.3316 15.2751 10.3764 15.2303 10.3764 15.1751V10.5331C10.3764 10.4779 10.3316 10.4331 10.2764 10.4331H9.42188C9.41268 10.4331 9.40352 10.4344 9.39466 10.4369L8.09306 10.8051C8.04119 10.8198 8.01028 10.873 8.02319 10.9253L8.23062 11.7662C8.24369 11.8192 8.29682 11.8519 8.35001 11.8397L9.05237 11.679C9.05863 11.6776 9.0646 11.6823 9.0646 11.6888V15.1751Z" fill="black"/>
</svg>
