<svg width="12" height="12" viewBox="0 0 12 12" fill="none" xmlns="http://www.w3.org/2000/svg">
<path fill-rule="evenodd" clip-rule="evenodd" d="M9.14645 1.64645C9.05268 1.55268 8.9255 1.5 8.79289 1.5H2C1.72386 1.5 1.5 1.72386 1.5 2V8.79289C1.5 8.9255 1.55268 9.05268 1.64645 9.14645L2.85355 10.3536C2.94732 10.4473 3.0745 10.5 3.20711 10.5H5.53448C5.91957 10.5 6.17073 10.0722 6.08152 9.69757C6.02822 9.47373 6 9.24016 6 9C6 8.9754 6.0003 8.95087 6.00089 8.92641C6.00628 8.70215 5.8371 8.5 5.61277 8.5C5.41242 8.5 5.25 8.33758 5.25 8.13723V4C5.25 3.72386 5.47386 3.5 5.75 3.5H6.25C6.52614 3.5 6.75 3.72386 6.75 4V6.0054C6.75 6.35737 7.22369 6.55667 7.5304 6.384C7.66051 6.31075 7.75 6.17631 7.75 6.027V5.25C7.75 4.97386 7.97386 4.75 8.25 4.75H8.75C9.02614 4.75 9.25 4.97386 9.25 5.25V5.55218C9.25 5.81105 9.45824 6.02344 9.70981 6.08447C10.0821 6.17479 10.5 5.92204 10.5 5.53893V3.20711C10.5 3.0745 10.4473 2.94732 10.3536 2.85355L9.14645 1.64645ZM2.75 6.5C2.75 6.22386 2.97386 6 3.25 6H3.75C4.02614 6 4.25 6.22386 4.25 6.5V8C4.25 8.27614 4.02614 8.5 3.75 8.5H3.25C2.97386 8.5 2.75 8.27614 2.75 8V6.5Z" fill="white"/>
<path fill-rule="evenodd" clip-rule="evenodd" d="M9 11C10.1046 11 11 10.1046 11 9C11 7.89543 10.1046 7 9 7C7.89543 7 7 7.89543 7 9C7 10.1046 7.89543 11 9 11ZM9.53037 8.34427C9.67681 8.19782 9.91425 8.19782 10.0607 8.34427C10.2071 8.49071 10.2071 8.72815 10.0607 8.8746L9.08843 9.84687C8.89316 10.0421 8.57658 10.0421 8.38132 9.84687L7.93936 9.40491C7.79291 9.25846 7.79291 9.02102 7.93936 8.87458C8.08581 8.72813 8.32325 8.72813 8.46969 8.87458C8.61615 9.02103 8.8536 9.02104 9.00005 8.87458L9.53037 8.34427Z" fill="#F0B90B"/>
</svg>
