<svg width="25" height="24" viewBox="0 0 25 24" fill="none" xmlns="http://www.w3.org/2000/svg">
<path fill-rule="evenodd" clip-rule="evenodd" d="M10.7188 12.022C10.7188 11.6078 11.0545 11.272 11.4688 11.272L21.747 11.272C22.1613 11.272 22.497 11.6078 22.497 12.022C22.497 12.4362 22.1613 12.772 21.747 12.772L11.4688 12.772C11.0545 12.772 10.7188 12.4362 10.7188 12.022Z" fill="white"/>
<path fill-rule="evenodd" clip-rule="evenodd" d="M18.2031 11.272C18.6173 11.272 18.9531 11.6078 18.9531 12.022L18.9531 15.5518C18.9531 15.966 18.6173 16.3018 18.2031 16.3018C17.7889 16.3018 17.4531 15.966 17.4531 15.5518L17.4531 12.022C17.4531 11.6078 17.7889 11.272 18.2031 11.272Z" fill="white"/>
<path fill-rule="evenodd" clip-rule="evenodd" d="M7.3591 8.64087C5.50392 8.64087 4 10.1448 4 12C4 13.8551 5.50392 15.3591 7.3591 15.3591C9.21428 15.3591 10.7182 13.8551 10.7182 12C10.7182 10.1448 9.21428 8.64087 7.3591 8.64087ZM2.5 12C2.5 9.31636 4.67549 7.14087 7.3591 7.14087C10.0427 7.14087 12.2182 9.31636 12.2182 12C12.2182 14.6836 10.0427 16.8591 7.3591 16.8591C4.67549 16.8591 2.5 14.6836 2.5 12Z" fill="white"/>
</svg>
