<svg width="65" height="64" viewBox="0 0 65 64" fill="none" xmlns="http://www.w3.org/2000/svg">
<g id="il/futures">
<path id="Union" opacity="0.2" fill-rule="evenodd" clip-rule="evenodd" d="M11.1445 10.6672H19.1445V18.6672H11.1445V10.6672ZM11.1445 45.3339H19.1445V53.3339H11.1445V45.3339ZM53.8112 10.6672H45.8112V18.6672H53.8112V10.6672ZM45.8112 45.3339H53.8112V53.3339H45.8112V45.3339Z" fill="#AEB4BC"/>
<path id="Union_2" opacity="0.5" fill-rule="evenodd" clip-rule="evenodd" d="M32.5004 5.33374L38.1573 10.9906L32.5004 16.6474L26.8436 10.9906L32.5004 5.33374ZM11.4908 26.343L17.1477 31.9999L11.4908 37.6567L5.83398 31.9999L11.4908 26.343ZM59.1671 31.9999L53.5102 26.343L47.8534 31.9999L53.5102 37.6567L59.1671 31.9999ZM32.5004 47.3534L38.1573 53.0102L32.5004 58.6671L26.8436 53.0102L32.5004 47.3534Z" fill="#AEB4BC"/>
<path id="Subtract" fill-rule="evenodd" clip-rule="evenodd" d="M44.5 32C44.5 25.3726 39.1274 20 32.5 20C25.8726 20 20.5 25.3726 20.5 32C20.5 38.6274 25.8726 44 32.5 44C39.1274 44 44.5 38.6274 44.5 32ZM32.5 37.3333L27.1667 32L32.5 26.6667L37.8333 32L32.5 37.3333Z" fill="#F0B90B"/>
</g>
</svg>
