<svg width="97" height="96" viewBox="0 0 97 96" fill="none" xmlns="http://www.w3.org/2000/svg">
<g id="il/not-found-gift">
<path id="Union" opacity="0.5" fill-rule="evenodd" clip-rule="evenodd" d="M60.5 12H52.5V20.6863L46.8431 15.0294L41.1863 20.6863L44.5 24H36.5V32L52.5 32H60.5L76.5 32V24H68.5L71.8137 20.6863L66.1569 15.0294L60.5 20.6863V12Z" fill="#AEB4BC"/>
<path id="Subtract" opacity="0.2" fill-rule="evenodd" clip-rule="evenodd" d="M60.5 32H88.5V44H60.5V32ZM52.5 32H24.5V44H52.5V32ZM52.5 52H28.5005V84H52.5V52ZM60.5 84H84.4995V52H60.5V84Z" fill="#AEB4BC"/>
<path id="Union_2" fill-rule="evenodd" clip-rule="evenodd" d="M22.6366 64.1054C30.4642 69.8861 41.552 69.2316 48.6415 62.1421C56.452 54.3316 56.452 41.6684 48.6415 33.8579C40.831 26.0474 28.1677 26.0474 20.3572 33.8579C13.2677 40.9474 12.6133 52.0351 18.3939 59.8628L4.09375 74.1629L8.33639 78.4056L22.6366 64.1054ZM44.3988 57.8995C38.9315 63.3668 30.0672 63.3668 24.5998 57.8995C19.1325 52.4322 19.1325 43.5678 24.5998 38.1005C30.0672 32.6332 38.9315 32.6332 44.3988 38.1005C49.8662 43.5678 49.8662 52.4322 44.3988 57.8995Z" fill="#AEB4BC"/>
</g>
</svg>
