<svg width="12" height="12" viewBox="0 0 12 12" fill="none" xmlns="http://www.w3.org/2000/svg">
<path d="M4.5 1.875L1.875 1.875L1.875 4.5C1.875 4.70711 1.70711 4.875 1.5 4.875C1.29289 4.875 1.125 4.70711 1.125 4.5L1.125 1.55C1.125 1.31528 1.31528 1.125 1.55 1.125L4.5 1.125C4.70711 1.125 4.875 1.29289 4.875 1.5C4.875 1.70711 4.70711 1.875 4.5 1.875Z" fill="white"/>
<path d="M4.73484 6.73484C4.88128 6.58839 5.11872 6.58839 5.26517 6.73484C5.41161 6.88128 5.41161 7.11872 5.26517 7.26516L2.40533 10.125H4.5C4.70711 10.125 4.875 10.2929 4.875 10.5C4.875 10.7071 4.70711 10.875 4.5 10.875H1.55C1.54132 10.875 1.5327 10.8747 1.52415 10.8742C1.4203 10.8809 1.3142 10.8445 1.23484 10.7652C1.15547 10.6858 1.11911 10.5797 1.12577 10.4759C1.12526 10.4673 1.125 10.4587 1.125 10.45L1.125 7.5C1.125 7.29289 1.29289 7.125 1.5 7.125C1.70711 7.125 1.875 7.29289 1.875 7.5L1.875 9.59467L4.73484 6.73484Z" fill="white"/>
<path d="M7.5 10.125H10.125V7.5C10.125 7.29289 10.2929 7.125 10.5 7.125C10.7071 7.125 10.875 7.29289 10.875 7.5V10.45C10.875 10.6847 10.6847 10.875 10.45 10.875H7.5C7.29289 10.875 7.125 10.7071 7.125 10.5C7.125 10.2929 7.29289 10.125 7.5 10.125Z" fill="white"/>
<path d="M9.59467 1.875L7.5 1.875C7.29289 1.875 7.125 1.70711 7.125 1.5C7.125 1.29289 7.29289 1.125 7.5 1.125L10.45 1.125C10.4587 1.125 10.4673 1.12526 10.4759 1.12577C10.5797 1.11911 10.6858 1.15547 10.7652 1.23483C10.8445 1.3142 10.8809 1.4203 10.8742 1.52415C10.8747 1.5327 10.875 1.54132 10.875 1.55V4.5C10.875 4.70711 10.7071 4.875 10.5 4.875C10.2929 4.875 10.125 4.70711 10.125 4.5V2.40533L7.26517 5.26516C7.11872 5.41161 6.88128 5.41161 6.73484 5.26516C6.58839 5.11872 6.58839 4.88128 6.73484 4.73483L9.59467 1.875Z" fill="white"/>
</svg>
