<svg width="20" height="20" viewBox="0 0 20 20" fill="none" xmlns="http://www.w3.org/2000/svg">
<g id="ic/users-1c">
<g id="Union">
<path d="M7.68316 9.81481C9.11447 9.81481 10.2748 8.65451 10.2748 7.2232C10.2748 5.79189 9.11447 4.63159 7.68316 4.63159C6.25186 4.63159 5.09155 5.79189 5.09155 7.2232C5.09155 8.65451 6.25186 9.81481 7.68316 9.81481Z" fill="#202630"/>
<path d="M5.09161 11.4814C3.6603 11.4814 2.5 12.6417 2.5 14.073V15.3688H12.8664V14.073C12.8664 12.6417 11.7061 11.4814 10.2748 11.4814H5.09161Z" fill="#202630"/>
<path d="M17.5001 15.3688H14.5331V14.073C14.5331 13.0978 14.2054 12.1992 13.654 11.4814H14.9085C16.3398 11.4814 17.5001 12.6417 17.5001 14.073V15.3688Z" fill="#202630"/>
<path d="M11.9414 7.2232C11.9414 8.09369 11.6802 8.90316 11.2319 9.57754C11.5619 9.72985 11.9294 9.81481 12.3167 9.81481C13.748 9.81481 14.9083 8.65451 14.9083 7.2232C14.9083 5.7919 13.748 4.63159 12.3167 4.63159C11.9294 4.63159 11.5619 4.71656 11.2319 4.86886C11.6802 5.54324 11.9414 6.35272 11.9414 7.2232Z" fill="#202630"/>
</g>
</g>
</svg>
