<svg width="14" height="14" viewBox="0 0 14 14" fill="none" xmlns="http://www.w3.org/2000/svg">
<path d="M7 0.0664062C10.8292 0.0664062 13.9336 3.17083 13.9336 7C13.9336 10.8292 10.8292 13.9336 7 13.9336C3.17083 13.9336 0.0664062 10.8292 0.0664062 7C0.0664062 3.17083 3.17083 0.0664062 7 0.0664062ZM7 1.26693C3.83357 1.26693 1.26693 3.83357 1.26693 7C1.26693 10.1664 3.83357 12.7331 7 12.7331C10.1664 12.7331 12.7331 10.1664 12.7331 7C12.7331 3.83357 10.1664 1.26693 7 1.26693ZM7 9.33333C7.36819 9.33333 7.66667 9.63181 7.66667 10C7.66667 10.3682 7.36819 10.6667 7 10.6667C6.63181 10.6667 6.33333 10.3682 6.33333 10C6.33333 9.63181 6.63181 9.33333 7 9.33333ZM7 3.5332C7.33133 3.5332 7.60019 3.80215 7.60026 4.13346V8.13346C7.60026 8.46484 7.33137 8.73372 7 8.73372C6.66863 8.73372 6.39974 8.46484 6.39974 8.13346V4.13346C6.39981 3.80215 6.66867 3.5332 7 3.5332Z" fill="white"/>
</svg>
