<svg width="12" height="12" viewBox="0 0 12 12" fill="none" xmlns="http://www.w3.org/2000/svg">
<g clip-path="url(#clip0_47162_113040)">
<path d="M4.25 6L6 4.25L7.75 6L6 7.75L4.25 6Z" fill="white"/>
<path d="M2.33333 3.88044C2.33333 3.46622 2.66912 3.13044 3.08333 3.13044L9.033 3.13044C9.47984 3.13044 9.70229 2.589 9.38452 2.27485L7.93485 0.841771C7.61904 0.52958 7.08333 0.753286 7.08333 1.19735V1.46522C7.08333 1.52045 7.03856 1.56522 6.98333 1.56522H2.25C1.42157 1.56522 0.75 2.23679 0.75 3.06522V3.13044V5.25C0.75 5.66421 1.08579 6 1.5 6H1.58333C1.99755 6 2.33333 5.66421 2.33333 5.25V3.88044Z" fill="white"/>
<path d="M9.66667 8.11956C9.66667 8.53378 9.33088 8.86956 8.91667 8.86956L2.967 8.86956C2.52016 8.86956 2.29771 9.411 2.61548 9.72515L4.06515 11.1582C4.38096 11.4704 4.91667 11.2467 4.91667 10.8026V10.5348C4.91667 10.4796 4.96144 10.4348 5.01667 10.4348H9.75C10.5784 10.4348 11.25 9.76321 11.25 8.93478V8.86956V6.75C11.25 6.33579 10.9142 6 10.5 6H10.4167C10.0025 6 9.66667 6.33579 9.66667 6.75V8.11956Z" fill="white"/>
</g>
<defs>
<clipPath id="clip0_47162_113040">
<rect width="12" height="12" fill="white"/>
</clipPath>
</defs>
</svg>
