<svg xmlns="http://www.w3.org/2000/svg" width="16" height="16" viewBox="0 0 16 16" fill="none">
  <circle cx="8" cy="8" r="8" fill="#F8D33A"/>
  <path d="M10.6322 5.10511L9.91748 6.35311C9.49082 6.06511 9.03215 5.84111 8.59482 5.72378V7.34511C10.2162 7.78245 10.9095 8.43312 10.9095 9.62778V9.64911C10.9095 10.8438 9.99215 11.6118 8.64815 11.7504V12.8064H7.53882V11.7291C6.62148 11.6118 5.72548 11.2491 5.02148 10.7158L5.85348 9.49978C6.42948 9.93711 6.96282 10.2358 7.59215 10.3638V8.66778C6.05615 8.25178 5.29882 7.67578 5.29882 6.40645V6.38511C5.29882 5.21178 6.19482 4.43311 7.53882 4.29445V3.67578H8.64815V4.32645C9.40548 4.42245 10.0455 4.69978 10.6322 5.10511ZM9.35215 9.71311C9.35215 9.36111 9.17082 9.13712 8.59482 8.92378V10.4171C9.09615 10.3424 9.35215 10.1184 9.35215 9.73445V9.71311ZM6.85615 6.31045C6.85615 6.65178 7.00548 6.86511 7.59215 7.07845V5.62778C7.06948 5.69178 6.85615 5.94778 6.85615 6.28911V6.31045Z" fill="black"/>
</svg>
