<svg width="16" height="16" viewBox="0 0 16 16" fill="none" xmlns="http://www.w3.org/2000/svg">
<path fill-rule="evenodd" clip-rule="evenodd" d="M5.51855 2.26281C5.38205 1.89282 5.65582 1.5 6.05019 1.5H9.95379C10.3482 1.5 10.6219 1.89282 10.4854 2.26281L9.63508 4.56763C11.4208 5.16977 12.7833 6.73416 13.0626 8.68958L13.8244 14.0222C13.8464 14.1759 13.8006 14.3317 13.6988 14.449C13.597 14.5664 13.4493 14.6338 13.2939 14.6338H2.69366C2.37616 14.6338 2.13232 14.3526 2.17722 14.0384L2.94133 8.68959C3.22067 6.73416 4.58315 5.16977 6.36889 4.56763L5.51855 2.26281ZM7.35144 4.34173C7.56491 4.31449 7.78207 4.30049 8.00199 4.30049C8.2219 4.30049 8.43907 4.31449 8.65254 4.34173L9.33203 2.5H6.67195L7.35144 4.34173ZM8.00199 5.30049C7.70373 5.30049 7.41248 5.3324 7.13159 5.39306C5.48104 5.74947 4.17851 7.10041 3.93128 8.83101L3.24516 13.6338H12.7588L12.0727 8.831C11.8255 7.10041 10.5229 5.74947 8.87238 5.39306C8.59149 5.3324 8.30025 5.30049 8.00199 5.30049Z" fill="#909090"/>
<path d="M6.00174 9.33333L8.00174 7.33333L10.0017 9.33333L8.00174 11.3333L6.00174 9.33333Z" fill="#909090"/>
</svg>
