<svg width="21" height="20" viewBox="0 0 21 20" fill="none" xmlns="http://www.w3.org/2000/svg">
<path d="M10.499 1.33301C15.2855 1.33301 19.166 5.21353 19.166 10C19.166 14.7865 15.2855 18.667 10.499 18.667C5.71256 18.667 1.83203 14.7865 1.83203 10C1.83203 5.21353 5.71256 1.33301 10.499 1.33301ZM10.499 2.83366C6.54098 2.83366 3.33268 6.04196 3.33268 10C3.33268 13.958 6.54098 17.1663 10.499 17.1663C14.4571 17.1663 17.6654 13.958 17.6654 10C17.6654 6.04196 14.4571 2.83366 10.499 2.83366ZM13.2798 6.993C13.5597 6.68791 14.0341 6.66761 14.3394 6.94743C14.6444 7.22735 14.6647 7.70175 14.3849 8.007L9.80159 13.007C9.65538 13.1664 9.44734 13.2546 9.23112 13.2495C9.01486 13.2443 8.81134 13.1463 8.67285 12.9801L6.58952 10.4801L6.54313 10.4191C6.33043 10.104 6.38719 9.67246 6.68555 9.42383C6.98391 9.17519 7.41817 9.19764 7.68978 9.4637L7.74186 9.51986L9.27588 11.3607L13.2798 6.993Z" fill="#28A473"/>
</svg>
