<svg width="16" height="16" viewBox="0 0 16 16" fill="none" xmlns="http://www.w3.org/2000/svg">
<path d="M2.20025 12.8H11.8003V3.2H2.20025V12.8ZM13.0003 13C13.0003 13.52 12.6069 13.9467 12.1003 13.9933H12.0003H2.00025H1.90025C1.42692 13.94 1.05359 13.5667 1.00692 13.0933V12.9933V2.99333C1.00025 2.48 1.39359 2.05333 1.90025 2H2.00025H12.0003C12.5536 2 13.0003 2.44667 13.0003 3V13Z" fill="white"/>
<path d="M6.99967 6L9.16634 8.16667L6.99967 10.3333L4.83301 8.16667L6.99967 6Z" fill="white"/>
<path d="M15.2666 11.2071C15.2666 11.7404 14.6733 12.0538 14.2333 11.7604L12.3399 10.4938L12.2933 10.4604C12.0599 10.2671 12.0066 9.92044 12.1733 9.66711C12.3466 9.40711 12.6866 9.32711 12.9533 9.46711L13.0066 9.50044L14.0733 10.2138V5.94711L13.0599 6.79378C12.8066 7.00711 12.4266 6.97378 12.2133 6.71378C11.9999 6.46044 12.0333 6.08044 12.2933 5.86711L14.1866 4.29378L14.2733 4.23378C14.7066 3.97378 15.2799 4.27378 15.2799 4.80711V11.2071H15.2666Z" fill="white"/>
</svg>
