<svg width="17" height="16" viewBox="0 0 17 16" fill="none" xmlns="http://www.w3.org/2000/svg">
<g id="ic/refresh-1c">
<path id="Union" fill-rule="evenodd" clip-rule="evenodd" d="M13.8309 8.13994C13.8321 8.09338 13.8327 8.04668 13.8327 7.99984C13.8327 7.95299 13.8321 7.90629 13.8309 7.85974V8.13994ZM10.8556 10.3579L9.11681 8.61912H13.8309L13.8309 13.3332L12.2697 11.772C11.3046 12.7366 9.97164 13.3332 8.49935 13.3332C6.0142 13.3332 3.92605 11.6334 3.33402 9.33309H5.44367C5.95802 10.5104 7.13276 11.3332 8.49967 11.3332C9.4196 11.3332 10.2525 10.9605 10.8556 10.3579ZM13.6647 6.6665C13.0726 4.3662 10.9845 2.6665 8.49935 2.6665C7.0268 2.6665 5.69364 3.26328 4.72853 4.22818L3.16685 2.6665L3.16685 7.38055L7.8809 7.38055L6.14291 5.64256C6.7461 5.03949 7.57933 4.6665 8.49967 4.6665C9.86655 4.6665 11.0413 5.48923 11.5556 6.6665L13.6647 6.6665ZM3.16602 7.99984C3.16602 7.96539 3.16634 7.93103 3.16699 7.89674V8.10293C3.16634 8.06865 3.16602 8.03428 3.16602 7.99984Z" fill="#202630"/>
</g>
</svg>
