<svg width="16" height="16" viewBox="0 0 16 16" fill="none" xmlns="http://www.w3.org/2000/svg">
<path fill-rule="evenodd" clip-rule="evenodd" d="M7.80078 3.8335C8.07692 3.8335 8.30078 4.05735 8.30078 4.3335L8.30078 8.46672C8.30078 8.74286 8.07692 8.96672 7.80078 8.96672C7.52464 8.96672 7.30078 8.74286 7.30078 8.46672L7.30078 4.3335C7.30078 4.05735 7.52464 3.8335 7.80078 3.8335Z" fill="#909090"/>
<path fill-rule="evenodd" clip-rule="evenodd" d="M10.3535 11.0201C10.1582 11.2153 9.84163 11.2153 9.64637 11.0201L7.44634 8.82002C7.25108 8.62476 7.25108 8.30818 7.44634 8.11292C7.6416 7.91766 7.95818 7.91766 8.15345 8.11292L10.3535 10.313C10.5487 10.5082 10.5487 10.8248 10.3535 11.0201Z" fill="#909090"/>
<path fill-rule="evenodd" clip-rule="evenodd" d="M8.0013 13.6668C4.87169 13.6668 2.33463 11.1298 2.33463 8.00016C2.33463 4.87055 4.87169 2.3335 8.0013 2.3335C11.1309 2.3335 13.668 4.87055 13.668 8.00016C13.668 11.1298 11.1309 13.6668 8.0013 13.6668ZM8.0013 14.6668C4.3194 14.6668 1.33463 11.6821 1.33463 8.00016C1.33463 4.31826 4.3194 1.3335 8.0013 1.3335C11.6832 1.3335 14.668 4.31826 14.668 8.00016C14.668 11.6821 11.6832 14.6668 8.0013 14.6668Z" fill="#909090"/>
</svg>
