<svg width="20" height="20" viewBox="0 0 20 20" fill="none" xmlns="http://www.w3.org/2000/svg">
<path fill-rule="evenodd" clip-rule="evenodd" d="M10 17.5C14.1421 17.5 17.5 14.1421 17.5 10C17.5 5.85786 14.1421 2.5 10 2.5C5.85786 2.5 2.5 5.85786 2.5 10C2.5 14.1421 5.85786 17.5 10 17.5ZM9.99992 6.88902C9.50911 6.88902 9.11124 7.2869 9.11124 7.7777V8.13318H7.33387V7.7777C7.33387 6.30529 8.5275 5.11166 9.99992 5.11166C11.4723 5.11166 12.666 6.30529 12.666 7.7777C12.666 8.51367 12.3666 9.1814 11.8851 9.66288L10.8886 10.6594V11.6879H9.11124V9.92317L10.6283 8.4061C10.7901 8.2443 10.8886 8.02335 10.8886 7.7777C10.8886 7.2869 10.4907 6.88902 9.99992 6.88902ZM9.11124 14.8872V13.1098H10.8886V14.8872H9.11124Z" fill="#B7BDC6"/>
</svg>
