<svg width="12" height="12" viewBox="0 0 12 12" fill="none" xmlns="http://www.w3.org/2000/svg">
<path d="M5.375 4.75L6.575 4.75L6.575 10.75L5.375 10.75L5.375 4.75Z" fill="white"/>
<path d="M1.5 9.875C1.5 9.66789 1.66789 9.5 1.875 9.5H10.125C10.3321 9.5 10.5 9.66789 10.5 9.875V10.625C10.5 10.8321 10.3321 11 10.125 11H1.875C1.66789 11 1.5 10.8321 1.5 10.625V9.875Z" fill="white"/>
<path d="M1.25508 3.58391C1.30849 4.30317 1.75688 4.93952 2.42615 5.2289L5.49904 6.5574L5.56122 6.57975C5.85286 6.66338 6.15433 6.46532 6.19315 6.16438L6.1971 6.09853L6.19705 4.16026C6.19705 3.4311 5.79097 2.7674 5.15195 2.43293L5.02113 2.3707L1.9483 1.04151C1.61823 0.898901 1.24987 1.14109 1.24987 1.50069L1.24992 3.43896L1.25508 3.58391Z" fill="white"/>
<path d="M10.6922 3.58391C10.6388 4.30317 10.1904 4.93952 9.52112 5.2289L6.44823 6.5574L6.38604 6.57975C6.0944 6.66338 5.79293 6.46532 5.75412 6.16438L5.75016 6.09853L5.75022 4.16026C5.75022 3.4311 6.1563 2.7674 6.79531 2.43293L6.92614 2.3707L9.99897 1.04151C10.329 0.898901 10.6974 1.14109 10.6974 1.50069L10.6973 3.43896L10.6922 3.58391Z" fill="white"/>
</svg>
