<svg xmlns="http://www.w3.org/2000/svg" width="65" height="64" viewBox="0 0 65 64" fill="none">
  <path fill-rule="evenodd" clip-rule="evenodd" d="M32.5 5.33338C40.232 5.33338 46.5 11.6014 46.5 19.3334C46.5 27.0654 40.232 33.3334 32.5 33.3334C24.768 33.3334 18.5 27.0654 18.5 19.3334C18.5 11.6014 24.768 5.33338 32.5 5.33338ZM32.5 25.3334L26.5 19.3334L32.5 13.3334L38.5 19.3334L32.5 25.3334Z" fill="#F0B90B"/>
  <g opacity="0.2">
    <path d="M7.16634 20H5.83301V41.3333L15.833 51.3333H29.1664L29.1664 42.6666L20.2709 33.7712C19.5637 33.064 18.6045 32.6667 17.6043 32.6667C15.5215 32.6667 13.833 34.3551 13.833 36.4379V26.6667C13.833 22.9848 10.8482 20 7.16634 20Z" fill="#AEB4BC"/>
    <path d="M35.833 51.3333L35.833 42.6666L44.7284 33.7712C45.4357 33.064 46.3949 32.6667 47.3951 32.6667C49.4779 32.6667 51.1663 34.3551 51.1663 36.4379V26.6667C51.1663 22.9848 54.1511 20 57.833 20H59.1663V41.3333L49.1663 51.3333H35.833Z" fill="#AEB4BC"/>
  </g>
  <g opacity="0.5">
    <path d="M29.1663 51.3334H15.833V58.6667H29.1663V51.3334Z" fill="#AEB4BC"/>
    <path d="M49.1663 51.3334H35.833V58.6667H49.1663V51.3334Z" fill="#AEB4BC"/>
  </g>
</svg>
