<svg width="16" height="16" viewBox="0 0 16 16" fill="none" xmlns="http://www.w3.org/2000/svg">
<path d="M2.20025 12.633H13.8003V3.03301H2.20025V12.633ZM15.0003 12.833V12.933C14.9469 13.4063 14.5736 13.7797 14.1003 13.8263H14.0003H2.00025H1.90025C1.42692 13.773 1.05359 13.3997 1.00692 12.9263V12.8263V2.82634C1.00025 2.31301 1.39359 1.88634 1.90025 1.83301H2.00025H14.0003H14.1003C14.6069 1.88634 15.0003 2.31301 15.0003 2.83301V12.833Z" fill="white"/>
<path d="M14.6663 4.63379V5.83379H1.33301V4.63379H14.6663Z" fill="white"/>
<path d="M11.2664 7.0529C11.493 6.8529 11.8397 6.84623 12.073 7.0529C12.2997 7.25957 12.333 7.6129 12.153 7.8529L12.113 7.89957L9.79969 10.4329C9.49969 10.7596 8.97969 10.7662 8.67302 10.4396L6.71969 8.36623L4.77302 10.4196C4.54635 10.6596 4.16635 10.6662 3.92635 10.4396C3.68635 10.2129 3.67969 9.8329 3.90635 9.5929L6.17302 7.20623L6.23302 7.1529C6.51969 6.90623 6.94635 6.90623 7.22635 7.1529L7.28635 7.20623L9.23302 9.2729L11.233 7.08623L11.2797 7.03957L11.2664 7.0529Z" fill="white"/>
</svg>
