<svg width="20" height="20" viewBox="0 0 20 20" fill="none" xmlns="http://www.w3.org/2000/svg">
<g id="ic/turn-off-1c">
<g id="Union">
<path d="M10.6282 2.5C10.6282 2.15482 10.3484 1.875 10.0032 1.875C9.65802 1.875 9.3782 2.15482 9.3782 2.5V9.16667C9.3782 9.51184 9.65802 9.79167 10.0032 9.79167C10.3484 9.79167 10.6282 9.51184 10.6282 9.16667V2.5Z" fill="#F24057"/>
<path d="M14.9 6.0487C14.6559 5.80463 14.2602 5.80463 14.0161 6.0487C13.772 6.29278 13.772 6.68851 14.0161 6.93259C14.8098 7.72626 15.3503 8.73746 15.5692 9.83832C15.7882 10.9392 15.6758 12.0802 15.2463 13.1172C14.8168 14.1542 14.0894 15.0405 13.1561 15.6641C12.2228 16.2877 11.1256 16.6205 10.0032 16.6205C8.88078 16.6205 7.78356 16.2877 6.8503 15.6641C5.91704 15.0405 5.18965 14.1542 4.76012 13.1172C4.33058 12.0802 4.2182 10.9392 4.43717 9.83832C4.65615 8.73746 5.19665 7.72626 5.99032 6.93259C6.2344 6.68851 6.2344 6.29278 5.99032 6.0487C5.74624 5.80463 5.35051 5.80463 5.10644 6.0487C4.13795 7.01719 3.4784 8.25112 3.21119 9.59445C2.94399 10.9378 3.08113 12.3302 3.60527 13.5956C4.12941 14.861 5.01701 15.9425 6.15584 16.7035C7.29466 17.4644 8.63355 17.8705 10.0032 17.8705C11.3729 17.8705 12.7117 17.4644 13.8506 16.7035C14.9894 15.9425 15.877 14.861 16.4011 13.5956C16.9253 12.3302 17.0624 10.9378 16.7952 9.59445C16.528 8.25112 15.8685 7.01719 14.9 6.0487Z" fill="#F24057"/>
</g>
</g>
</svg>
