<svg width="16" height="16" viewBox="0 0 16 16" fill="none" xmlns="http://www.w3.org/2000/svg">
<path d="M7.66016 10C7.95996 10.0334 8.2 10.2865 8.2002 10.5996C8.2002 10.9129 7.96676 11.1668 7.66016 11.2002H5.59961C5.26646 11.2 5 10.9328 5 10.5996C5.00021 10.2666 5.26659 10.0002 5.59961 10H7.66016ZM10.3271 7.33301C10.6269 7.36654 10.8662 7.62041 10.8662 7.93359C10.8661 8.24664 10.6335 8.49966 10.3271 8.5332H5.59961C5.26655 8.53299 5.00014 8.26668 5 7.93359C5 7.60039 5.26646 7.33322 5.59961 7.33301H10.3271ZM10.3271 4.66699C10.6269 4.70055 10.8662 4.95348 10.8662 5.2666C10.8662 5.57976 10.6336 5.83265 10.3271 5.86621H5.59961C5.26646 5.866 5 5.5998 5 5.2666C5.00003 4.93343 5.26648 4.6672 5.59961 4.66699H10.3271Z" fill="white"/>
<path d="M13.8667 9.12667C13.8667 9.46 13.6 9.72667 13.2667 9.72667C12.9333 9.72667 12.6667 9.46 12.6667 9.12667V2.2H3.2V13.6667H8.2C8.5 13.7 8.74 13.9533 8.74 14.2667C8.74 14.58 8.50667 14.8333 8.2 14.8667H2.93333C2.42 14.8667 2 14.4467 2 13.9333V1.93333C2 1.42 2.42 1 2.93333 1H12.9333C13.4467 1 13.8667 1.42 13.8667 1.93333V9.12667Z" fill="white"/>
<path d="M9 12.6338L11.5 10.1338L14 12.6338L11.5 15.1338L9 12.6338Z" fill="white"/>
</svg>
