<svg width="16" height="16" viewBox="0 0 16 16" fill="none" xmlns="http://www.w3.org/2000/svg">
<g clip-path="url(#clip0_38809_191194)">
<path d="M9.1626 6.20624C9.29421 6.00756 9.54649 5.91946 9.78055 5.96427C9.90306 5.98772 10.0295 6 10.1589 6C11.2634 6 12.1589 5.10457 12.1589 4C12.1589 2.89543 11.2634 2 10.1589 2C10.0295 2 9.90306 2.01228 9.78056 2.03573C9.54649 2.08054 9.29421 1.99244 9.1626 1.79376C8.9969 1.54364 9.06368 1.18999 9.35272 1.10955C9.60923 1.03816 9.87959 1 10.1589 1C11.8157 1 13.1589 2.34315 13.1589 4C13.1589 5.65685 11.8157 7 10.1589 7C9.87959 7 9.60923 6.96184 9.35272 6.89045C9.06368 6.81001 8.99691 6.45636 9.1626 6.20624Z" fill="#909090"/>
<path d="M0.992188 11.3333C0.992188 9.40034 2.55919 7.83333 4.49219 7.83333H7.15885C9.09185 7.83333 10.6589 9.40034 10.6589 11.3333V14C10.6589 14.2761 10.435 14.5 10.1589 14.5C9.88271 14.5 9.65885 14.2761 9.65885 14V11.3333C9.65885 9.95262 8.53957 8.83333 7.15885 8.83333H4.49219C3.11148 8.83333 1.99219 9.95262 1.99219 11.3333V14C1.99219 14.2761 1.76833 14.5 1.49219 14.5C1.21605 14.5 0.992188 14.2761 0.992188 14V11.3333Z" fill="#909090"/>
<path d="M11.1172 8.83333C10.9822 8.83333 10.8568 8.76486 10.7764 8.65637C10.5493 8.34995 10.7496 7.83333 11.131 7.83333H11.4922C13.4252 7.83333 14.9922 9.40034 14.9922 11.3333V14C14.9922 14.2761 14.7684 14.5 14.4922 14.5C14.2161 14.5 13.9922 14.2761 13.9922 14V11.3333C13.9922 9.95262 12.8729 8.83333 11.4922 8.83333H11.1172Z" fill="#909090"/>
<path fill-rule="evenodd" clip-rule="evenodd" d="M8.82552 4C8.82552 5.65685 7.48238 7 5.82552 7C4.16867 7 2.82552 5.65685 2.82552 4C2.82552 2.34315 4.16867 1 5.82552 1C7.48238 1 8.82552 2.34315 8.82552 4ZM7.82552 4C7.82552 5.10457 6.93009 6 5.82552 6C4.72095 6 3.82552 5.10457 3.82552 4C3.82552 2.89543 4.72095 2 5.82552 2C6.93009 2 7.82552 2.89543 7.82552 4Z" fill="#909090"/>
</g>
<defs>
<clipPath id="clip0_38809_191194">
<rect width="16" height="16" fill="white"/>
</clipPath>
</defs>
</svg>
