<svg width="24" height="24" viewBox="0 0 24 24" fill="none" xmlns="http://www.w3.org/2000/svg">
<path d="M9.72224 8.14233C10.1365 8.14233 10.4722 8.47812 10.4722 8.89233V15.1075C10.4722 15.5217 10.1365 15.8575 9.72224 15.8575C9.30803 15.8575 8.97224 15.5217 8.97224 15.1075V8.89233C8.97224 8.47812 9.30803 8.14233 9.72224 8.14233Z" fill="black"/>
<path d="M15.029 8.89233C15.029 8.47812 14.6932 8.14233 14.279 8.14233C13.8648 8.14233 13.529 8.47812 13.529 8.89233V15.1075C13.529 15.5217 13.8648 15.8575 14.279 15.8575C14.6932 15.8575 15.029 15.5217 15.029 15.1075V8.89233Z" fill="black"/>
<path fill-rule="evenodd" clip-rule="evenodd" d="M1.75 11.9998C1.75 6.33843 6.33941 1.74902 12.0007 1.74902C17.6621 1.74902 22.2515 6.33843 22.2515 11.9998C22.2515 17.6611 17.6621 22.2505 12.0007 22.2505C6.33941 22.2505 1.75 17.6611 1.75 11.9998ZM12.0007 3.24902C7.16784 3.24902 3.25 7.16686 3.25 11.9998C3.25 16.8327 7.16784 20.7505 12.0007 20.7505C16.8336 20.7505 20.7515 16.8327 20.7515 11.9998C20.7515 7.16686 16.8336 3.24902 12.0007 3.24902Z" fill="black"/>
</svg>
