<svg width="24" height="24" viewBox="0 0 24 24" fill="none" xmlns="http://www.w3.org/2000/svg">
<path d="M19.6523 2.65128C20.1209 2.18265 20.8809 2.18265 21.3495 2.65128C21.8181 3.11991 21.8181 3.87991 21.3495 4.34854L4.34952 21.3485C3.88089 21.8172 3.12088 21.8172 2.65225 21.3485C2.18362 20.8799 2.18362 20.1199 2.65225 19.6513L19.6523 2.65128Z" fill="black"/>
<path d="M8.09961 6V11C8.09961 12.3349 8.77043 13.5133 9.79332 14.2165L15.9004 8.10156V6C15.9004 3.84609 14.1539 2.09961 12 2.09961C9.84609 2.09961 8.09961 3.84609 8.09961 6Z" fill="black"/>
<path d="M19.2012 9.7998C19.4773 9.7998 19.7012 10.0237 19.7012 10.2998V11C19.7012 14.5656 16.9777 17.4149 13.501 18.0615V22C13.501 22.2761 13.2771 22.5 13.001 22.5H11.001C10.7248 22.5 10.501 22.2761 10.501 22V18.0615C10.3169 18.0273 10.1356 17.9848 9.95605 17.9385L12.0977 15.7969C15.0689 15.7497 17.3008 13.5349 17.3008 11V10.2998C17.3008 10.0237 17.5246 9.7998 17.8008 9.7998H19.2012ZM6.20117 9.7998C6.47731 9.7998 6.70117 10.0237 6.70117 10.2998V11C6.70117 12.3676 7.35107 13.6425 8.41602 14.5342L6.71582 16.2344C5.23906 14.9358 4.30078 13.0917 4.30078 11V10.2998C4.30078 10.0237 4.52464 9.7998 4.80078 9.7998H6.20117Z" fill="black"/>
</svg>
