<svg width="20" height="20" viewBox="0 0 20 20" fill="none" xmlns="http://www.w3.org/2000/svg">
<path fill-rule="evenodd" clip-rule="evenodd" d="M2.91797 6.45833L4.86544 6.45834C5.14759 7.65279 6.22064 8.54167 7.5013 8.54167C8.78196 8.54167 9.85501 7.65279 10.1372 6.45833L17.0846 6.45834C17.4298 6.45834 17.7096 6.17851 17.7096 5.83334C17.7096 5.48816 17.4298 5.20834 17.0846 5.20834L10.1372 5.20833C9.85501 4.01388 8.78196 3.125 7.5013 3.125C6.22064 3.125 5.14759 4.01388 4.86544 5.20834L2.91797 5.20833C2.57279 5.20833 2.29297 5.48816 2.29297 5.83333C2.29297 6.17851 2.57279 6.45833 2.91797 6.45833ZM7.5013 4.375C6.69589 4.375 6.04297 5.02792 6.04297 5.83333C6.04297 6.63875 6.69589 7.29167 7.5013 7.29167C8.30672 7.29167 8.95964 6.63875 8.95964 5.83333C8.95964 5.02792 8.30672 4.375 7.5013 4.375Z" fill="#909090"/>
<path fill-rule="evenodd" clip-rule="evenodd" d="M15.1372 14.7917C14.855 15.9861 13.782 16.875 12.5013 16.875C11.2206 16.875 10.1476 15.9861 9.86544 14.7917L2.91797 14.7917C2.57279 14.7917 2.29297 14.5118 2.29297 14.1667C2.29297 13.8215 2.57279 13.5417 2.91797 13.5417L9.86544 13.5417C10.1476 12.3472 11.2206 11.4583 12.5013 11.4583C13.782 11.4583 14.855 12.3472 15.1372 13.5417L17.0846 13.5417C17.4298 13.5417 17.7096 13.8215 17.7096 14.1667C17.7096 14.5118 17.4298 14.7917 17.0846 14.7917L15.1372 14.7917ZM11.043 14.1667C11.043 13.3613 11.6959 12.7083 12.5013 12.7083C13.3067 12.7083 13.9596 13.3613 13.9596 14.1667C13.9596 14.9721 13.3067 15.625 12.5013 15.625C11.6959 15.625 11.043 14.9721 11.043 14.1667Z" fill="#909090"/>
</svg>
