<svg width="20" height="20" viewBox="0 0 20 20" fill="none" xmlns="http://www.w3.org/2000/svg">
<g id="ic/mic-on-1c">
<g id="Union">
<path d="M6.66797 5.0287C6.66797 3.17188 8.16035 1.66663 10.0013 1.66663C11.8423 1.66663 13.3346 3.17188 13.3346 5.0287V9.13789C13.3346 10.9947 11.8423 12.5 10.0013 12.5C8.16035 12.5 6.66797 10.9947 6.66797 9.13789V5.0287Z" fill="#202630"/>
<path d="M8.95964 16.1739C5.54148 15.6701 2.91797 12.7248 2.91797 9.16663H5.0013C5.0013 11.9281 7.23988 14.1666 10.0013 14.1666C12.7627 14.1666 15.0013 11.9281 15.0013 9.16663H17.0846C17.0846 12.7248 14.4611 15.6701 11.043 16.1739V18.3333H8.95964V16.1739Z" fill="#202630"/>
</g>
</g>
</svg>
