<svg width="12" height="12" viewBox="0 0 12 12" fill="none" xmlns="http://www.w3.org/2000/svg">
<path d="M6 1C8.76142 1 11 3.23858 11 6C11 8.76142 8.76142 11 6 11C3.23858 11 1 8.76142 1 6C1 3.23858 3.23858 1 6 1ZM8.56836 4.18164C8.39262 4.0059 8.10738 4.0059 7.93164 4.18164L5.25 6.86328L4.06836 5.68164L4.03418 5.65088C3.85743 5.50665 3.59642 5.51686 3.43164 5.68164C3.26686 5.84642 3.25665 6.10743 3.40088 6.28418L3.43164 6.31836L4.93164 7.81836L4.96582 7.84912C5.14257 7.99335 5.40358 7.98314 5.56836 7.81836L8.56836 4.81836C8.7441 4.64262 8.7441 4.35738 8.56836 4.18164Z" fill="white"/>
</svg>
