<svg width="24" height="24" viewBox="0 0 24 24" fill="none" xmlns="http://www.w3.org/2000/svg">
<path d="M13.6518 7.52273C13.3589 7.81562 12.884 7.81562 12.5911 7.52273C12.2982 7.22983 12.2982 6.75496 12.5911 6.46207L13.4319 5.62132H12C7.99594 5.62132 4.75 8.86726 4.75 12.8713C4.75 16.8754 7.99594 20.1213 12 20.1213C16.0041 20.1213 19.25 16.8754 19.25 12.8713C19.25 12.4571 19.5858 12.1213 20 12.1213C20.4142 12.1213 20.75 12.4571 20.75 12.8713C20.75 17.7038 16.8325 21.6213 12 21.6213C7.16751 21.6213 3.25 17.7038 3.25 12.8713C3.25 8.03883 7.16751 4.12132 12 4.12132H13.4323L12.5911 3.28009C12.2982 2.98719 12.2982 2.51232 12.5911 2.21943C12.884 1.92653 13.3589 1.92653 13.6518 2.21943L15.7024 4.27003C16.0343 4.60198 16.0343 5.14017 15.7024 5.47212L13.6518 7.52273Z" fill="black"/>
<path fill-rule="evenodd" clip-rule="evenodd" d="M13.8424 15.3711C12.4688 15.3711 11.624 14.2447 11.624 12.8848V12.8711C11.624 11.5112 12.4894 10.3711 13.8562 10.3711C15.2229 10.3711 16.0746 11.4974 16.0746 12.8573V12.8711C16.0746 14.231 15.2161 15.3711 13.8424 15.3711ZM13.8562 14.1898C14.3919 14.1898 14.7353 13.6472 14.7353 12.8848V12.8711C14.7353 12.1087 14.3713 11.5524 13.8424 11.5524C13.3136 11.5524 12.9633 12.0881 12.9633 12.8573V12.8711C12.9633 13.6403 13.3205 14.1898 13.8562 14.1898Z" fill="black"/>
<path d="M9.5646 15.1751C9.5646 15.2303 9.60938 15.2751 9.6646 15.2751H10.7764C10.8316 15.2751 10.8764 15.2303 10.8764 15.1751V10.5331C10.8764 10.4779 10.8316 10.4331 10.7764 10.4331H9.92189C9.91268 10.4331 9.90352 10.4344 9.89466 10.4369L8.59306 10.8051C8.54119 10.8198 8.51028 10.873 8.52319 10.9253L8.73062 11.7662C8.74369 11.8192 8.79682 11.8519 8.85001 11.8397L9.55237 11.679C9.55864 11.6776 9.5646 11.6823 9.5646 11.6888V15.1751Z" fill="black"/>
</svg>
