<svg xmlns="http://www.w3.org/2000/svg" width="21" height="20" viewBox="0 0 21 20" fill="none">
  <defs>
    <linearGradient id="paint0_linear_42006_45750" x1="1.57031" y1="16.5475" x2="14.9363" y2="16.1126" gradientUnits="userSpaceOnUse">
      <stop stop-color="#6BBCFF"/>
      <stop offset="0.45" stop-color="#707AFF"/>
      <stop offset="0.9" stop-color="#C5A3FF"/>
      <stop offset="1" stop-color="#FFAC63"/>
    </linearGradient>
    <linearGradient id="paint1_linear_42006_45750" x1="10.7266" y1="8.18123" x2="18.9666" y2="7.89641" gradientUnits="userSpaceOnUse">
      <stop stop-color="#6BBCFF"/>
      <stop offset="0.45" stop-color="#707AFF"/>
      <stop offset="0.9" stop-color="#C5A3FF"/>
      <stop offset="1" stop-color="#FFAC63"/>
    </linearGradient>
  </defs>
  <path d="M7.38698 4.9584C7.71198 4.49173 8.42031 4.49173 8.74531 4.9584L8.81198 5.06673L10.737 8.8834L14.137 10.7834L14.237 10.8501C14.6703 11.1834 14.6703 11.8417 14.237 12.1751L14.137 12.2417L10.737 14.1417L8.81198 17.9584C8.52031 18.5334 7.73698 18.5667 7.38698 18.0667L7.32031 17.9584L5.38698 14.1417L1.99531 12.2334C1.42865 11.9167 1.42865 11.1001 1.99531 10.7751L5.39531 8.87506L7.32865 5.0584L7.39531 4.95007L7.38698 4.9584ZM6.63698 9.74173C6.57865 9.85006 6.50365 9.95007 6.40365 10.0251L6.30365 10.0917L3.77031 11.5084L6.30365 12.9251L6.40365 12.9917C6.47031 13.0417 6.52865 13.1001 6.57031 13.1667L6.63698 13.2751L8.06198 16.0917L9.48698 13.2751L9.55365 13.1667C9.62865 13.0667 9.72031 12.9834 9.82865 12.9251L12.362 11.5084L9.82865 10.0917C9.72031 10.0334 9.62865 9.95007 9.55365 9.84173L9.48698 9.7334L8.06198 6.91673L6.63698 9.7334V9.74173Z" fill="url(#paint0_linear_42006_45750)"/>
  <path d="M14.087 1.5582C14.4203 1.14987 15.0453 1.14987 15.3786 1.5582L15.4453 1.64987L16.5286 3.41654L18.3453 4.54987L18.437 4.61654C18.837 4.94987 18.837 5.56654 18.437 5.89987L18.3453 5.96654L16.5286 7.09987L15.4453 8.86654C15.1203 9.39987 14.3536 9.39987 14.0203 8.86654L12.937 7.09987L11.1203 5.96654C10.5953 5.64154 10.5953 4.87487 11.1203 4.54987L12.937 3.41654L14.0203 1.64987L14.087 1.5582ZM14.1286 4.3332C14.0786 4.41654 14.012 4.49154 13.937 4.54987L13.862 4.6082L12.8203 5.2582L13.862 5.9082L13.937 5.96654C13.987 6.0082 14.037 6.04987 14.0703 6.09987L14.1286 6.1832L14.7286 7.1582L15.3286 6.1832L15.387 6.09987C15.4453 6.02487 15.5203 5.9582 15.6036 5.9082L16.6453 5.2582L15.6036 4.6082C15.5203 4.5582 15.4453 4.49154 15.387 4.41654L15.3286 4.3332L14.7286 3.3582L14.1286 4.3332Z" fill="url(#paint1_linear_42006_45750)"/>
</svg>
