<svg width="20" height="20" viewBox="0 0 20 20" fill="none" xmlns="http://www.w3.org/2000/svg">
<path d="M4.0517 14.886L8.9378 9.9999C6.85775 7.91984 4.88688 5.94897 4.0517 5.1138C3.75881 4.8209 3.75881 4.34557 4.0517 4.05268C4.34459 3.75979 4.81993 3.75978 5.11282 4.05268L9.99892 8.93878L14.885 4.05268C15.1779 3.75978 15.6533 3.75979 15.9461 4.05268C16.239 4.34557 16.239 4.8209 15.9461 5.1138L11.06 9.9999L15.9461 14.886L15.9974 14.943C16.2378 15.2376 16.2208 15.6725 15.9461 15.9471C15.6715 16.2218 15.2366 16.2387 14.942 15.9983L14.885 15.9471L9.99892 11.061L5.11282 15.9471C4.81993 16.24 4.34459 16.24 4.0517 15.9471C3.75881 15.6542 3.75881 15.1789 4.0517 14.886Z" fill="white"/>
</svg>
