<svg width="25" height="24" viewBox="0 0 25 24" fill="none" xmlns="http://www.w3.org/2000/svg">
<path d="M7.74609 11.7495C7.74609 11.3353 8.08188 10.9995 8.49609 10.9995H16.4961C16.9103 10.9995 17.2461 11.3353 17.2461 11.7495C17.2461 12.1637 16.9103 12.4995 16.4961 12.4995H8.49609C8.08188 12.4995 7.74609 12.1637 7.74609 11.7495Z" fill="white"/>
<path d="M8.49609 7.86206C8.08188 7.86206 7.74609 8.19785 7.74609 8.61206C7.74609 9.02627 8.08188 9.36206 8.49609 9.36206H16.4961C16.9103 9.36206 17.2461 9.02627 17.2461 8.61206C17.2461 8.19785 16.9103 7.86206 16.4961 7.86206H8.49609Z" fill="white"/>
<path fill-rule="evenodd" clip-rule="evenodd" d="M3.4375 4.8501C3.4375 4.15974 3.99714 3.6001 4.6875 3.6001H20.3057C20.996 3.6001 21.5557 4.15974 21.5557 4.8501V15.5116C21.5557 16.202 20.996 16.7616 20.3057 16.7616H11.7092L6.45777 20.6363C6.19786 20.8281 5.86567 20.8558 5.59084 20.7356C5.30049 20.6087 5.01157 20.2641 5.10736 19.8049L5.74222 16.7616H4.6875C3.99714 16.7616 3.4375 16.202 3.4375 15.5116V4.8501ZM4.9375 5.1001V15.2616H6.54181C7.08107 15.2616 7.48403 15.7573 7.3739 16.2852L6.92737 18.4257L10.9907 15.4277C11.1368 15.3198 11.3137 15.2616 11.4953 15.2616H20.0557V5.1001H4.9375Z" fill="white"/>
</svg>
