<svg width="97" height="96" viewBox="0 0 97 96" fill="none" xmlns="http://www.w3.org/2000/svg">
<path opacity="0.25" fill-rule="evenodd" clip-rule="evenodd" d="M48.5 88.0007C70.5914 88.0007 88.5 70.0921 88.5 48.0007C88.5 25.9093 70.5914 8.00073 48.5 8.00073C26.4086 8.00073 8.5 25.9093 8.5 48.0007C8.5 70.0921 26.4086 88.0007 48.5 88.0007ZM60.8126 37.4028L65.0553 41.6455L45.2563 61.4445L45.2561 61.4443L41.0136 57.2018L33.9424 50.1306L38.185 45.8879L45.2563 52.9592L60.8126 37.4028Z" fill="#2EE39D"/>
<path fill-rule="evenodd" clip-rule="evenodd" d="M48.5 77.0007C64.5163 77.0007 77.5 64.017 77.5 48.0007C77.5 31.9845 64.5163 19.0007 48.5 19.0007C32.4837 19.0007 19.5 31.9845 19.5 48.0007C19.5 64.017 32.4837 77.0007 48.5 77.0007ZM60.8126 37.4028L65.0553 41.6455L45.2563 61.4445L45.2561 61.4443L41.0136 57.2018L33.9424 50.1306L38.185 45.8879L45.2563 52.9592L60.8126 37.4028Z" fill="#2EE39D"/>
</svg>
