<svg width="20" height="20" viewBox="0 0 20 20" fill="none" xmlns="http://www.w3.org/2000/svg">
<g id="ic/copy-1c">
<path id="Union" d="M13.1009 5.85946C13.6762 5.85946 14.1433 6.32583 14.1434 6.90112L14.1442 16.4299C14.1442 17.0052 13.6777 17.4715 13.1025 17.4716H3.57373C2.99846 17.4716 2.53214 17.0052 2.53206 16.4299L2.53125 6.90112C2.5312 6.36196 2.94048 5.91874 3.46549 5.86515L3.5721 5.85946H13.1009ZM3.78125 7.10946L3.78206 16.2216H12.8942L12.8934 7.10946H3.78125ZM16.4318 2.52856C17.007 2.52856 17.4741 2.99503 17.4743 3.57023L17.4751 13.099C17.4751 13.6743 17.0086 14.1406 16.4334 14.1407H15.3698L15.3055 14.1375C14.9905 14.1053 14.7448 13.8392 14.7448 13.5157C14.7449 13.1923 14.9906 12.9261 15.3055 12.894L15.3698 12.8907H16.2251L16.2243 3.77856H7.11214V4.63387C7.11214 4.97893 6.83215 5.2587 6.48714 5.25887C6.14199 5.25884 5.86218 4.97902 5.86214 4.63387V3.57023C5.86225 2.99518 6.32797 2.52875 6.90299 2.52856H16.4318Z" fill="white"/>
</g>
</svg>
