<svg width="21" height="20" viewBox="0 0 21 20" fill="none" xmlns="http://www.w3.org/2000/svg">
<path fill-rule="evenodd" clip-rule="evenodd" d="M10.4995 1.45801C7.40239 1.45801 4.84439 3.8768 4.67129 6.96908L4.52979 9.49671C4.48822 10.2392 4.18028 10.9418 3.66247 11.4756L3.19399 11.9585C2.39539 12.7818 2.10104 13.9708 2.42335 15.0715C2.50216 15.3406 2.749 15.5254 3.0293 15.5254H7.43225C7.43338 17.2185 8.80619 18.5906 10.4995 18.5906C12.1928 18.5906 13.5656 17.2185 13.5667 15.5254H17.9697C18.2506 15.5254 18.4977 15.3399 18.5761 15.0701C18.8979 13.9618 18.5989 12.766 17.7934 11.9396L17.3376 11.4719C16.8192 10.9401 16.5108 10.2387 16.4693 9.49716L16.3277 6.96909C16.1546 3.87681 13.5966 1.45801 10.4995 1.45801ZM5.91933 7.03895C6.05537 4.60885 8.0656 2.70801 10.4995 2.70801C12.9334 2.70801 14.9436 4.60885 15.0797 7.03895L15.2212 9.56703C15.2796 10.6099 15.7134 11.5964 16.4424 12.3444L16.8983 12.8121C17.2827 13.2065 17.4779 13.7387 17.4507 14.2754H3.54748C3.52032 13.7453 3.71239 13.2194 4.09119 12.8289L4.55968 12.346C5.28694 11.5963 5.71945 10.6094 5.77783 9.56657L5.91933 7.03895ZM12.3167 15.5254H8.68225C8.68338 16.5281 9.49654 17.3406 10.4995 17.3406C11.5024 17.3406 12.3156 16.5281 12.3167 15.5254Z" fill="black"/>
</svg>
