<svg width="25" height="24" viewBox="0 0 25 24" fill="none" xmlns="http://www.w3.org/2000/svg">
<path d="M8.88912 15.8395C6.7188 15.8395 4.97168 14.1792 4.97168 11.9112V11.8895C4.97168 9.67572 6.66454 7.93945 8.96509 7.93945C10.5169 7.93945 11.5152 8.59055 12.188 9.51294L10.6037 10.7392C10.1696 10.2074 9.67044 9.84934 8.94338 9.84934C7.87992 9.84934 7.13116 10.7609 7.13116 11.8677V11.8895C7.13116 13.0289 7.87992 13.9187 8.94338 13.9187C9.73555 13.9187 10.2022 13.5498 10.6579 12.9963L12.2423 14.1249C11.5261 15.1124 10.5603 15.8395 8.88912 15.8395Z" fill="white"/>
<path d="M16.6146 15.8395C14.4442 15.8395 12.6971 14.1792 12.6971 11.9112V11.8895C12.6971 9.67572 14.39 7.93945 16.6905 7.93945C18.2423 7.93945 19.2407 8.59055 19.9135 9.51294L18.3291 10.7392C17.8951 10.2074 17.3959 9.84934 16.6688 9.84934C15.6054 9.84934 14.8566 10.7609 14.8566 11.8677V11.8895C14.8566 13.0289 15.6054 13.9187 16.6688 13.9187C17.461 13.9187 17.9276 13.5498 18.3834 12.9963L19.9677 14.1249C19.2515 15.1124 18.2857 15.8395 16.6146 15.8395Z" fill="white"/>
<path d="M3.80176 19.2002H21.2021V4.7998H3.80176V19.2002ZM23.002 19.5L22.9941 19.6533C22.9225 20.3593 22.3613 20.9205 21.6553 20.9922L21.502 21H3.50195L3.34863 20.9922C2.64264 20.9205 2.08144 20.3593 2.00977 19.6533L2.00195 19.5V4.5C2.00195 3.72334 2.59223 3.08461 3.34863 3.00781L3.50195 3H21.502L21.6553 3.00781C22.4117 3.08461 23.002 3.72334 23.002 4.5V19.5Z" fill="white"/>
</svg>
