<svg width="20" height="20" viewBox="0 0 20 20" fill="none" xmlns="http://www.w3.org/2000/svg">
<g id="ic/payment-1c">
<path id="$" d="M12.9246 7.25404L12.0741 8.65433C11.6488 8.35353 11.1509 8.1357 10.6841 8.02161V9.25593C12.323 9.65009 13.1632 10.2102 13.1632 11.4964V11.5171C13.1632 12.793 12.1778 13.5605 10.7153 13.6954V14.7119H9.63651V13.685C8.59926 13.5709 7.62425 13.2182 6.83594 12.6477L7.76946 11.2682C8.44368 11.7246 9.04528 12.015 9.69875 12.1291V10.874C8.03915 10.4903 7.17823 9.91978 7.17823 8.62321V8.60247C7.17823 7.38888 8.07027 6.54871 9.65726 6.43461V5.83301H10.736V6.45536C11.5969 6.56946 12.2919 6.83914 12.9246 7.25404ZM11.3687 11.652V11.6312C11.3687 11.3512 11.2131 11.1956 10.6738 11.04V12.181C11.1405 12.1395 11.3687 11.9632 11.3687 11.652ZM9.00379 8.44688V8.46762C9.00379 8.74768 9.13863 8.90327 9.70912 9.05886V7.93863C9.20087 7.96974 9.00379 8.16682 9.00379 8.44688Z" fill="white"/>
<path id="Vector" fill-rule="evenodd" clip-rule="evenodd" d="M10.0026 2.70801C5.97553 2.70801 2.71094 5.9726 2.71094 9.99967C2.71094 14.0267 5.97553 17.2913 10.0026 17.2913C14.0297 17.2913 17.2943 14.0267 17.2943 9.99967C17.2943 5.9726 14.0297 2.70801 10.0026 2.70801ZM1.46094 9.99967C1.46094 5.28224 5.28517 1.45801 10.0026 1.45801C14.72 1.45801 18.5443 5.28224 18.5443 9.99967C18.5443 14.7171 14.72 18.5413 10.0026 18.5413C5.28517 18.5413 1.46094 14.7171 1.46094 9.99967Z" fill="white"/>
</g>
</svg>
