<svg xmlns="http://www.w3.org/2000/svg" width="16" height="16" viewBox="0 0 16 16" fill="none">
  <path fill-rule="evenodd" clip-rule="evenodd" d="M7.33333 4C9.17428 4 10.6667 5.49238 10.6667 7.33333C10.6667 9.17428 9.17428 10.6667 7.33333 10.6667C5.49238 10.6667 4 9.17428 4 7.33333C4 5.49238 5.49238 4 7.33333 4ZM7.33333 2C10.2789 2 12.6667 4.38781 12.6667 7.33333C12.6667 8.26047 12.4301 9.13235 12.014 9.89191L14.061 11.939L13.0004 12.9996L11.9398 14.0602L9.89308 12.0134C9.13325 12.4299 8.26095 12.6667 7.33333 12.6667C4.38781 12.6667 2 10.2789 2 7.33333C2 4.38781 4.38781 2 7.33333 2Z" fill="#929AA5"/>
</svg>
