<svg xmlns="http://www.w3.org/2000/svg" width="20" height="20" viewBox="0 0 20 20" fill="none">
    <path d="M9.37899 2.50079C9.67628 2.06941 10.3252 2.06938 10.6225 2.50079L10.6811 2.60008L12.8254 6.94496L17.6212 7.64239C18.2431 7.73285 18.4912 8.49681 18.0411 8.93553L14.5702 12.3177L15.3905 17.0947C15.4967 17.7141 14.8466 18.1862 14.2903 17.8939L10.0007 15.638L5.71118 17.8939C5.15493 18.1862 4.50478 17.7141 4.61092 17.0947L5.43042 12.3177L1.96037 8.93553C1.51033 8.49685 1.75835 7.73286 2.38029 7.64239L7.17521 6.94496L9.3204 2.60008L9.37899 2.50079ZM8.34872 7.95896C8.23826 8.18277 8.02444 8.33811 7.77743 8.374L4.08277 8.9103L6.75611 11.5161C6.93481 11.6903 7.01638 11.9415 6.97421 12.1875L6.34269 15.8667L9.64755 14.13L9.73218 14.0918C9.90512 14.0263 10.0963 14.0263 10.2693 14.0918L10.3539 14.13L13.658 15.8667L13.0273 12.1875C12.9851 11.9415 13.0666 11.6903 13.2454 11.5161L15.9179 8.9103L12.224 8.374C11.9771 8.33811 11.7632 8.18279 11.6528 7.95896L10.0007 4.61017L8.34872 7.95896Z" fill="#707A8A"/>
</svg>