<svg width="20" height="20" viewBox="0 0 20 20" fill="none" xmlns="http://www.w3.org/2000/svg">
<path fill-rule="evenodd" clip-rule="evenodd" d="M8.47808 13.6812L13.4903 10.7874C13.9626 10.5147 13.9626 9.83314 13.4903 9.5605L8.47808 6.66667C8.00585 6.39403 7.41558 6.73483 7.41558 7.2801L7.41558 13.0678C7.41558 13.613 8.00586 13.9538 8.47808 13.6812ZM8.66558 8.2183L12.0528 10.1739L8.66558 12.1296V8.2183Z" fill="white"/>
<path fill-rule="evenodd" clip-rule="evenodd" d="M10 1.45752C5.28227 1.45752 1.45776 5.28203 1.45776 9.9998C1.45776 14.7176 5.28227 18.5421 10 18.5421C14.7178 18.5421 18.5423 14.7176 18.5423 9.9998C18.5423 5.28203 14.7178 1.45752 10 1.45752ZM2.70776 9.9998C2.70776 5.97238 5.97263 2.70752 10 2.70752C14.0275 2.70752 17.2923 5.97238 17.2923 9.9998C17.2923 14.0272 14.0275 17.2921 10 17.2921C5.97263 17.2921 2.70776 14.0272 2.70776 9.9998Z" fill="white"/>
</svg>
