<svg width="32" height="32" viewBox="0 0 32 32" fill="none" xmlns="http://www.w3.org/2000/svg">
<path opacity="0.2" fill-rule="evenodd" clip-rule="evenodd" d="M11.8483 29.3333C10.2926 29.3286 8.50582 28.7107 6.66699 26.8719V17.3333H14.567L19.3968 22.1631C18.1912 23.3687 16.2366 23.3687 15.031 22.1631L12.9665 20.0986L12.2936 20.7715L15.4956 24.0079L25.3337 24.0079C25.3337 26.9469 22.9511 29.3295 20.0121 29.3295L11.925 29.3333H11.8483Z" fill="#929AA5"/>
<path opacity="0.5" d="M2.66699 17.3333L6.66699 17.3333L6.66699 29.3333L2.66699 29.3333L2.66699 17.3333Z" fill="#AEB4BC"/>
<path fill-rule="evenodd" clip-rule="evenodd" d="M14.6533 5.35376C16.8625 5.35376 18.6533 7.14462 18.6533 9.35376C18.6533 11.5629 16.8625 13.3538 14.6533 13.3538C12.4442 13.3538 10.6533 11.5629 10.6533 9.35376C10.6533 7.14462 12.4442 5.35376 14.6533 5.35376ZM14.6533 10.9538L13.0533 9.35376L14.6533 7.75376L16.2533 9.35376L14.6533 10.9538Z" fill="#F0B90B"/>
<path fill-rule="evenodd" clip-rule="evenodd" d="M23.3332 11.347C25.9105 11.347 27.9998 13.4363 27.9998 16.0137C27.9998 18.591 25.9105 20.6803 23.3332 20.6803C20.7558 20.6803 18.6665 18.591 18.6665 16.0137C18.6665 13.4363 20.7558 11.347 23.3332 11.347ZM23.3332 17.8803L21.4665 16.0137L23.3332 14.147L25.1998 16.0137L23.3332 17.8803Z" fill="#F0B90B"/>
</svg>
