<svg width="20" height="20" viewBox="0 0 20 20" fill="none" xmlns="http://www.w3.org/2000/svg">
<path fill-rule="evenodd" clip-rule="evenodd" d="M3.94222 5.2885C4.68568 5.2885 5.28838 4.68581 5.28838 3.94235C5.28838 3.19889 4.68568 2.59619 3.94222 2.59619C3.19876 2.59619 2.59607 3.19889 2.59607 3.94235C2.59607 4.68581 3.19876 5.2885 3.94222 5.2885ZM4.5671 13.5373L4.5671 6.4628C5.49888 6.23256 6.23235 5.49913 6.46264 4.56737L13.5377 4.56737C13.7679 5.49906 14.5013 6.23246 15.433 6.46277V13.5374C14.5013 13.7677 13.768 14.5011 13.5377 15.4327H6.46265C6.23235 14.501 5.49888 13.7676 4.5671 13.5373ZM13.5377 16.6827H6.46266C6.18291 17.8147 5.16058 18.6539 3.94222 18.6539C2.50841 18.6539 1.34607 17.4916 1.34607 16.0578C1.34607 14.8395 2.18525 13.8172 3.3171 13.5374L3.3171 6.46274C2.18525 6.18294 1.34607 5.16064 1.34607 3.94235C1.34607 2.50853 2.50841 1.34619 3.94222 1.34619C5.16058 1.34619 6.18291 2.18544 6.46266 3.31737L13.5377 3.31737C13.8174 2.18546 14.8398 1.34622 16.0581 1.34622C17.4919 1.34622 18.6543 2.50855 18.6543 3.94237C18.6543 5.16076 17.815 6.18312 16.683 6.46283V13.5373C17.815 13.817 18.6543 14.8394 18.6543 16.0578C18.6543 17.4916 17.4919 18.6539 16.0581 18.6539C14.8398 18.6539 13.8174 17.8147 13.5377 16.6827ZM5.28838 16.0578C5.28838 16.8012 4.68568 17.4039 3.94222 17.4039C3.19876 17.4039 2.59607 16.8012 2.59607 16.0578C2.59607 15.3143 3.19876 14.7116 3.94222 14.7116C4.68568 14.7116 5.28838 15.3143 5.28838 16.0578ZM16.0581 5.28853C16.8016 5.28853 17.4043 4.68583 17.4043 3.94237C17.4043 3.19891 16.8016 2.59622 16.0581 2.59622C15.3146 2.59622 14.712 3.19891 14.712 3.94237C14.712 4.68583 15.3146 5.28853 16.0581 5.28853ZM17.4043 16.0578C17.4043 16.8012 16.8016 17.4039 16.0581 17.4039C15.3146 17.4039 14.712 16.8012 14.712 16.0578C14.712 15.3143 15.3146 14.7116 16.0581 14.7116C16.8016 14.7116 17.4043 15.3143 17.4043 16.0578ZM10.0872 12.8826C11.6311 12.8826 12.8826 11.631 12.8826 10.0871C12.8826 8.5432 11.6311 7.29163 10.0872 7.29163C8.54328 7.29163 7.29171 8.5432 7.29171 10.0871C7.29171 11.631 8.54328 12.8826 10.0872 12.8826ZM10.0872 14.1326C12.3214 14.1326 14.1326 12.3213 14.1326 10.0871C14.1326 7.85284 12.3214 6.04163 10.0872 6.04163C7.85292 6.04163 6.04171 7.85284 6.04171 10.0871C6.04171 12.3213 7.85292 14.1326 10.0872 14.1326ZM8.66541 10.1544L10.0957 8.72409L11.526 10.1544L10.0957 11.5847L8.66541 10.1544Z" fill="#202630"/>
</svg>
