<svg width="20" height="20" viewBox="0 0 20 20" fill="none" xmlns="http://www.w3.org/2000/svg">
<path fill-rule="evenodd" clip-rule="evenodd" d="M6.89599 2.82851C6.72537 2.36602 7.06758 1.875 7.56054 1.875H12.44C12.933 1.875 13.2752 2.36602 13.1046 2.82851L12.0417 5.70953C14.2738 6.46221 15.9769 8.4177 16.3261 10.862L17.2784 17.5277C17.3058 17.7199 17.2485 17.9146 17.1213 18.0613C16.9941 18.208 16.8094 18.2923 16.6152 18.2923H3.36487C2.96801 18.2923 2.6632 17.9408 2.71932 17.548L3.67446 10.862C4.02365 8.4177 5.72674 6.46221 7.95892 5.70953L6.89599 2.82851ZM9.1871 5.42716C9.45394 5.39312 9.72539 5.37562 10.0003 5.37562C10.2752 5.37562 10.5466 5.39312 10.8135 5.42716L11.6628 3.125H8.33774L9.1871 5.42716ZM10.0003 6.62562C9.62746 6.62562 9.26341 6.6655 8.9123 6.74132C6.8491 7.18684 5.22093 8.87551 4.9119 11.0388L4.05425 17.0423H15.9463L15.0887 11.0388C14.7796 8.87551 13.1515 7.18684 11.0883 6.74132C10.7372 6.6655 10.3731 6.62562 10.0003 6.62562Z" fill="black"/>
<path d="M7.49998 11.6667L9.99998 9.16667L12.5 11.6667L9.99998 14.1667L7.49998 11.6667Z" fill="black"/>
</svg>
