<svg width="32" height="32" viewBox="0 0 32 32" fill="none" xmlns="http://www.w3.org/2000/svg">
<path opacity="0.5" fill-rule="evenodd" clip-rule="evenodd" d="M29.3334 5.33325H2.66675V26.6666H29.3334V5.33325ZM26.6667 7.99992H5.33341V10.6666H4.66675V14.6666H5.33341V17.3333H4.66675V21.3333H5.33341V23.9999H26.6667V7.99992Z" fill="#AEB4BC"/>
<path fill-rule="evenodd" clip-rule="evenodd" d="M13.9983 21.3333C16.9448 21.3333 19.3333 18.9448 19.3333 15.9983C19.3333 13.0519 16.9448 10.6633 13.9983 10.6633C11.0519 10.6633 8.66333 13.0519 8.66333 15.9983C8.66333 18.9448 11.0519 21.3333 13.9983 21.3333ZM15.9621 18.5932L16.945 17.5371C16.9602 17.5208 16.9703 17.5004 16.974 17.4785C16.9778 17.4565 16.9751 17.434 16.9662 17.4135C16.9574 17.3931 16.9428 17.3757 16.9241 17.3635C16.9056 17.3513 16.8838 17.3448 16.8616 17.3448H12.2021C12.1709 17.3448 12.14 17.3513 12.1114 17.3638C12.0827 17.3763 12.057 17.3946 12.0356 17.4174L11.052 18.4735C11.0368 18.4898 11.0267 18.5102 11.0229 18.5321C11.0192 18.5541 11.0219 18.5766 11.0307 18.5971C11.0396 18.6175 11.0542 18.6349 11.0728 18.6471C11.0914 18.6593 11.1132 18.6658 11.1354 18.6658H15.7951C15.8264 18.6658 15.8574 18.6594 15.8861 18.6469C15.9148 18.6344 15.9407 18.6161 15.9621 18.5932ZM15.8861 15.3567C15.9148 15.3692 15.9407 15.3875 15.9621 15.4105L16.945 16.4665C16.9602 16.4828 16.9703 16.5032 16.974 16.5251C16.9778 16.5471 16.9751 16.5697 16.9662 16.5901C16.9574 16.6105 16.9428 16.6279 16.9241 16.6401C16.9056 16.6523 16.8838 16.6589 16.8616 16.6589H12.2021C12.1709 16.6588 12.14 16.6523 12.1114 16.6398C12.0827 16.6273 12.057 16.6091 12.0356 16.5862L11.052 15.5301C11.0368 15.5138 11.0267 15.4935 11.0229 15.4715C11.0192 15.4496 11.0219 15.427 11.0307 15.4066C11.0396 15.3861 11.0542 15.3687 11.0728 15.3565C11.0914 15.3443 11.1132 15.3378 11.1354 15.3378H15.7951C15.8264 15.3378 15.8574 15.3442 15.8861 15.3567ZM15.7951 14.6519H11.1354C11.1132 14.6518 11.0915 14.6453 11.0729 14.633C11.0543 14.6208 11.0398 14.6034 11.0309 14.583C11.0221 14.5626 11.0194 14.54 11.0232 14.5181C11.027 14.4962 11.0371 14.4758 11.0522 14.4596L12.0356 13.4035C12.057 13.3806 12.0827 13.3624 12.1114 13.3499C12.14 13.3374 12.1709 13.3309 12.2021 13.3308H16.8616C16.8838 13.3308 16.9056 13.3373 16.9241 13.3496C16.9428 13.3618 16.9574 13.3792 16.9662 13.3996C16.9751 13.42 16.9778 13.4426 16.974 13.4645C16.9703 13.4865 16.9602 13.5069 16.945 13.5231L15.9621 14.5792C15.9407 14.6022 15.9148 14.6205 15.8861 14.633C15.8574 14.6455 15.8264 14.6519 15.7951 14.6519Z" fill="#F0B90B"/>
<path opacity="0.2" fill-rule="evenodd" clip-rule="evenodd" d="M26.6666 8H5.33325V10.6667H5.99992V14.6667H5.33325V17.3333H5.99992V21.3333H5.33325V24H26.6666V8ZM23.3333 10.6667H25.3333V21.3333H23.3333V10.6667ZM13.9999 21.3333C16.9454 21.3333 19.3333 18.9455 19.3333 16C19.3333 13.0545 16.9454 10.6667 13.9999 10.6667C11.0544 10.6667 8.66658 13.0545 8.66658 16C8.66658 18.9455 11.0544 21.3333 13.9999 21.3333Z" fill="#AEB4BC"/>
</svg>
