<svg width="20" height="20" viewBox="0 0 20 20" fill="none" xmlns="http://www.w3.org/2000/svg">
<path fill-rule="evenodd" clip-rule="evenodd" d="M1.875 6.66667C1.875 6.43655 2.06155 6.25 2.29167 6.25H17.7083C17.9385 6.25 18.125 6.43655 18.125 6.66667V17.75C18.125 17.9801 17.9385 18.1667 17.7083 18.1667H2.29167C2.06155 18.1667 1.875 17.9801 1.875 17.75V6.66667ZM3.125 7.5V16.875H16.875V7.5H3.125Z" fill="black"/>
<path fill-rule="evenodd" clip-rule="evenodd" d="M9.375 17.7083V6.875H10.625V17.7083H9.375Z" fill="black"/>
<path fill-rule="evenodd" clip-rule="evenodd" d="M2.5 9.58333H17.5V10.8333H2.5V9.58333Z" fill="black"/>
<path fill-rule="evenodd" clip-rule="evenodd" d="M4.375 4.375C4.375 2.64911 5.77411 1.25 7.5 1.25C9.22589 1.25 10.625 2.64911 10.625 4.375V7.5H7.5C5.77411 7.5 4.375 6.10089 4.375 4.375ZM7.5 2.5C6.46447 2.5 5.625 3.33947 5.625 4.375C5.625 5.41053 6.46447 6.25 7.5 6.25H9.375V4.375C9.375 3.33947 8.53553 2.5 7.5 2.5Z" fill="black"/>
<path fill-rule="evenodd" clip-rule="evenodd" d="M9.375 4.375C9.375 2.64911 10.7741 1.25 12.5 1.25C14.2259 1.25 15.625 2.64911 15.625 4.375C15.625 6.10089 14.2259 7.5 12.5 7.5H9.375V4.375ZM12.5 2.5C11.4645 2.5 10.625 3.33947 10.625 4.375V6.25H12.5C13.5355 6.25 14.375 5.41053 14.375 4.375C14.375 3.33947 13.5355 2.5 12.5 2.5Z" fill="black"/>
</svg>
