<svg width="20" height="20" viewBox="0 0 20 20" fill="none" xmlns="http://www.w3.org/2000/svg">
<path fill-rule="evenodd" clip-rule="evenodd" d="M16.0126 3.125H11.6667C11.3215 3.125 11.0417 2.84518 11.0417 2.5C11.0417 2.15482 11.3215 1.875 11.6667 1.875L17.4167 1.875C17.4994 1.875 17.5788 1.88917 17.6525 1.9152C17.7586 1.94178 17.859 1.99653 17.942 2.07947C18.0716 2.20912 18.1324 2.38155 18.1243 2.55131C18.1248 2.56193 18.125 2.5726 18.125 2.58333V8.33333C18.125 8.67851 17.8452 8.95833 17.5 8.95833C17.1549 8.95833 16.875 8.67851 16.875 8.33333V4.0303L3.77532 17.13C3.53124 17.3741 3.13551 17.3741 2.89143 17.13C2.64735 16.8859 2.64735 16.4902 2.89143 16.2461L16.0126 3.125ZM5.75726 5.05055L4.21726 6.59055L5.75726 8.13056L7.29727 6.59055L5.75726 5.05055ZM5.16801 3.87204C5.49344 3.5466 6.02108 3.5466 6.34652 3.87204L8.47578 6.0013C8.80122 6.32673 8.80122 6.85437 8.47578 7.17981L6.34652 9.30907C6.02108 9.6345 5.49344 9.6345 5.16801 9.30907L3.03875 7.17981C2.71331 6.85437 2.71331 6.32673 3.03875 6.0013L5.16801 3.87204ZM12.9156 11.5503C13.2411 11.2248 13.7687 11.2248 14.0942 11.5503L16.2234 13.6795C16.5489 14.005 16.5489 14.5326 16.2234 14.858L14.0942 16.9873C13.7687 17.3127 13.2411 17.3127 12.9156 16.9873L10.7864 14.858C10.461 14.5326 10.461 14.005 10.7864 13.6795L12.9156 11.5503ZM13.5049 12.7288L11.9649 14.2688L13.5049 15.8088L15.0449 14.2688L13.5049 12.7288Z" fill="black"/>
</svg>
