<svg width="32" height="32" viewBox="0 0 32 32" fill="none" xmlns="http://www.w3.org/2000/svg">
<g id="il/pay">
<path id="Subtract" opacity="0.2" fill-rule="evenodd" clip-rule="evenodd" d="M29.3332 6H2.6665V10H29.3332V6ZM29.3332 14L2.6665 14V26H19.2902C18.8911 25.1968 18.6667 24.2914 18.6667 23.3336C18.6667 20.0199 21.353 17.3336 24.6667 17.3336C26.5514 17.3336 28.2332 18.2026 29.3332 19.5618V14ZM13.333 16.6667H5.33301V19.3333H13.333V16.6667Z" fill="#AEB4BC"/>
<path id="Union" opacity="0.5" d="M29.3332 14L2.6665 14L2.6665 10L29.3332 10V14Z" fill="#AEB4BC"/>
<path id="Subtract_2" fill-rule="evenodd" clip-rule="evenodd" d="M30.667 23.3336C30.667 20.0199 27.9807 17.3336 24.667 17.3336C21.3533 17.3336 18.667 20.0199 18.667 23.3336C18.667 26.6473 21.3533 29.3336 24.667 29.3336C27.9807 29.3336 30.667 26.6473 30.667 23.3336ZM24.667 26.0002L22.0003 23.3336L24.667 20.6669L27.3337 23.3336L24.667 26.0002Z" fill="#F0B90B"/>
</g>
</svg>
