<svg width="32" height="32" viewBox="0 0 32 32" fill="none" xmlns="http://www.w3.org/2000/svg">
<path d="M21.6567 22.991C23.1045 21.5433 23.9999 19.5433 23.9999 17.3342C23.9999 15.125 23.1045 13.125 21.6567 11.6773L24.4852 8.84888C26.6567 11.0205 27.9999 14.0205 27.9999 17.3342C27.9999 20.6479 26.6567 23.6479 24.4852 25.8194L21.6567 22.991Z" fill="#F6465D"/>
<path d="M15.9994 9.33325C13.7903 9.33325 11.7903 10.2287 10.3426 11.6764L7.51416 8.84797C9.68573 6.6764 12.6857 5.33325 15.9994 5.33325C19.3131 5.33325 22.3131 6.6764 24.4847 8.84797L21.6563 11.6764C20.2086 10.2287 18.2086 9.33325 15.9994 9.33325Z" fill="#F0B90B"/>
<path d="M8 17.3342C8 19.5433 8.89543 21.5433 10.3431 22.991L7.51472 25.8194C5.34315 23.6479 4 20.6479 4 17.3342C4 14.0205 5.34315 11.0205 7.51472 8.84888L10.3431 11.6773C8.89543 13.125 8 15.125 8 17.3342Z" fill="#32D993"/>
<path fill-rule="evenodd" clip-rule="evenodd" d="M20.6667 17.3334C20.6667 19.9107 18.5773 22.0001 16 22.0001C14.0099 22.0001 12.3107 20.7543 11.6398 19.0001H4.11482C4.03913 18.4554 4 17.8989 4 17.3333C4 16.7678 4.03912 16.2114 4.1148 15.6667H11.6398C12.3107 13.9125 14.0099 12.6667 16 12.6667C18.5773 12.6667 20.6667 14.7561 20.6667 17.3334ZM17.3333 17.3334C17.3333 18.0698 16.7364 18.6667 16 18.6667C15.2636 18.6667 14.6667 18.0698 14.6667 17.3334C14.6667 16.597 15.2636 16.0001 16 16.0001C16.7364 16.0001 17.3333 16.597 17.3333 17.3334Z" fill="#202630"/>
</svg>
