<svg width="32" height="32" viewBox="0 0 32 32" fill="none" xmlns="http://www.w3.org/2000/svg">
<g id="ic/risk-medium-1c">
<path id="Subtract" d="M21.6567 22.9911C23.1045 21.5434 23.9999 19.5434 23.9999 17.3342C23.9999 15.1251 23.1045 13.1251 21.6567 11.6774L24.4852 8.84895C26.6567 11.0205 27.9999 14.0205 27.9999 17.3342C27.9999 20.6479 26.6567 23.6479 24.4852 25.8195L21.6567 22.9911Z" fill="#F6465D"/>
<path id="Subtract_2" d="M8 17.3342C8 19.5434 8.89543 21.5434 10.3431 22.9911L7.51472 25.8195C5.34315 23.6479 4 20.6479 4 17.3342C4 14.0205 5.34315 11.0205 7.51472 8.84895L10.3431 11.6774C8.89543 13.1251 8 15.1251 8 17.3342Z" fill="#32D993"/>
<path id="Subtract_3" d="M15.9994 9.33333C13.7903 9.33333 11.7903 10.2288 10.3426 11.6765L7.51416 8.84805C9.68573 6.67648 12.6857 5.33333 15.9994 5.33333C19.3131 5.33333 22.3131 6.67648 24.4847 8.84805L21.6563 11.6765C20.2086 10.2288 18.2086 9.33333 15.9994 9.33333Z" fill="#F0B90B"/>
<path id="Union" fill-rule="evenodd" clip-rule="evenodd" d="M14.3335 5.44816C14.8782 5.37247 15.4347 5.33333 16.0002 5.33333C16.5658 5.33333 17.1222 5.37243 17.6668 5.44812V12.9731C19.4211 13.644 20.6668 15.3432 20.6668 17.3333C20.6668 19.9107 18.5775 22 16.0002 22C13.4228 22 11.3335 19.9107 11.3335 17.3333C11.3335 15.3432 12.5792 13.644 14.3335 12.9731V5.44816ZM14.6668 17.3333C14.6668 16.597 15.2638 16 16.0002 16C16.7366 16 17.3335 16.597 17.3335 17.3333C17.3335 18.0697 16.7366 18.6667 16.0002 18.6667C15.2638 18.6667 14.6668 18.0697 14.6668 17.3333Z" fill="#202630"/>
</g>
</svg>
