<svg width="32" height="32" viewBox="0 0 32 32" fill="none" xmlns="http://www.w3.org/2000/svg">
<g id="ic/security-2c-blk">
<path id="Subtract" fill-rule="evenodd" clip-rule="evenodd" d="M5.3335 22.2745V5.33334H26.6668V22.2745L16.0002 29.3333L5.3335 22.2745ZM16.0002 22.7255C19.6821 22.7255 22.6668 19.7298 22.6668 16.0343C22.6668 12.3389 19.6821 9.34315 16.0002 9.34315C12.3183 9.34315 9.3335 12.3389 9.3335 16.0343C9.3335 19.7298 12.3183 22.7255 16.0002 22.7255Z" fill="#474D57"/>
<path id="Union" d="M17.3335 16.9766C18.1306 16.5155 18.6668 15.6537 18.6668 14.6667C18.6668 13.1939 17.4729 12 16.0002 12C14.5274 12 13.3335 13.1939 13.3335 14.6667C13.3335 15.6537 13.8698 16.5155 14.6668 16.9766V20H17.3335V16.9766Z" fill="#F0B90B"/>
</g>
</svg>
