<svg width="20" height="20" viewBox="0 0 20 20" fill="none" xmlns="http://www.w3.org/2000/svg">
<path fill-rule="evenodd" clip-rule="evenodd" d="M9.97194 7.35192C8.63097 7.35192 7.5439 6.26485 7.5439 4.92389C7.5439 3.58292 8.63097 2.49585 9.97194 2.49585C11.3129 2.49585 12.4 3.58292 12.4 4.92389C12.4 6.26485 11.3129 7.35192 9.97194 7.35192ZM9.97194 8.60192C7.94062 8.60192 6.2939 6.95521 6.2939 4.92389C6.2939 2.89256 7.94062 1.24585 9.97194 1.24585C12.0033 1.24585 13.65 2.89256 13.65 4.92389C13.65 6.95521 12.0033 8.60192 9.97194 8.60192Z" fill="black"/>
<path d="M8.59508 4.93745L9.9589 3.57363L11.3227 4.93745L9.9589 6.30127L8.59508 4.93745Z" fill="black"/>
<path fill-rule="evenodd" clip-rule="evenodd" d="M4.2862 9.87781C4.33199 9.83202 4.39409 9.8063 4.45884 9.8063H9.99224C11.1329 9.8063 12.0575 10.731 12.0575 11.8716C12.0575 13.0122 11.1329 13.9369 9.99224 13.9369H8.25811C7.91294 13.9369 7.63311 13.6571 7.63311 13.3119C7.63311 12.9667 7.91293 12.6869 8.25811 12.6869H9.99224C10.4425 12.6869 10.8075 12.3219 10.8075 11.8716C10.8075 11.4213 10.4425 11.0563 9.99224 11.0563H5.04807C4.93756 11.0563 4.83158 11.1002 4.75344 11.1783L2.15923 13.7725C1.91515 14.0166 1.51942 14.0166 1.27534 13.7725C1.03127 13.5285 1.03127 13.1327 1.27534 12.8887L4.2862 9.87781Z" fill="black"/>
<path fill-rule="evenodd" clip-rule="evenodd" d="M17.4756 9.65753C17.1546 9.33653 16.6342 9.33653 16.3132 9.65753L12.424 13.5467C12.1765 13.7942 11.8408 13.9332 11.4908 13.9332H9.85894C9.62882 13.9332 9.44227 13.7467 9.44227 13.5166V13.0999C9.44227 12.8698 9.62882 12.6832 9.85894 12.6832H11.4908C11.5093 12.6832 11.5271 12.6759 11.5401 12.6628L15.4293 8.77364C16.2384 7.96449 17.5503 7.96449 18.3595 8.77364C19.1686 9.5828 19.1686 10.8947 18.3595 11.7038L12.6711 17.3922C12.593 17.4704 12.487 17.5143 12.3765 17.5143H6.07112C5.96061 17.5143 5.85463 17.5582 5.77649 17.6363L4.60511 18.8077C4.36103 19.0518 3.9653 19.0518 3.72123 18.8077C3.47715 18.5636 3.47715 18.1679 3.72123 17.9238L5.33812 16.3069C5.36543 16.2796 5.40246 16.2643 5.44107 16.2643H11.8587C11.9692 16.2643 12.0752 16.2204 12.1533 16.1422L17.4756 10.82C17.7966 10.499 17.7966 9.97852 17.4756 9.65753Z" fill="black"/>
</svg>
