<svg width="32" height="32" viewBox="0 0 32 32" fill="none" xmlns="http://www.w3.org/2000/svg">
<path opacity="0.2" d="M2.66699 21.3335H29.3337V29.3335H2.66699V21.3335Z" fill="#AEB4BC"/>
<path fill-rule="evenodd" clip-rule="evenodd" d="M17.3337 5.3335C19.5429 5.3335 21.3337 7.12436 21.3337 9.3335C21.3337 11.5426 19.5429 13.3335 17.3337 13.3335C15.1246 13.3335 13.3337 11.5426 13.3337 9.3335C13.3337 7.12436 15.1246 5.3335 17.3337 5.3335ZM17.3338 10.9335L15.7338 9.33351L17.3338 7.73351L18.9338 9.33351L17.3338 10.9335Z" fill="#F0B90B"/>
<path opacity="0.5" fill-rule="evenodd" clip-rule="evenodd" d="M26.6671 5.3335H24.0004V15.9999H21.3337L25.3337 19.9999L29.3337 15.9999H26.6671V5.3335Z" fill="#AEB4BC"/>
<path fill-rule="evenodd" clip-rule="evenodd" d="M15.9998 19.3333C15.9998 16.0195 13.3135 13.3333 9.99976 13.3333C6.68605 13.3333 3.99976 16.0195 3.99976 19.3333C3.99976 21.2181 4.86887 22.8999 6.2282 23.9999H13.7713C15.1306 22.8999 15.9998 21.2181 15.9998 19.3333ZM7.59976 19.3333L9.99976 21.7333L12.3998 19.3333L9.99976 16.9333L7.59976 19.3333Z" fill="#F0B90B"/>
</svg>
