<svg width="20" height="20" viewBox="0 0 20 20" fill="none" xmlns="http://www.w3.org/2000/svg">
<path fill-rule="evenodd" clip-rule="evenodd" d="M7.58352 3.37508C7.58352 2.22449 8.51626 1.29175 9.66686 1.29175C10.8174 1.29175 11.7502 2.22449 11.7502 3.37508V8.125H15.2085C16.4742 8.125 17.5002 9.15101 17.5002 10.4167V17.7083C17.5002 17.9385 17.3137 18.125 17.0835 18.125H7.28889C7.17839 18.125 7.07241 18.0811 6.99427 18.003L3.18325 14.1919C2.24881 13.2575 2.24881 11.7425 3.18325 10.8081C4.11768 9.87363 5.6327 9.87362 6.56713 10.8081L7.58352 11.8244V3.37508ZM9.66686 2.54175C9.20662 2.54175 8.83352 2.91484 8.83352 3.37508V13.0549C8.83352 13.2235 8.732 13.3754 8.57631 13.4399L8.0238 13.6687C7.8681 13.7332 7.68888 13.6976 7.56972 13.5784L5.68325 11.6919C5.23697 11.2457 4.51341 11.2457 4.06713 11.6919C3.62085 12.1382 3.62085 12.8618 4.06713 13.3081L7.63407 16.875H16.2502V10.4167C16.2502 9.84137 15.7838 9.375 15.2085 9.375H10.9169C10.6867 9.375 10.5002 9.18845 10.5002 8.95833V3.37508C10.5002 2.91484 10.1271 2.54175 9.66686 2.54175Z" fill="black"/>
</svg>
