<svg width="20" height="20" viewBox="0 0 20 20" fill="none" xmlns="http://www.w3.org/2000/svg">
<path fill-rule="evenodd" clip-rule="evenodd" d="M5.95503 9.452C4.3812 9.452 3.10537 8.17617 3.10537 6.60234C3.10537 5.02852 4.3812 3.75269 5.95503 3.75269C7.52885 3.75269 8.80469 5.02852 8.80469 6.60234C8.80469 8.17617 7.52885 9.452 5.95503 9.452ZM5.95503 10.702C3.69085 10.702 1.85537 8.86652 1.85537 6.60234C1.85537 4.33817 3.69085 2.50269 5.95503 2.50269C8.21921 2.50269 10.0547 4.33817 10.0547 6.60234C10.0547 8.86652 8.21921 10.702 5.95503 10.702Z" fill="black"/>
<path d="M4.42041 6.61743L5.94057 5.09727L7.46073 6.61743L5.94057 8.13759L4.42041 6.61743Z" fill="black"/>
<path fill-rule="evenodd" clip-rule="evenodd" d="M14.1538 10.5487C12.5799 10.5487 11.3041 11.8246 11.3041 13.3984C11.3041 14.9722 12.5799 16.248 14.1538 16.248C15.7276 16.248 17.0034 14.9722 17.0034 13.3984C17.0034 11.8246 15.7276 10.5487 14.1538 10.5487ZM14.1538 9.29873C11.8896 9.29873 10.0541 11.1342 10.0541 13.3984C10.0541 15.6626 11.8896 17.498 14.1538 17.498C16.4179 17.498 18.2534 15.6626 18.2534 13.3984C18.2534 11.1342 16.4179 9.29873 14.1538 9.29873Z" fill="black"/>
<path d="M12.6191 13.3833L14.1393 14.9035L15.6595 13.3833L14.1393 11.8631L12.6191 13.3833Z" fill="black"/>
<path fill-rule="evenodd" clip-rule="evenodd" d="M5.93408 17.2488C6.27926 17.2488 6.55908 16.969 6.55908 16.6238V12.3193C6.55908 11.9741 6.27926 11.6943 5.93408 11.6943C5.5889 11.6943 5.30908 11.9741 5.30908 12.3193V16.6238C5.30908 16.969 5.5889 17.2488 5.93408 17.2488Z" fill="black"/>
<path fill-rule="evenodd" clip-rule="evenodd" d="M3.46294 14.3881C3.21886 14.6322 3.21886 15.0279 3.46294 15.272L5.43318 17.2423C5.7098 17.5189 6.15829 17.5189 6.43491 17.2423L8.40515 15.272C8.64923 15.0279 8.64923 14.6322 8.40515 14.3881C8.16108 14.1441 7.76535 14.1441 7.52127 14.3881L5.93405 15.9754L4.34682 14.3881C4.10274 14.1441 3.70702 14.1441 3.46294 14.3881Z" fill="black"/>
<path fill-rule="evenodd" clip-rule="evenodd" d="M14.1323 2.65234C14.4775 2.65234 14.7573 2.93217 14.7573 3.27734V7.58186C14.7573 7.92703 14.4775 8.20686 14.1323 8.20686C13.7871 8.20686 13.5073 7.92703 13.5073 7.58186V3.27734C13.5073 2.93217 13.7871 2.65234 14.1323 2.65234Z" fill="black"/>
<path fill-rule="evenodd" clip-rule="evenodd" d="M11.6617 5.51323C11.4176 5.26915 11.4176 4.87343 11.6617 4.62935L13.6319 2.65911C13.9085 2.38248 14.357 2.38249 14.6336 2.65911L16.6039 4.62935C16.848 4.87343 16.848 5.26915 16.6039 5.51323C16.3598 5.75731 15.9641 5.75731 15.72 5.51323L14.1328 3.92601L12.5456 5.51323C12.3015 5.75731 11.9057 5.75731 11.6617 5.51323Z" fill="black"/>
</svg>
