<svg width="20" height="22" viewBox="0 0 20 22" fill="none" xmlns="http://www.w3.org/2000/svg">
<path d="M8.33337 3.50024C11.2177 3.50024 13.6443 5.45419 14.3646 8.1106C13.8911 7.88364 13.3843 7.71554 12.8539 7.61353C12.0526 5.92108 10.3303 4.75024 8.33337 4.75024C5.57195 4.75024 3.33337 6.98882 3.33337 9.75024C3.33348 11.4231 4.15568 12.9032 5.41736 13.8108C5.42257 14.3565 5.49858 14.8852 5.63513 15.3889C3.53431 14.3819 2.0835 12.2355 2.08337 9.75024C2.08337 6.29846 4.88159 3.50024 8.33337 3.50024Z" fill="black"/>
<path fill-rule="evenodd" clip-rule="evenodd" d="M11.6666 18.75C14.428 18.75 16.6666 16.5114 16.6666 13.75C16.6666 10.9886 14.428 8.75 11.6666 8.75C8.9052 8.75 6.66663 10.9886 6.66663 13.75C6.66663 16.5114 8.9052 18.75 11.6666 18.75ZM11.6666 20C15.1184 20 17.9166 17.2018 17.9166 13.75C17.9166 10.2982 15.1184 7.5 11.6666 7.5C8.21485 7.5 5.41663 10.2982 5.41663 13.75C5.41663 17.2018 8.21485 20 11.6666 20Z" fill="black"/>
<path d="M13.9595 1.67456H17.6261C17.9023 1.67456 18.1261 1.89842 18.1261 2.17456V5.84123" stroke="black" stroke-width="1.5" stroke-linecap="round"/>
<path d="M6.04065 20.3257H2.37398C2.09784 20.3257 1.87398 20.1018 1.87398 19.8257V16.159" stroke="black" stroke-width="1.5" stroke-linecap="round"/>
<path d="M9.58337 13.0001L11.6667 10.9167L13.75 13.0001L11.6667 15.0834L9.58337 13.0001Z" fill="black"/>
</svg>
