<svg width="32" height="32" viewBox="0 0 32 32" fill="none" xmlns="http://www.w3.org/2000/svg">
<path fill-rule="evenodd" clip-rule="evenodd" d="M16.6669 19.3334V16.6667H14.0002V19.3334L16.6669 19.3334Z" fill="#F0B90B"/>
<path opacity="0.5" fill-rule="evenodd" clip-rule="evenodd" d="M29.3337 20.6667C29.3337 23.244 27.2444 25.3333 24.6671 25.3333C22.5531 25.3333 20.7674 23.9277 20.1937 22L16.6669 22V24.6667H14.0002V22V19.3333L16.6669 19.3333H20.1937C20.7674 17.4057 22.5531 16 24.6671 16C27.2444 16 29.3337 18.0893 29.3337 20.6667ZM22.6671 20.6667L24.6671 18.6667L26.6671 20.6667L24.6671 22.6667L22.6671 20.6667Z" fill="#AEB4BC"/>
<path opacity="0.2" fill-rule="evenodd" clip-rule="evenodd" d="M26.6669 13.3333H4.00024V27.9999H26.6669V24.8842C26.0608 25.1722 25.3827 25.3333 24.6671 25.3333C22.5531 25.3333 20.7674 23.9276 20.1937 21.9999L16.6669 21.9999V24.6666H14.0002V21.9999V19.3333H16.6669H20.1937C20.7674 17.4056 22.5531 15.9999 24.6671 15.9999C25.3827 15.9999 26.0608 16.161 26.6669 16.4489V13.3333ZM26.6669 20.6664L24.6671 18.6666L22.6671 20.6666L24.6671 22.6666L26.6669 20.6667V20.6664Z" fill="#AEB4BC"/>
<path opacity="0.5" fill-rule="evenodd" clip-rule="evenodd" d="M19.3335 10V10.6667H21.3335V10C21.3335 6.68629 18.6472 4 15.3335 4C12.0198 4 9.3335 6.68629 9.3335 10V13.3333H11.3335V10C11.3335 7.79086 13.1244 6 15.3335 6C17.5426 6 19.3335 7.79086 19.3335 10Z" fill="#AEB4BC"/>
</svg>
