<svg width="32" height="32" viewBox="0 0 32 32" fill="none" xmlns="http://www.w3.org/2000/svg">
<path opacity="0.2" fill-rule="evenodd" clip-rule="evenodd" d="M19.5727 29.4736L21.6354 25.8634H25.7602V21.695L29.3334 19.6102L27.2707 16L29.3333 12.3897L25.7602 10.305V6.13656H21.6354L19.5728 2.5263L16.0001 4.61063L12.4274 2.5263L10.3647 6.13656H6.2389V10.3056L2.66681 12.3897L4.72946 16L2.66675 19.6102L6.2389 21.6943V25.8634H10.3648L12.4275 29.4736L16.0001 27.3893L19.5727 29.4736Z" fill="#AEB4BC"/>
<path d="M20.2427 12.0334L21.6569 13.4477L14.1144 20.9901L12.7002 19.5759L20.2427 12.0334Z" fill="#F0B90B"/>
<path d="M10.3433 17.219L11.7575 15.8048L15.5287 19.576L14.1145 20.9902L10.3433 17.219Z" fill="#F0B90B"/>
</svg>
