<svg width="32" height="32" viewBox="0 0 32 32" fill="none" xmlns="http://www.w3.org/2000/svg">
<path d="M19.7989 6.59996L15.0848 11.314L13.1992 9.42839L17.9133 4.71434C20.5168 2.11084 24.7379 2.11085 27.3414 4.71434C29.9449 7.31784 29.9449 11.5389 27.3414 14.1424L22.6273 18.8565L20.7417 16.9709L25.4557 12.2568C27.0178 10.6947 27.0178 8.16206 25.4557 6.59996C23.8936 5.03786 21.361 5.03786 19.7989 6.59996Z" fill="white"/>
<path d="M6.59996 19.7995L11.314 15.0855L9.42839 13.1999L4.71434 17.9139C2.11084 20.5174 2.11085 24.7385 4.71434 27.342C7.31784 29.9455 11.5389 29.9455 14.1424 27.342L18.8565 22.628L16.9709 20.7423L12.2568 25.4564C10.6947 27.0185 8.16206 27.0185 6.59996 25.4564C5.03786 23.8943 5.03786 21.3616 6.59996 19.7995Z" fill="white"/>
<path d="M11.3139 22.6276L22.6276 11.3139L20.742 9.42828L9.42828 20.742L11.3139 22.6276Z" fill="white"/>
</svg>
