<svg width="24" height="24" viewBox="3 3 18 18" fill="none" xmlns="http://www.w3.org/2000/svg">
<path fill-rule="evenodd" clip-rule="evenodd" d="M11.9998 5.33331C10.5271 5.33331 9.33315 6.52722 9.33315 7.99998V12C9.33315 12.4945 9.46778 12.9577 9.7024 13.3547L8.73936 14.3177C8.27369 13.6638 7.99981 12.8639 7.99981 12V9.99998H6.66648V12C6.66648 13.2325 7.08455 14.3673 7.78662 15.2705L5.33447 17.7226L6.27728 18.6654L8.72944 16.2133C8.72943 16.2133 8.72946 16.2133 8.72944 16.2133L9.68223 15.2606C9.68225 15.2606 9.68222 15.2605 9.68223 15.2606L10.6452 14.2975C10.6453 14.2975 10.6452 14.2975 10.6452 14.2975L11.6546 13.2882C11.6546 13.2882 11.6546 13.2882 11.6546 13.2882L18.6653 6.27742L17.7225 5.33462L14.6665 8.39061V7.99998C14.6665 6.52722 13.4726 5.33331 11.9998 5.33331ZM13.3331 9.72394V7.99998C13.3331 7.2636 12.7362 6.66665 11.9998 6.66665C11.2634 6.66665 10.6665 7.2636 10.6665 7.99998V12C10.6665 12.1194 10.6822 12.2352 10.7117 12.3454L13.3331 9.72394Z" fill="white"/>
<path d="M10.8379 15.8286L9.80449 16.862C10.2809 17.0774 10.7945 17.2249 11.3331 17.2921L11.3331 19.3333H12.6665L12.6665 17.2921C15.2974 16.964 17.3331 14.7197 17.3331 12V9.99998H16.6665L15.9998 10.6666L15.9998 12C15.9998 14.2091 14.209 16 11.9998 16C11.5957 16 11.2056 15.9401 10.8379 15.8286Z" fill="white"/>
<path d="M11.9998 14.6666C13.4726 14.6666 14.6665 13.4727 14.6665 12L11.9998 14.6666Z" fill="white"/>
</svg>
