<svg width="32" height="32" viewBox="0 0 32 32" fill="none" xmlns="http://www.w3.org/2000/svg">
    <path fill-rule="evenodd" clip-rule="evenodd" d="M16 2.6665C13.0545 2.6665 10.6667 5.05432 10.6667 7.99984L10.6667 15.9998C10.6667 18.9454 13.0545 21.3332 16 21.3332C18.9456 21.3332 21.3334 18.9454 21.3334 15.9998V7.99984C21.3334 5.05432 18.9456 2.6665 16 2.6665ZM16 5.33317C14.5273 5.33317 13.3334 6.52708 13.3334 7.99984L13.3334 15.9998C13.3334 17.4726 14.5273 18.6665 16 18.6665C17.4728 18.6665 18.6667 17.4726 18.6667 15.9998V7.99984C18.6667 6.52708 17.4728 5.33317 16 5.33317Z" fill="white"/>
    <path d="M5.33337 15.9998V11.9998H8.00004V15.9998C8.00004 20.4181 11.5818 23.9998 16 23.9998C20.4183 23.9998 24 20.4181 24 15.9998L24 11.9998H26.6667L26.6667 15.9998C26.6667 21.4393 22.5951 25.9278 17.3334 26.584L17.3334 30.6665L14.6667 30.6665L14.6667 26.584C9.40496 25.9278 5.33337 21.4393 5.33337 15.9998Z" fill="white"/>
</svg>