<svg xmlns="http://www.w3.org/2000/svg" width="97" height="96" viewBox="0 0 97 96" fill="none">
    <path opacity="0.5" d="M84.5 28H64.5V8L84.5 28Z" fill="#AEB4BC"/>
    <path opacity="0.2" fill-rule="evenodd" clip-rule="evenodd" d="M24.5 8H64.5V28H84.5V88H24.5V8ZM34.5 38H74.5V42H34.5V38ZM74.5 46H34.5V50H74.5V46ZM34.5 54H74.5V58H34.5V54Z" fill="#AEB4BC"/>
    <path fill-rule="evenodd" clip-rule="evenodd" d="M22.6371 64.1054C30.4647 69.8861 41.5525 69.2316 48.642 62.1421C56.4524 54.3316 56.4524 41.6684 48.642 33.8579C40.8315 26.0474 28.1682 26.0474 20.3577 33.8579C13.2682 40.9474 12.6138 52.0351 18.3944 59.8628L4.09424 74.1629L8.33688 78.4056L22.6371 64.1054ZM44.3993 57.8995C38.932 63.3668 30.0677 63.3668 24.6003 57.8995C19.133 52.4322 19.133 43.5678 24.6003 38.1005C30.0677 32.6332 38.932 32.6332 44.3993 38.1005C49.8667 43.5678 49.8667 52.4322 44.3993 57.8995Z" fill="#AEB4BC"/>
</svg>