<svg width="96" height="96" viewBox="0 0 96 96" fill="none" xmlns="http://www.w3.org/2000/svg">
    <defs>
        <linearGradient id="paint0" x1="58" y1="50.3784" x2="58" y2="28" gradientUnits="userSpaceOnUse">
            <stop stop-color="#2B2F36"/>
            <stop offset="1" stop-color="#474D57"/>
        </linearGradient>
        <linearGradient id="paint1" x1="88" y1="50.3784" x2="88" y2="28" gradientUnits="userSpaceOnUse">
            <stop stop-color="#2B2F36"/>
            <stop offset="1" stop-color="#474D57"/>
        </linearGradient>
        <linearGradient id="paint2" x1="73" y1="13.4054" x2="73" y2="28" gradientUnits="userSpaceOnUse">
            <stop stop-color="#474D57"/>
            <stop offset="1" stop-color="#2B2F36"/>
        </linearGradient>
        <linearGradient id="paint3" x1="6.17157" y1="68.7499" x2="26.3284" y2="68.7499" gradientUnits="userSpaceOnUse">
            <stop stop-color="#929AA5"/>
            <stop offset="1" stop-color="#76808F"/>
        </linearGradient>
        <linearGradient id="paint4" x1="17" y1="48" x2="57" y2="48" gradientUnits="userSpaceOnUse">
            <stop stop-color="#929AA5"/>
            <stop offset="1" stop-color="#76808F"/>
        </linearGradient>
    </defs>
<path d="M32 51H58V28H32V51Z" fill="url(#paint0)"/>
<path d="M32 51H58V84H32V51Z" fill="#474D57"/>
<path d="M62 51H88V28H62V51Z" fill="url(#paint1)"/>
<path d="M62 51H88V84H62V51Z" fill="#474D57"/>
<path d="M22 78L24 76L26 78L24 80L22 78Z" fill="#474D57"/>
<path d="M47 28V24H55.1716L49.3935 18.2219L52.222 15.3935L58 21.1715V13H62V21.1719L67.7783 15.3935L70.6068 18.222L64.8287 24H73V28H47Z" fill="url(#paint2)"/>
<path d="M33 16L37 12L41 16L37 20L33 16Z" fill="#474D57"/>
<path d="M12 27L15 24L18 27L15 30L12 27Z" fill="#474D57"/>
<path fill-rule="evenodd" clip-rule="evenodd" d="M6.17157 73.1715L20.6716 58.6715L26.3284 64.3283L11.8284 78.8284L6.17157 73.1715Z" fill="url(#paint3)"/>
<path fill-rule="evenodd" clip-rule="evenodd" d="M53 48C53 39.1634 45.8366 32 37 32C28.1634 32 21 39.1634 21 48C21 56.8366 28.1634 64 37 64C45.8366 64 53 56.8366 53 48ZM57 48C57 36.9543 48.0457 28 37 28C25.9543 28 17 36.9543 17 48C17 59.0457 25.9543 68 37 68C48.0457 68 57 59.0457 57 48Z" fill="url(#paint4)"/>
</svg>
