<svg width="345" height="122" viewBox="0 0 345 122" fill="none" xmlns="http://www.w3.org/2000/svg">
<path d="M31 63.2014L345 63.2014" stroke="#EDEDED" stroke-width="0.5"/>
<path d="M30.9995 40.9998L345 40.9998" stroke="#EDEDED" stroke-width="0.5"/>
<line x1="345" y1="121.052" x2="31" y2="121.052" stroke="#EDEDED" stroke-width="0.5"/>
<path d="M202.5 63.2016L261.5 94.4016L341.5 20.8016" stroke="#FF693D" stroke-linecap="square" stroke-dasharray="2 2"/>
<path d="M3.47172 64.8015V59.2515L2.07172 60.7415L1.56172 60.2115L3.57172 58.1315H4.31172V64.8015H3.47172ZM7.01602 65.7915C7.34602 65.5715 7.63602 65.1715 7.67602 64.8315C7.67602 64.8315 7.58602 64.8615 7.53602 64.8615C7.25602 64.8615 7.03602 64.6315 7.03602 64.3115C7.03602 64.0115 7.27602 63.7415 7.59602 63.7415C7.94602 63.7415 8.25602 64.0415 8.25602 64.5415C8.25602 65.1815 7.89602 65.7715 7.40602 66.1215L7.01602 65.7915ZM11.8371 64.9215C10.7171 64.9215 10.0071 64.5115 9.51711 63.8515L10.0271 63.3015C10.4571 63.8515 11.0271 64.1715 11.8271 64.1715C12.7171 64.1715 13.3271 63.5515 13.3271 62.7515C13.3271 61.8715 12.7271 61.3215 11.8471 61.3215C11.2671 61.3215 10.7771 61.5215 10.3471 61.9415L9.72711 61.7315V58.1315H13.7471V58.8815H10.5671V61.1915C10.8871 60.8715 11.4371 60.5815 12.0971 60.5815C13.1971 60.5815 14.1771 61.3415 14.1771 62.7215C14.1771 64.0715 13.1671 64.9215 11.8371 64.9215ZM17.5214 64.9215C15.7214 64.9215 15.0014 63.1115 15.0014 61.4715C15.0014 59.8215 15.7214 58.0315 17.5214 58.0315C19.3214 58.0315 20.0314 59.8215 20.0314 61.4715C20.0314 63.1115 19.3214 64.9215 17.5214 64.9215ZM17.5214 64.1615C18.7514 64.1615 19.1614 62.8015 19.1614 61.4715C19.1614 60.1415 18.7614 58.7915 17.5214 58.7915C16.2914 58.7915 15.8714 60.1415 15.8714 61.4715C15.8714 62.8015 16.2914 64.1615 17.5214 64.1615ZM23.1757 64.9215C21.3757 64.9215 20.6557 63.1115 20.6557 61.4715C20.6557 59.8215 21.3757 58.0315 23.1757 58.0315C24.9757 58.0315 25.6857 59.8215 25.6857 61.4715C25.6857 63.1115 24.9757 64.9215 23.1757 64.9215ZM23.1757 64.1615C24.4057 64.1615 24.8157 62.8015 24.8157 61.4715C24.8157 60.1415 24.4157 58.7915 23.1757 58.7915C21.9457 58.7915 21.5257 60.1415 21.5257 61.4715C21.5257 62.8015 21.9457 64.1615 23.1757 64.1615Z" fill="#909090"/>
<path d="M3.47172 42.8015V37.2515L2.07172 38.7415L1.56172 38.2115L3.57172 36.1315H4.31172V42.8015H3.47172ZM7.01602 43.7915C7.34602 43.5715 7.63602 43.1715 7.67602 42.8315C7.67602 42.8315 7.58602 42.8615 7.53602 42.8615C7.25602 42.8615 7.03602 42.6315 7.03602 42.3115C7.03602 42.0115 7.27602 41.7415 7.59602 41.7415C7.94602 41.7415 8.25602 42.0415 8.25602 42.5415C8.25602 43.1815 7.89602 43.7715 7.40602 44.1215L7.01602 43.7915ZM11.9671 42.9215C10.1171 42.9215 9.41711 41.2915 9.41711 39.4815C9.41711 37.6615 10.2571 36.0315 12.1071 36.0315C12.9371 36.0315 13.5271 36.3615 13.9371 36.8315L13.4971 37.4515C13.1671 37.0515 12.7771 36.7815 12.1071 36.7815C10.8371 36.7815 10.2771 38.0815 10.2771 39.3915V39.6315C10.5571 39.1915 11.2871 38.6115 12.1271 38.6115C13.3071 38.6115 14.2671 39.3215 14.2671 40.7415C14.2671 41.9015 13.3971 42.9215 11.9671 42.9215ZM11.9271 42.1715C12.9271 42.1715 13.4071 41.4115 13.4071 40.7715C13.4071 39.7915 12.7571 39.3415 11.9271 39.3415C11.2771 39.3415 10.6471 39.7615 10.3071 40.3215C10.3771 41.1315 10.7971 42.1715 11.9271 42.1715ZM17.5214 42.9215C15.7214 42.9215 15.0014 41.1115 15.0014 39.4715C15.0014 37.8215 15.7214 36.0315 17.5214 36.0315C19.3214 36.0315 20.0314 37.8215 20.0314 39.4715C20.0314 41.1115 19.3214 42.9215 17.5214 42.9215ZM17.5214 42.1615C18.7514 42.1615 19.1614 40.8015 19.1614 39.4715C19.1614 38.1415 18.7614 36.7915 17.5214 36.7915C16.2914 36.7915 15.8714 38.1415 15.8714 39.4715C15.8714 40.8015 16.2914 42.1615 17.5214 42.1615ZM23.1757 42.9215C21.3757 42.9215 20.6557 41.1115 20.6557 39.4715C20.6557 37.8215 21.3757 36.0315 23.1757 36.0315C24.9757 36.0315 25.6857 37.8215 25.6857 39.4715C25.6857 41.1115 24.9757 42.9215 23.1757 42.9215ZM23.1757 42.1615C24.4057 42.1615 24.8157 40.8015 24.8157 39.4715C24.8157 38.1415 24.4157 36.7915 23.1757 36.7915C21.9457 36.7915 21.5257 38.1415 21.5257 39.4715C21.5257 40.8015 21.9457 42.1615 23.1757 42.1615Z" fill="#909090"/>
<path d="M31 120.802L77.5 32.0015" stroke="black" stroke-linecap="round" stroke-linejoin="round"/>
<path d="M307.488 42.144C305.184 42.144 303.348 40.464 303.348 38.004C303.348 35.544 305.184 33.864 307.488 33.864C309.096 33.864 310.092 34.668 310.704 35.616L309.6 36.18C309.192 35.52 308.412 35.016 307.488 35.016C305.916 35.016 304.692 36.264 304.692 38.004C304.692 39.744 305.916 40.992 307.488 40.992C308.412 40.992 309.192 40.5 309.6 39.828L310.716 40.392C310.08 41.352 309.096 42.144 307.488 42.144Z" fill="#FF693D"/>
<path d="M303.391 87L303.391 78.996L306.307 78.996C308.791 78.996 310.471 80.676 310.471 83.004C310.471 85.332 308.791 87 306.307 87L303.391 87ZM306.307 85.86C308.095 85.86 309.139 84.576 309.139 83.004C309.139 81.408 308.143 80.136 306.307 80.136L304.687 80.136L304.687 85.86L306.307 85.86Z" fill="#FF693D"/>
<path d="M74.0895 17L76.7695 10.33L77.8095 10.33L80.4995 17L79.5695 17L78.9995 15.52L75.5895 15.52L75.0195 17L74.0895 17ZM75.8795 14.77L78.7095 14.77L77.2895 11.08L75.8795 14.77Z" fill="black"/>
<path d="M199.165 82L199.165 73.996L203.005 73.996C204.457 73.996 205.273 74.884 205.273 76.036C205.273 77.044 204.625 77.716 203.881 77.872C204.733 78.004 205.429 78.856 205.429 79.84C205.429 81.088 204.589 82 203.101 82L199.165 82ZM202.813 80.86C203.605 80.86 204.097 80.404 204.097 79.66C204.097 79.036 203.653 78.46 202.813 78.46L200.461 78.46L200.461 80.86L202.813 80.86ZM202.753 77.368C203.509 77.368 203.941 76.888 203.941 76.252C203.941 75.616 203.509 75.136 202.753 75.136L200.461 75.136L200.461 77.368L202.753 77.368Z" fill="#FF693D"/>
<path d="M77 32.8016C83.4503 20.3823 93.517 1 93.517 1L202.5 63.2016" stroke="black" stroke-linecap="round" stroke-linejoin="round" stroke-dasharray="2 2"/>
<circle cx="307" cy="53" r="2.5" transform="rotate(-90 307 53)" fill="white" stroke="#FF693D"/>
<circle cx="78.9995" cy="29" r="3" transform="rotate(-90 78.9995 29)" fill="black"/>
<ellipse cx="202" cy="63" rx="3" ry="3" transform="rotate(-90 202 63)" fill="#FF693D"/>
<ellipse cx="307" cy="68" rx="3" ry="3" transform="rotate(-90 307 68)" fill="#FF693D"/>
</svg>
