<svg width="345" height="122" viewBox="0 0 345 122" fill="none" xmlns="http://www.w3.org/2000/svg">
<path d="M29.9988 76.9185H345" stroke="#EDEDED" stroke-width="0.5"/>
<path d="M29.9968 21.8164H344.997" stroke="#EDEDED" stroke-width="0.5"/>
<line x1="345" y1="121.25" x2="30" y2="121.25" stroke="#EDEDED" stroke-width="0.5"/>
<path d="M31.4998 121L100.268 78.9832L128 91.6122L177.074 51.0348" stroke="black" stroke-linecap="round" stroke-linejoin="round"/>
<path d="M241.5 75.0817L303 97.1226L325.5 73.245" stroke="#FF693D" stroke-linecap="square" stroke-dasharray="2 2"/>
<path d="M243.5 75.6938L180 52.4285" stroke="black" stroke-linejoin="round" stroke-dasharray="2 2"/>
<path d="M329 0.999955L277 23.0408" stroke="#FF693D" stroke-linecap="square" stroke-dasharray="2 2"/>
<path d="M176.996 51.1404L212.066 21.8162L242 38.3468L281 21.204" stroke="black" stroke-linejoin="round" stroke-dasharray="2 2"/>
<path d="M3.29147 25.12C2.18147 25.12 1.36147 24.63 0.951475 24.02L1.46147 23.49C1.84147 24.01 2.50147 24.37 3.27147 24.37C4.22147 24.37 4.78147 23.89 4.78147 23.13C4.78147 22.3 4.11147 21.96 3.17147 21.96C2.90147 21.96 2.59147 21.96 2.50147 21.97V21.2C2.61147 21.21 2.91147 21.21 3.17147 21.21C3.99147 21.21 4.68147 20.88 4.68147 20.12C4.68147 19.38 4.02147 18.98 3.23147 18.98C2.52147 18.98 1.99147 19.26 1.51147 19.79L1.04147 19.26C1.51147 18.68 2.28147 18.23 3.30147 18.23C4.56147 18.23 5.52148 18.88 5.52148 20.01C5.52148 20.96 4.75147 21.44 4.11147 21.56C4.71147 21.62 5.62147 22.14 5.62147 23.2C5.62147 24.31 4.74147 25.12 3.29147 25.12ZM7.01577 25.99C7.34577 25.77 7.63577 25.37 7.67577 25.03C7.67577 25.03 7.58577 25.06 7.53577 25.06C7.25577 25.06 7.03577 24.83 7.03577 24.51C7.03577 24.21 7.27577 23.94 7.59577 23.94C7.94577 23.94 8.25577 24.24 8.25577 24.74C8.25577 25.38 7.89577 25.97 7.40577 26.32L7.01577 25.99ZM11.8669 25.12C10.0669 25.12 9.34687 23.31 9.34687 21.67C9.34687 20.02 10.0669 18.23 11.8669 18.23C13.6669 18.23 14.3769 20.02 14.3769 21.67C14.3769 23.31 13.6669 25.12 11.8669 25.12ZM11.8669 24.36C13.0969 24.36 13.5069 23 13.5069 21.67C13.5069 20.34 13.1069 18.99 11.8669 18.99C10.6369 18.99 10.2169 20.34 10.2169 21.67C10.2169 23 10.6369 24.36 11.8669 24.36ZM17.5212 25.12C15.7212 25.12 15.0012 23.31 15.0012 21.67C15.0012 20.02 15.7212 18.23 17.5212 18.23C19.3212 18.23 20.0312 20.02 20.0312 21.67C20.0312 23.31 19.3212 25.12 17.5212 25.12ZM17.5212 24.36C18.7512 24.36 19.1612 23 19.1612 21.67C19.1612 20.34 18.7612 18.99 17.5212 18.99C16.2912 18.99 15.8712 20.34 15.8712 21.67C15.8712 23 16.2912 24.36 17.5212 24.36ZM23.1755 25.12C21.3755 25.12 20.6555 23.31 20.6555 21.67C20.6555 20.02 21.3755 18.23 23.1755 18.23C24.9755 18.23 25.6855 20.02 25.6855 21.67C25.6855 23.31 24.9755 25.12 23.1755 25.12ZM23.1755 24.36C24.4055 24.36 24.8155 23 24.8155 21.67C24.8155 20.34 24.4155 18.99 23.1755 18.99C21.9455 18.99 21.5255 20.34 21.5255 21.67C21.5255 23 21.9455 24.36 23.1755 24.36Z" fill="#909090"/>
<path d="M3.47147 79V73.45L2.07147 74.94L1.56147 74.41L3.57147 72.33H4.31147V79H3.47147ZM7.01577 79.99C7.34577 79.77 7.63577 79.37 7.67577 79.03C7.67577 79.03 7.58577 79.06 7.53577 79.06C7.25577 79.06 7.03577 78.83 7.03577 78.51C7.03577 78.21 7.27577 77.94 7.59577 77.94C7.94577 77.94 8.25577 78.24 8.25577 78.74C8.25577 79.38 7.89577 79.97 7.40577 80.32L7.01577 79.99ZM11.8369 79.12C10.7169 79.12 10.0069 78.71 9.51687 78.05L10.0269 77.5C10.4569 78.05 11.0269 78.37 11.8269 78.37C12.7169 78.37 13.3269 77.75 13.3269 76.95C13.3269 76.07 12.7269 75.52 11.8469 75.52C11.2669 75.52 10.7769 75.72 10.3469 76.14L9.72687 75.93V72.33H13.7469V73.08H10.5669V75.39C10.8869 75.07 11.4369 74.78 12.0969 74.78C13.1969 74.78 14.1769 75.54 14.1769 76.92C14.1769 78.27 13.1669 79.12 11.8369 79.12ZM17.5212 79.12C15.7212 79.12 15.0012 77.31 15.0012 75.67C15.0012 74.02 15.7212 72.23 17.5212 72.23C19.3212 72.23 20.0312 74.02 20.0312 75.67C20.0312 77.31 19.3212 79.12 17.5212 79.12ZM17.5212 78.36C18.7512 78.36 19.1612 77 19.1612 75.67C19.1612 74.34 18.7612 72.99 17.5212 72.99C16.2912 72.99 15.8712 74.34 15.8712 75.67C15.8712 77 16.2912 78.36 17.5212 78.36ZM23.1755 79.12C21.3755 79.12 20.6555 77.31 20.6555 75.67C20.6555 74.02 21.3755 72.23 23.1755 72.23C24.9755 72.23 25.6855 74.02 25.6855 75.67C25.6855 77.31 24.9755 79.12 23.1755 79.12ZM23.1755 78.36C24.4055 78.36 24.8155 77 24.8155 75.67C24.8155 74.34 24.4155 72.99 23.1755 72.99C21.9455 72.99 21.5255 74.34 21.5255 75.67C21.5255 77 21.9455 78.36 23.1755 78.36Z" fill="#909090"/>
<circle cx="177" cy="51" r="3" transform="rotate(-90 177 51)" fill="black"/>
<circle cx="260" cy="30" r="2.5" transform="rotate(-90 260 30)" fill="white" stroke="#FF693D"/>
<circle cx="244" cy="76" r="3" transform="rotate(-90 244 76)" fill="#FF693D"/>
<circle cx="279" cy="21" r="3" transform="rotate(-90 279 21)" fill="#FF693D"/>
<circle cx="299" cy="14" r="2.5" transform="rotate(-90 299 14)" fill="white" stroke="#FF693D"/>
<path d="M173.09 39L175.77 32.33L176.81 32.33L179.5 39L178.57 39L178 37.52L174.59 37.52L174.02 39L173.09 39ZM174.88 36.77L177.71 36.77L176.29 33.08L174.88 36.77Z" fill="black"/>
<path d="M255.827 48L255.827 41.33L258.807 41.33C259.977 41.33 260.677 42.03 260.677 43.03C260.677 43.87 260.127 44.43 259.507 44.56C260.217 44.67 260.807 45.4 260.807 46.2C260.807 47.27 260.097 48 258.877 48L255.827 48ZM258.707 47.26C259.477 47.26 259.937 46.81 259.937 46.1C259.937 45.5 259.517 44.95 258.707 44.95L256.667 44.95L256.667 47.26L258.707 47.26ZM258.657 44.23C259.407 44.23 259.807 43.76 259.807 43.16C259.807 42.55 259.407 42.07 258.657 42.07L256.667 42.07L256.667 44.23L258.657 44.23ZM261.926 47.32C264.306 45.39 265.566 44.31 265.566 43.19C265.566 42.35 264.876 41.99 264.206 41.99C263.416 41.99 262.816 42.32 262.436 42.82L261.906 42.28C262.426 41.6 263.276 41.23 264.206 41.23C265.316 41.23 266.416 41.87 266.416 43.18C266.416 44.52 265.106 45.73 263.236 47.25L266.446 47.25L266.446 48L261.926 48L261.926 47.32Z" fill="#FF693D"/>
<path d="M276.165 40L276.165 31.996L280.005 31.996C281.457 31.996 282.273 32.884 282.273 34.036C282.273 35.044 281.625 35.716 280.881 35.872C281.733 36.004 282.429 36.856 282.429 37.84C282.429 39.088 281.589 40 280.101 40L276.165 40ZM279.813 38.86C280.605 38.86 281.097 38.404 281.097 37.66C281.097 37.036 280.653 36.46 279.813 36.46L277.461 36.46L277.461 38.86L279.813 38.86ZM279.753 35.368C280.509 35.368 280.941 34.888 280.941 34.252C280.941 33.616 280.509 33.136 279.753 33.136L277.461 33.136L277.461 35.368L279.753 35.368Z" fill="#FF693D"/>
<path d="M293.827 32L293.827 25.33L296.807 25.33C297.977 25.33 298.677 26.03 298.677 27.03C298.677 27.87 298.127 28.43 297.507 28.56C298.217 28.67 298.807 29.4 298.807 30.2C298.807 31.27 298.097 32 296.877 32L293.827 32ZM296.707 31.26C297.477 31.26 297.937 30.81 297.937 30.1C297.937 29.5 297.517 28.95 296.707 28.95L294.667 28.95L294.667 31.26L296.707 31.26ZM296.657 28.23C297.407 28.23 297.807 27.76 297.807 27.16C297.807 26.55 297.407 26.07 296.657 26.07L294.667 26.07L294.667 28.23L296.657 28.23ZM302.306 32L302.306 26.45L300.906 27.94L300.396 27.41L302.406 25.33L303.146 25.33L303.146 32L302.306 32Z" fill="#FF693D"/>
<path d="M237.11 91.316L237.11 90.08L242.486 87.776L242.486 89.012L238.298 90.716L242.486 92.396L242.486 93.62L237.11 91.316ZM237.11 95L237.11 93.956L242.486 93.956L242.486 95L237.11 95ZM247.488 95.144C245.184 95.144 243.348 93.464 243.348 91.004C243.348 88.544 245.184 86.864 247.488 86.864C249.096 86.864 250.092 87.668 250.704 88.616L249.6 89.18C249.192 88.52 248.412 88.016 247.488 88.016C245.916 88.016 244.692 89.264 244.692 91.004C244.692 92.744 245.916 93.992 247.488 93.992C248.412 93.992 249.192 93.5 249.6 92.828L250.716 93.392C250.08 94.352 249.096 95.144 247.488 95.144Z" fill="#FF693D"/>
</svg>
