<svg width="346" height="122" viewBox="0 0 346 122" fill="none" xmlns="http://www.w3.org/2000/svg">
<line x1="345" y1="121.25" x2="31" y2="121.25" stroke="#EDEDED" stroke-width="0.5"/>
<path d="M32.5 120.375L101.269 77.4829L124.375 95L176.5 50.8801" stroke="black" stroke-linecap="round" stroke-linejoin="round"/>
<path d="M176.5 50.8801L205 75.375L326.5 1" stroke="black" stroke-linecap="round" stroke-linejoin="round" stroke-dasharray="2 2"/>
<path d="M1.09172 52.07C3.47172 50.14 4.73172 49.06 4.73172 47.94C4.73172 47.1 4.04172 46.74 3.37172 46.74C2.58172 46.74 1.98172 47.07 1.60172 47.57L1.07172 47.03C1.59172 46.35 2.44172 45.98 3.37172 45.98C4.48172 45.98 5.58172 46.62 5.58172 47.93C5.58172 49.27 4.27172 50.48 2.40172 52H5.61172V52.75H1.09172V52.07ZM7.01602 53.74C7.34602 53.52 7.63602 53.12 7.67602 52.78C7.67602 52.78 7.58602 52.81 7.53602 52.81C7.25602 52.81 7.03602 52.58 7.03602 52.26C7.03602 51.96 7.27602 51.69 7.59602 51.69C7.94602 51.69 8.25602 51.99 8.25602 52.49C8.25602 53.13 7.89602 53.72 7.40602 54.07L7.01602 53.74ZM12.5371 52.75V51.07H9.41711V50.36L12.2371 46.08H13.3771V50.32H14.2971V51.07H13.3771V52.75H12.5371ZM12.5371 46.89L10.2571 50.32H12.5371V46.89ZM17.5214 52.87C15.7214 52.87 15.0014 51.06 15.0014 49.42C15.0014 47.77 15.7214 45.98 17.5214 45.98C19.3214 45.98 20.0314 47.77 20.0314 49.42C20.0314 51.06 19.3214 52.87 17.5214 52.87ZM17.5214 52.11C18.7514 52.11 19.1614 50.75 19.1614 49.42C19.1614 48.09 18.7614 46.74 17.5214 46.74C16.2914 46.74 15.8714 48.09 15.8714 49.42C15.8714 50.75 16.2914 52.11 17.5214 52.11ZM23.1757 52.87C21.3757 52.87 20.6557 51.06 20.6557 49.42C20.6557 47.77 21.3757 45.98 23.1757 45.98C24.9757 45.98 25.6857 47.77 25.6857 49.42C25.6857 51.06 24.9757 52.87 23.1757 52.87ZM23.1757 52.11C24.4057 52.11 24.8157 50.75 24.8157 49.42C24.8157 48.09 24.4157 46.74 23.1757 46.74C21.9457 46.74 21.5257 48.09 21.5257 49.42C21.5257 50.75 21.9457 52.11 23.1757 52.11Z" fill="#909090"/>
<path d="M32 52.25H345" stroke="#FF693D" stroke-linecap="square"/>
<ellipse cx="176" cy="52" rx="3" ry="3" transform="rotate(-90 176 52)" fill="#FF693D"/>
<path d="M172.547 40L175.227 33.33L176.267 33.33L178.957 40L178.027 40L177.457 38.52L174.047 38.52L173.477 40L172.547 40ZM174.337 37.77L177.167 37.77L175.747 34.08L174.337 37.77Z" fill="#FF693D"/>
</svg>
