<svg width="346" height="120" viewBox="0 0 346 120" fill="none" xmlns="http://www.w3.org/2000/svg">
<path d="M31 119.375L99.7687 76.4829L114.5 89.375L175 49.8801" stroke="#EAECEF" stroke-linecap="round" stroke-linejoin="round"/>
<path d="M175 49.8801L199.5 79.375L278 30.625" stroke="#EAECEF" stroke-linecap="round" stroke-linejoin="round" stroke-dasharray="3 3"/>
<path d="M345 31.25V0H30V31.25H345Z" fill="url(#paint0_linear_32920_3691)"/>
<path d="M30.5 31.25H344.75" stroke="#FF693D" stroke-linecap="square"/>
<path d="M3.29172 34.12C2.18172 34.12 1.36172 33.63 0.951719 33.02L1.46172 32.49C1.84172 33.01 2.50172 33.37 3.27172 33.37C4.22172 33.37 4.78172 32.89 4.78172 32.13C4.78172 31.3 4.11172 30.96 3.17172 30.96C2.90172 30.96 2.59172 30.96 2.50172 30.97V30.2C2.61172 30.21 2.91172 30.21 3.17172 30.21C3.99172 30.21 4.68172 29.88 4.68172 29.12C4.68172 28.38 4.02172 27.98 3.23172 27.98C2.52172 27.98 1.99172 28.26 1.51172 28.79L1.04172 28.26C1.51172 27.68 2.28172 27.23 3.30172 27.23C4.56172 27.23 5.52172 27.88 5.52172 29.01C5.52172 29.96 4.75172 30.44 4.11172 30.56C4.71172 30.62 5.62172 31.14 5.62172 32.2C5.62172 33.31 4.74172 34.12 3.29172 34.12ZM7.01602 34.99C7.34602 34.77 7.63602 34.37 7.67602 34.03C7.67602 34.03 7.58602 34.06 7.53602 34.06C7.25602 34.06 7.03602 33.83 7.03602 33.51C7.03602 33.21 7.27602 32.94 7.59602 32.94C7.94602 32.94 8.25602 33.24 8.25602 33.74C8.25602 34.38 7.89602 34.97 7.40602 35.32L7.01602 34.99ZM11.8671 34.12C10.0671 34.12 9.34711 32.31 9.34711 30.67C9.34711 29.02 10.0671 27.23 11.8671 27.23C13.6671 27.23 14.3771 29.02 14.3771 30.67C14.3771 32.31 13.6671 34.12 11.8671 34.12ZM11.8671 33.36C13.0971 33.36 13.5071 32 13.5071 30.67C13.5071 29.34 13.1071 27.99 11.8671 27.99C10.6371 27.99 10.2171 29.34 10.2171 30.67C10.2171 32 10.6371 33.36 11.8671 33.36ZM17.5214 34.12C15.7214 34.12 15.0014 32.31 15.0014 30.67C15.0014 29.02 15.7214 27.23 17.5214 27.23C19.3214 27.23 20.0314 29.02 20.0314 30.67C20.0314 32.31 19.3214 34.12 17.5214 34.12ZM17.5214 33.36C18.7514 33.36 19.1614 32 19.1614 30.67C19.1614 29.34 18.7614 27.99 17.5214 27.99C16.2914 27.99 15.8714 29.34 15.8714 30.67C15.8714 32 16.2914 33.36 17.5214 33.36ZM23.1757 34.12C21.3757 34.12 20.6557 32.31 20.6557 30.67C20.6557 29.02 21.3757 27.23 23.1757 27.23C24.9757 27.23 25.6857 29.02 25.6857 30.67C25.6857 32.31 24.9757 34.12 23.1757 34.12ZM23.1757 33.36C24.4057 33.36 24.8157 32 24.8157 30.67C24.8157 29.34 24.4157 27.99 23.1757 27.99C21.9457 27.99 21.5257 29.34 21.5257 30.67C21.5257 32 21.9457 33.36 23.1757 33.36Z" fill="#848E9C"/>
<path d="M278.5 30.625L327.5 0.625" stroke="#FF693D" stroke-linecap="round" stroke-dasharray="3 3"/>
<path d="M3.47172 92V86.45L2.07172 87.94L1.56172 87.41L3.57172 85.33H4.31172V92H3.47172ZM7.01602 92.99C7.34602 92.77 7.63602 92.37 7.67602 92.03C7.67602 92.03 7.58602 92.06 7.53602 92.06C7.25602 92.06 7.03602 91.83 7.03602 91.51C7.03602 91.21 7.27602 90.94 7.59602 90.94C7.94602 90.94 8.25602 91.24 8.25602 91.74C8.25602 92.38 7.89602 92.97 7.40602 93.32L7.01602 92.99ZM11.8371 92.12C10.7171 92.12 10.0071 91.71 9.51711 91.05L10.0271 90.5C10.4571 91.05 11.0271 91.37 11.8271 91.37C12.7171 91.37 13.3271 90.75 13.3271 89.95C13.3271 89.07 12.7271 88.52 11.8471 88.52C11.2671 88.52 10.7771 88.72 10.3471 89.14L9.72711 88.93V85.33H13.7471V86.08H10.5671V88.39C10.8871 88.07 11.4371 87.78 12.0971 87.78C13.1971 87.78 14.1771 88.54 14.1771 89.92C14.1771 91.27 13.1671 92.12 11.8371 92.12ZM17.5214 92.12C15.7214 92.12 15.0014 90.31 15.0014 88.67C15.0014 87.02 15.7214 85.23 17.5214 85.23C19.3214 85.23 20.0314 87.02 20.0314 88.67C20.0314 90.31 19.3214 92.12 17.5214 92.12ZM17.5214 91.36C18.7514 91.36 19.1614 90 19.1614 88.67C19.1614 87.34 18.7614 85.99 17.5214 85.99C16.2914 85.99 15.8714 87.34 15.8714 88.67C15.8714 90 16.2914 91.36 17.5214 91.36ZM23.1757 92.12C21.3757 92.12 20.6557 90.31 20.6557 88.67C20.6557 87.02 21.3757 85.23 23.1757 85.23C24.9757 85.23 25.6857 87.02 25.6857 88.67C25.6857 90.31 24.9757 92.12 23.1757 92.12ZM23.1757 91.36C24.4057 91.36 24.8157 90 24.8157 88.67C24.8157 87.34 24.4157 85.99 23.1757 85.99C21.9457 85.99 21.5257 87.34 21.5257 88.67C21.5257 90 21.9457 91.36 23.1757 91.36Z" fill="#848E9C"/>
<path d="M181.09 53L183.77 46.33L184.81 46.33L187.5 53L186.57 53L186 51.52L182.59 51.52L182.02 53L181.09 53ZM182.88 50.77L185.71 50.77L184.29 47.08L182.88 50.77Z" fill="#EAECEF"/>
<path d="M184.91 86.12C183.02 86.12 181.5 84.72 181.5 82.67C181.5 80.62 183.02 79.22 184.91 79.22C186.13 79.22 186.95 79.8 187.48 80.55L186.77 80.94C186.39 80.38 185.7 79.97 184.91 79.97C183.49 79.97 182.38 81.09 182.38 82.67C182.38 84.25 183.49 85.37 184.91 85.37C185.7 85.37 186.39 84.96 186.77 84.4L187.49 84.79C186.93 85.56 186.13 86.12 184.91 86.12Z" fill="#EAECEF"/>
<ellipse cx="278" cy="31" rx="3" ry="3" transform="rotate(-90 278 31)" fill="#FF693D"/>
<path d="M272.972 18.93L272.972 18.12L276.592 16.5L272.972 14.87L272.972 14.05L277.402 16.1L277.402 16.87L272.972 18.93ZM272.972 20L272.972 19.31L277.402 19.31L277.402 20L272.972 20ZM278.481 20L278.481 13.33L281.461 13.33C282.631 13.33 283.331 14.03 283.331 15.03C283.331 15.87 282.781 16.43 282.161 16.56C282.871 16.67 283.461 17.4 283.461 18.2C283.461 19.27 282.751 20 281.531 20L278.481 20ZM281.361 19.26C282.131 19.26 282.591 18.81 282.591 18.1C282.591 17.5 282.171 16.95 281.361 16.95L279.321 16.95L279.321 19.26L281.361 19.26ZM281.311 16.23C282.061 16.23 282.461 15.76 282.461 15.16C282.461 14.55 282.061 14.07 281.311 14.07L279.321 14.07L279.321 16.23L281.311 16.23Z" fill="#FF693D"/>
<path d="M174 80C175.657 80 177 81.3431 177 83C177 84.6569 175.657 86 174 86C172.343 86 171 84.6569 171 83C171 81.3431 172.343 80 174 80Z" fill="#FF693D"/>
<circle cx="174" cy="51" r="3" transform="rotate(-90 174 51)" fill="#EAECEF"/>
<defs>
<linearGradient id="paint0_linear_32920_3691" x1="255.792" y1="55.7598" x2="255.792" y2="-1.56964e-06" gradientUnits="userSpaceOnUse">
<stop stop-color="#FF693D" stop-opacity="0.2"/>
<stop offset="1" stop-color="#FF693D" stop-opacity="0"/>
</linearGradient>
</defs>
</svg>
