<svg width="345" height="121" viewBox="0 0 345 121" fill="none" xmlns="http://www.w3.org/2000/svg">
<path d="M31 88.9222H343" stroke="#FF693D" stroke-linecap="square"/>
<path d="M157.78 13.5001L157.78 6.83006L160.76 6.83006C161.93 6.83006 162.63 7.53006 162.63 8.53006C162.63 9.37006 162.08 9.93006 161.46 10.0601C162.17 10.1701 162.76 10.9001 162.76 11.7001C162.76 12.7701 162.05 13.5001 160.83 13.5001L157.78 13.5001ZM160.66 12.7601C161.43 12.7601 161.89 12.3101 161.89 11.6001C161.89 11.0001 161.47 10.4501 160.66 10.4501L158.62 10.4501L158.62 12.7601L160.66 12.7601ZM160.61 9.73006C161.36 9.73006 161.76 9.26006 161.76 8.66006C161.76 8.05006 161.36 7.57006 160.61 7.57006L158.62 7.57006L158.62 9.73006L160.61 9.73006Z" fill="#EAECEF"/>
<path d="M157.09 46.3422L159.77 39.6722L160.81 39.6722L163.5 46.3422L162.57 46.3422L162 44.8622L158.59 44.8622L158.02 46.3422L157.09 46.3422ZM158.88 44.1122L161.71 44.1122L160.29 40.4222L158.88 44.1122Z" fill="#EAECEF"/>
<path d="M250.503 105.107L250.503 104.337L254.943 102.287L254.943 103.107L251.313 104.737L254.943 106.357L254.943 107.167L250.503 105.107ZM250.503 108.237L250.503 107.547L254.943 107.547L254.943 108.237L250.503 108.237ZM259.152 108.357C257.262 108.357 255.742 106.957 255.742 104.907C255.742 102.857 257.262 101.457 259.152 101.457C260.372 101.457 261.192 102.037 261.722 102.787L261.012 103.177C260.632 102.617 259.942 102.207 259.152 102.207C257.732 102.207 256.622 103.327 256.622 104.907C256.622 106.487 257.732 107.607 259.152 107.607C259.942 107.607 260.632 107.197 261.012 106.637L261.732 107.027C261.172 107.797 260.372 108.357 259.152 108.357Z" fill="#FF693D"/>
<circle cx="152" cy="10.6579" r="3" transform="rotate(-90 152 10.6579)" fill="#FF693D"/>
<line x1="345" y1="120.75" x2="30" y2="120.75" stroke="#333B47" stroke-width="0.5"/>
<path d="M31.5 119L98.7687 55.0512L121.789 74.5001L152 44.7106" stroke="#EAECEF" stroke-linecap="round" stroke-linejoin="round"/>
<path d="M254 88.2896L185 13.7632L153 43.4474" stroke="#EAECEF" stroke-linecap="round" stroke-linejoin="round" stroke-dasharray="2 2"/>
<circle cx="254" cy="88.7115" r="3" transform="rotate(-90 254 88.7115)" fill="#FF693D"/>
<path d="M345 88.9211V120.5H30V88.9211H345Z" fill="url(#paint0_linear_32920_2886)"/>
<path d="M283 94.6053L266.5 102.184L254.5 89.5527" stroke="#FF693D" stroke-linecap="square" stroke-dasharray="2 2"/>
<path d="M3.29172 31.6197C2.18172 31.6197 1.36172 31.1297 0.951719 30.5197L1.46172 29.9897C1.84172 30.5097 2.50172 30.8697 3.27172 30.8697C4.22172 30.8697 4.78172 30.3897 4.78172 29.6297C4.78172 28.7997 4.11172 28.4597 3.17172 28.4597C2.90172 28.4597 2.59172 28.4597 2.50172 28.4697V27.6997C2.61172 27.7097 2.91172 27.7097 3.17172 27.7097C3.99172 27.7097 4.68172 27.3797 4.68172 26.6197C4.68172 25.8797 4.02172 25.4797 3.23172 25.4797C2.52172 25.4797 1.99172 25.7597 1.51172 26.2897L1.04172 25.7597C1.51172 25.1797 2.28172 24.7297 3.30172 24.7297C4.56172 24.7297 5.52172 25.3797 5.52172 26.5097C5.52172 27.4597 4.75172 27.9397 4.11172 28.0597C4.71172 28.1197 5.62172 28.6397 5.62172 29.6997C5.62172 30.8097 4.74172 31.6197 3.29172 31.6197ZM7.01602 32.4897C7.34602 32.2697 7.63602 31.8697 7.67602 31.5297C7.67602 31.5297 7.58602 31.5597 7.53602 31.5597C7.25602 31.5597 7.03602 31.3297 7.03602 31.0097C7.03602 30.7097 7.27602 30.4397 7.59602 30.4397C7.94602 30.4397 8.25602 30.7397 8.25602 31.2397C8.25602 31.8797 7.89602 32.4697 7.40602 32.8197L7.01602 32.4897ZM11.8671 31.6197C10.0671 31.6197 9.34711 29.8097 9.34711 28.1697C9.34711 26.5197 10.0671 24.7297 11.8671 24.7297C13.6671 24.7297 14.3771 26.5197 14.3771 28.1697C14.3771 29.8097 13.6671 31.6197 11.8671 31.6197ZM11.8671 30.8597C13.0971 30.8597 13.5071 29.4997 13.5071 28.1697C13.5071 26.8397 13.1071 25.4897 11.8671 25.4897C10.6371 25.4897 10.2171 26.8397 10.2171 28.1697C10.2171 29.4997 10.6371 30.8597 11.8671 30.8597ZM17.5214 31.6197C15.7214 31.6197 15.0014 29.8097 15.0014 28.1697C15.0014 26.5197 15.7214 24.7297 17.5214 24.7297C19.3214 24.7297 20.0314 26.5197 20.0314 28.1697C20.0314 29.8097 19.3214 31.6197 17.5214 31.6197ZM17.5214 30.8597C18.7514 30.8597 19.1614 29.4997 19.1614 28.1697C19.1614 26.8397 18.7614 25.4897 17.5214 25.4897C16.2914 25.4897 15.8714 26.8397 15.8714 28.1697C15.8714 29.4997 16.2914 30.8597 17.5214 30.8597ZM23.1757 31.6197C21.3757 31.6197 20.6557 29.8097 20.6557 28.1697C20.6557 26.5197 21.3757 24.7297 23.1757 24.7297C24.9757 24.7297 25.6857 26.5197 25.6857 28.1697C25.6857 29.8097 24.9757 31.6197 23.1757 31.6197ZM23.1757 30.8597C24.4057 30.8597 24.8157 29.4997 24.8157 28.1697C24.8157 26.8397 24.4157 25.4897 23.1757 25.4897C21.9457 25.4897 21.5257 26.8397 21.5257 28.1697C21.5257 29.4997 21.9457 30.8597 23.1757 30.8597Z" fill="#848E9C"/>
<path d="M3.47172 92.5001V86.9501L2.07172 88.4401L1.56172 87.9101L3.57172 85.8301H4.31172V92.5001H3.47172ZM7.01602 93.4901C7.34602 93.2701 7.63602 92.8701 7.67602 92.5301C7.67602 92.5301 7.58602 92.5601 7.53602 92.5601C7.25602 92.5601 7.03602 92.3301 7.03602 92.0101C7.03602 91.7101 7.27602 91.4401 7.59602 91.4401C7.94602 91.4401 8.25602 91.7401 8.25602 92.2401C8.25602 92.8801 7.89602 93.4701 7.40602 93.8201L7.01602 93.4901ZM11.8371 92.6201C10.7171 92.6201 10.0071 92.2101 9.51711 91.5501L10.0271 91.0001C10.4571 91.5501 11.0271 91.8701 11.8271 91.8701C12.7171 91.8701 13.3271 91.2501 13.3271 90.4501C13.3271 89.5701 12.7271 89.0201 11.8471 89.0201C11.2671 89.0201 10.7771 89.2201 10.3471 89.6401L9.72711 89.4301V85.8301H13.7471V86.5801H10.5671V88.8901C10.8871 88.5701 11.4371 88.2801 12.0971 88.2801C13.1971 88.2801 14.1771 89.0401 14.1771 90.4201C14.1771 91.7701 13.1671 92.6201 11.8371 92.6201ZM17.5214 92.6201C15.7214 92.6201 15.0014 90.8101 15.0014 89.1701C15.0014 87.5201 15.7214 85.7301 17.5214 85.7301C19.3214 85.7301 20.0314 87.5201 20.0314 89.1701C20.0314 90.8101 19.3214 92.6201 17.5214 92.6201ZM17.5214 91.8601C18.7514 91.8601 19.1614 90.5001 19.1614 89.1701C19.1614 87.8401 18.7614 86.4901 17.5214 86.4901C16.2914 86.4901 15.8714 87.8401 15.8714 89.1701C15.8714 90.5001 16.2914 91.8601 17.5214 91.8601ZM23.1757 92.6201C21.3757 92.6201 20.6557 90.8101 20.6557 89.1701C20.6557 87.5201 21.3757 85.7301 23.1757 85.7301C24.9757 85.7301 25.6857 87.5201 25.6857 89.1701C25.6857 90.8101 24.9757 92.6201 23.1757 92.6201ZM23.1757 91.8601C24.4057 91.8601 24.8157 90.5001 24.8157 89.1701C24.8157 87.8401 24.4157 86.4901 23.1757 86.4901C21.9457 86.4901 21.5257 87.8401 21.5257 89.1701C21.5257 90.5001 21.9457 91.8601 23.1757 91.8601Z" fill="#848E9C"/>
<circle cx="152" cy="44.5001" r="3" transform="rotate(-90 152 44.5001)" fill="#EAECEF"/>
<defs>
<linearGradient id="paint0_linear_32920_2886" x1="255.792" y1="64.1533" x2="255.792" y2="120.5" gradientUnits="userSpaceOnUse">
<stop stop-color="#FF693D" stop-opacity="0.2"/>
<stop offset="1" stop-color="#FF693D" stop-opacity="0"/>
</linearGradient>
</defs>
</svg>
