<svg width="345" height="121" viewBox="0 0 345 121" fill="none" xmlns="http://www.w3.org/2000/svg">
<path d="M31 44.3999L345 44.3999" stroke="#EDEDED" stroke-width="0.5"/>
<line x1="345" y1="72.25" x2="31" y2="72.25" stroke="#EDEDED" stroke-width="0.5"/>
<line x1="345" y1="120.25" x2="31" y2="120.25" stroke="#EDEDED" stroke-width="0.5"/>
<path d="M3.29172 48.12C2.18172 48.12 1.36172 47.63 0.951719 47.02L1.46172 46.49C1.84172 47.01 2.50172 47.37 3.27172 47.37C4.22172 47.37 4.78172 46.89 4.78172 46.13C4.78172 45.3 4.11172 44.96 3.17172 44.96C2.90172 44.96 2.59172 44.96 2.50172 44.97V44.2C2.61172 44.21 2.91172 44.21 3.17172 44.21C3.99172 44.21 4.68172 43.88 4.68172 43.12C4.68172 42.38 4.02172 41.98 3.23172 41.98C2.52172 41.98 1.99172 42.26 1.51172 42.79L1.04172 42.26C1.51172 41.68 2.28172 41.23 3.30172 41.23C4.56172 41.23 5.52172 41.88 5.52172 43.01C5.52172 43.96 4.75172 44.44 4.11172 44.56C4.71172 44.62 5.62172 45.14 5.62172 46.2C5.62172 47.31 4.74172 48.12 3.29172 48.12ZM7.01602 48.99C7.34602 48.77 7.63602 48.37 7.67602 48.03C7.67602 48.03 7.58602 48.06 7.53602 48.06C7.25602 48.06 7.03602 47.83 7.03602 47.51C7.03602 47.21 7.27602 46.94 7.59602 46.94C7.94602 46.94 8.25602 47.24 8.25602 47.74C8.25602 48.38 7.89602 48.97 7.40602 49.32L7.01602 48.99ZM11.8671 48.12C10.0671 48.12 9.34711 46.31 9.34711 44.67C9.34711 43.02 10.0671 41.23 11.8671 41.23C13.6671 41.23 14.3771 43.02 14.3771 44.67C14.3771 46.31 13.6671 48.12 11.8671 48.12ZM11.8671 47.36C13.0971 47.36 13.5071 46 13.5071 44.67C13.5071 43.34 13.1071 41.99 11.8671 41.99C10.6371 41.99 10.2171 43.34 10.2171 44.67C10.2171 46 10.6371 47.36 11.8671 47.36ZM17.5214 48.12C15.7214 48.12 15.0014 46.31 15.0014 44.67C15.0014 43.02 15.7214 41.23 17.5214 41.23C19.3214 41.23 20.0314 43.02 20.0314 44.67C20.0314 46.31 19.3214 48.12 17.5214 48.12ZM17.5214 47.36C18.7514 47.36 19.1614 46 19.1614 44.67C19.1614 43.34 18.7614 41.99 17.5214 41.99C16.2914 41.99 15.8714 43.34 15.8714 44.67C15.8714 46 16.2914 47.36 17.5214 47.36ZM23.1757 48.12C21.3757 48.12 20.6557 46.31 20.6557 44.67C20.6557 43.02 21.3757 41.23 23.1757 41.23C24.9757 41.23 25.6857 43.02 25.6857 44.67C25.6857 46.31 24.9757 48.12 23.1757 48.12ZM23.1757 47.36C24.4057 47.36 24.8157 46 24.8157 44.67C24.8157 43.34 24.4157 41.99 23.1757 41.99C21.9457 41.99 21.5257 43.34 21.5257 44.67C21.5257 46 21.9457 47.36 23.1757 47.36Z" fill="#909090"/>
<path d="M1.09172 74.32C3.47172 72.39 4.73172 71.31 4.73172 70.19C4.73172 69.35 4.04172 68.99 3.37172 68.99C2.58172 68.99 1.98172 69.32 1.60172 69.82L1.07172 69.28C1.59172 68.6 2.44172 68.23 3.37172 68.23C4.48172 68.23 5.58172 68.87 5.58172 70.18C5.58172 71.52 4.27172 72.73 2.40172 74.25H5.61172V75H1.09172V74.32ZM7.01602 75.99C7.34602 75.77 7.63602 75.37 7.67602 75.03C7.67602 75.03 7.58602 75.06 7.53602 75.06C7.25602 75.06 7.03602 74.83 7.03602 74.51C7.03602 74.21 7.27602 73.94 7.59602 73.94C7.94602 73.94 8.25602 74.24 8.25602 74.74C8.25602 75.38 7.89602 75.97 7.40602 76.32L7.01602 75.99ZM11.8671 75.12C10.5471 75.12 9.49711 74.45 9.49711 73.32C9.49711 72.42 10.2471 71.81 11.0571 71.56C10.2971 71.34 9.60711 70.83 9.60711 69.96C9.60711 68.76 10.7571 68.23 11.8671 68.23C12.9471 68.23 14.1171 68.76 14.1171 69.96C14.1171 70.83 13.4171 71.34 12.6571 71.56C13.4771 71.81 14.2171 72.42 14.2171 73.31C14.2171 74.44 13.1671 75.12 11.8671 75.12ZM11.8671 74.37C12.6571 74.37 13.3671 73.94 13.3671 73.22C13.3671 72.35 12.2571 71.98 11.8671 71.93C11.4671 71.98 10.3471 72.35 10.3471 73.22C10.3471 73.94 11.0471 74.37 11.8671 74.37ZM11.8671 71.22C12.2571 71.15 13.2571 70.87 13.2571 70.07C13.2571 69.38 12.6371 68.98 11.8671 68.98C11.0671 68.98 10.4571 69.38 10.4571 70.07C10.4571 70.87 11.4771 71.15 11.8671 71.22ZM17.5214 75.12C15.7214 75.12 15.0014 73.31 15.0014 71.67C15.0014 70.02 15.7214 68.23 17.5214 68.23C19.3214 68.23 20.0314 70.02 20.0314 71.67C20.0314 73.31 19.3214 75.12 17.5214 75.12ZM17.5214 74.36C18.7514 74.36 19.1614 73 19.1614 71.67C19.1614 70.34 18.7614 68.99 17.5214 68.99C16.2914 68.99 15.8714 70.34 15.8714 71.67C15.8714 73 16.2914 74.36 17.5214 74.36ZM23.1757 75.12C21.3757 75.12 20.6557 73.31 20.6557 71.67C20.6557 70.02 21.3757 68.23 23.1757 68.23C24.9757 68.23 25.6857 70.02 25.6857 71.67C25.6857 73.31 24.9757 75.12 23.1757 75.12ZM23.1757 74.36C24.4057 74.36 24.8157 73 24.8157 71.67C24.8157 70.34 24.4157 68.99 23.1757 68.99C21.9457 68.99 21.5257 70.34 21.5257 71.67C21.5257 73 21.9457 74.36 23.1757 74.36Z" fill="#909090"/>
<path d="M32.5 118.5L68.625 95" stroke="black" stroke-linecap="round" stroke-linejoin="round"/>
<path d="M68.625 95L104.75 71.5L140.875 48L147 44" stroke="black" stroke-linejoin="round" stroke-dasharray="2 2"/>
<path d="M326 85.5L177 24.5L158.938 36.25L147 44" stroke="#FF693D" stroke-linecap="square" stroke-dasharray="2 2"/>
<path d="M245.488 70.144C243.184 70.144 241.348 68.464 241.348 66.004C241.348 63.544 243.184 61.864 245.488 61.864C247.096 61.864 248.092 62.668 248.704 63.616L247.6 64.18C247.192 63.52 246.412 63.016 245.488 63.016C243.916 63.016 242.692 64.264 242.692 66.004C242.692 67.744 243.916 68.992 245.488 68.992C246.412 68.992 247.192 68.5 247.6 67.828L248.716 68.392C248.08 69.352 247.096 70.144 245.488 70.144Z" fill="#FF693D"/>
<path d="M241.392 31L241.392 22.996L244.308 22.996C246.792 22.996 248.472 24.676 248.472 27.004C248.472 29.332 246.792 31 244.308 31L241.392 31ZM244.308 29.86C246.096 29.86 247.14 28.576 247.14 27.004C247.14 25.408 246.144 24.136 244.308 24.136L242.688 24.136L242.688 29.86L244.308 29.86Z" fill="#FF693D"/>
<circle cx="69" cy="95" r="3" transform="rotate(-90 69 95)" fill="black"/>
<path d="M65.09 83L67.77 76.33L68.81 76.33L71.5 83L70.57 83L70 81.52L66.59 81.52L66.02 83L65.09 83ZM66.88 80.77L69.71 80.77L68.29 77.08L66.88 80.77Z" fill="black"/>
<path d="M144.165 61L144.165 52.996L148.005 52.996C149.457 52.996 150.273 53.884 150.273 55.036C150.273 56.044 149.625 56.716 148.881 56.872C149.733 57.004 150.429 57.856 150.429 58.84C150.429 60.088 149.589 61 148.101 61L144.165 61ZM147.813 59.86C148.605 59.86 149.097 59.404 149.097 58.66C149.097 58.036 148.653 57.46 147.813 57.46L145.461 57.46L145.461 59.86L147.813 59.86ZM147.753 56.368C148.509 56.368 148.941 55.888 148.941 55.252C148.941 54.616 148.509 54.136 147.753 54.136L145.461 54.136L145.461 56.368L147.753 56.368Z" fill="#FF693D"/>
<circle cx="245" cy="53" r="2.5" transform="rotate(-90 245 53)" fill="white" stroke="#FF693D"/>
<circle cx="147" cy="44" r="3" transform="rotate(-90 147 44)" fill="#FF693D"/>
<circle cx="245" cy="40" r="3" transform="rotate(-90 245 40)" fill="#FF693D"/>
</svg>
