<svg width="345" height="122" viewBox="0 0 345 122" fill="none" xmlns="http://www.w3.org/2000/svg">
<path d="M32 22.3198H345" stroke="#333B47" stroke-width="0.5"/>
<path d="M31 77.1422L345 77.1422" stroke="#333B47" stroke-width="0.5"/>
<line x1="345" y1="121.25" x2="31" y2="121.25" stroke="#333B47" stroke-width="0.5"/>
<path d="M243.958 77.2708L304 98.4619L326.5 74.7056" stroke="#FF693D" stroke-linecap="square" stroke-dasharray="2 2"/>
<path d="M244 77.1422L178.5 52.1675" stroke="#EAECEF" stroke-linejoin="round" stroke-dasharray="2 2"/>
<path d="M327 1C308.45 9.08802 298.05 13.6226 279.5 21.7107" stroke="#FF693D" stroke-linecap="square" stroke-dasharray="2 2"/>
<path d="M178 51.5584L213 22.9289L244 38.1574L278.811 21.8432" stroke="#EAECEF" stroke-linejoin="round" stroke-dasharray="2 2"/>
<path d="M3.29172 24.4753C2.18172 24.4753 1.36172 23.9853 0.951719 23.3753L1.46172 22.8453C1.84172 23.3653 2.50172 23.7253 3.27172 23.7253C4.22172 23.7253 4.78172 23.2453 4.78172 22.4853C4.78172 21.6553 4.11172 21.3153 3.17172 21.3153C2.90172 21.3153 2.59172 21.3153 2.50172 21.3253V20.5553C2.61172 20.5653 2.91172 20.5653 3.17172 20.5653C3.99172 20.5653 4.68172 20.2353 4.68172 19.4753C4.68172 18.7353 4.02172 18.3353 3.23172 18.3353C2.52172 18.3353 1.99172 18.6153 1.51172 19.1453L1.04172 18.6153C1.51172 18.0353 2.28172 17.5853 3.30172 17.5853C4.56172 17.5853 5.52172 18.2353 5.52172 19.3653C5.52172 20.3153 4.75172 20.7953 4.11172 20.9153C4.71172 20.9753 5.62172 21.4953 5.62172 22.5553C5.62172 23.6653 4.74172 24.4753 3.29172 24.4753ZM7.01602 25.3453C7.34602 25.1253 7.63602 24.7253 7.67602 24.3853C7.67602 24.3853 7.58602 24.4153 7.53602 24.4153C7.25602 24.4153 7.03602 24.1853 7.03602 23.8653C7.03602 23.5653 7.27602 23.2953 7.59602 23.2953C7.94602 23.2953 8.25602 23.5953 8.25602 24.0953C8.25602 24.7353 7.89602 25.3253 7.40602 25.6753L7.01602 25.3453ZM11.8671 24.4753C10.0671 24.4753 9.34711 22.6653 9.34711 21.0253C9.34711 19.3753 10.0671 17.5853 11.8671 17.5853C13.6671 17.5853 14.3771 19.3753 14.3771 21.0253C14.3771 22.6653 13.6671 24.4753 11.8671 24.4753ZM11.8671 23.7153C13.0971 23.7153 13.5071 22.3553 13.5071 21.0253C13.5071 19.6953 13.1071 18.3453 11.8671 18.3453C10.6371 18.3453 10.2171 19.6953 10.2171 21.0253C10.2171 22.3553 10.6371 23.7153 11.8671 23.7153ZM17.5214 24.4753C15.7214 24.4753 15.0014 22.6653 15.0014 21.0253C15.0014 19.3753 15.7214 17.5853 17.5214 17.5853C19.3214 17.5853 20.0314 19.3753 20.0314 21.0253C20.0314 22.6653 19.3214 24.4753 17.5214 24.4753ZM17.5214 23.7153C18.7514 23.7153 19.1614 22.3553 19.1614 21.0253C19.1614 19.6953 18.7614 18.3453 17.5214 18.3453C16.2914 18.3453 15.8714 19.6953 15.8714 21.0253C15.8714 22.3553 16.2914 23.7153 17.5214 23.7153ZM23.1757 24.4753C21.3757 24.4753 20.6557 22.6653 20.6557 21.0253C20.6557 19.3753 21.3757 17.5853 23.1757 17.5853C24.9757 17.5853 25.6857 19.3753 25.6857 21.0253C25.6857 22.6653 24.9757 24.4753 23.1757 24.4753ZM23.1757 23.7153C24.4057 23.7153 24.8157 22.3553 24.8157 21.0253C24.8157 19.6953 24.4157 18.3453 23.1757 18.3453C21.9457 18.3453 21.5257 19.6953 21.5257 21.0253C21.5257 22.3553 21.9457 23.7153 23.1757 23.7153Z" fill="#848E9C"/>
<path d="M3.47172 79.1777V73.6277L2.07172 75.1177L1.56172 74.5877L3.57172 72.5077H4.31172V79.1777H3.47172ZM7.01602 80.1677C7.34602 79.9477 7.63602 79.5477 7.67602 79.2077C7.67602 79.2077 7.58602 79.2377 7.53602 79.2377C7.25602 79.2377 7.03602 79.0077 7.03602 78.6877C7.03602 78.3877 7.27602 78.1177 7.59602 78.1177C7.94602 78.1177 8.25602 78.4177 8.25602 78.9177C8.25602 79.5577 7.89602 80.1477 7.40602 80.4977L7.01602 80.1677ZM11.8371 79.2977C10.7171 79.2977 10.0071 78.8877 9.51711 78.2277L10.0271 77.6777C10.4571 78.2277 11.0271 78.5477 11.8271 78.5477C12.7171 78.5477 13.3271 77.9277 13.3271 77.1277C13.3271 76.2477 12.7271 75.6977 11.8471 75.6977C11.2671 75.6977 10.7771 75.8977 10.3471 76.3177L9.72711 76.1077V72.5077H13.7471V73.2577H10.5671V75.5677C10.8871 75.2477 11.4371 74.9577 12.0971 74.9577C13.1971 74.9577 14.1771 75.7177 14.1771 77.0977C14.1771 78.4477 13.1671 79.2977 11.8371 79.2977ZM17.5214 79.2977C15.7214 79.2977 15.0014 77.4877 15.0014 75.8477C15.0014 74.1977 15.7214 72.4077 17.5214 72.4077C19.3214 72.4077 20.0314 74.1977 20.0314 75.8477C20.0314 77.4877 19.3214 79.2977 17.5214 79.2977ZM17.5214 78.5377C18.7514 78.5377 19.1614 77.1777 19.1614 75.8477C19.1614 74.5177 18.7614 73.1677 17.5214 73.1677C16.2914 73.1677 15.8714 74.5177 15.8714 75.8477C15.8714 77.1777 16.2914 78.5377 17.5214 78.5377ZM23.1757 79.2977C21.3757 79.2977 20.6557 77.4877 20.6557 75.8477C20.6557 74.1977 21.3757 72.4077 23.1757 72.4077C24.9757 72.4077 25.6857 74.1977 25.6857 75.8477C25.6857 77.4877 24.9757 79.2977 23.1757 79.2977ZM23.1757 78.5377C24.4057 78.5377 24.8157 77.1777 24.8157 75.8477C24.8157 74.5177 24.4157 73.1677 23.1757 73.1677C21.9457 73.1677 21.5257 74.5177 21.5257 75.8477C21.5257 77.1777 21.9457 78.5377 23.1757 78.5377Z" fill="#848E9C"/>
<path d="M32.5 120.391L101.269 78.5874L129 91.1523L176.5 52.6598" stroke="#EAECEF" stroke-linecap="round" stroke-linejoin="round"/>
<circle cx="260" cy="30.0001" r="2.5" transform="rotate(-90 260 30.0001)" fill="#202630" stroke="#FF693D"/>
<circle cx="225" cy="70.0001" r="2.5" transform="rotate(-90 225 70.0001)" fill="#202630" stroke="#FF693D"/>
<circle cx="264" cy="84.0001" r="2.5" transform="rotate(-90 264 84.0001)" fill="#202630" stroke="#FF693D"/>
<circle cx="279" cy="22.0001" r="3" transform="rotate(-90 279 22.0001)" fill="#FF693D"/>
<circle cx="298" cy="14.0001" r="2.5" transform="rotate(-90 298 14.0001)" fill="#202630" stroke="#FF693D"/>
<path d="M254.827 48.0001L254.827 41.3301L257.807 41.3301C258.977 41.3301 259.677 42.0301 259.677 43.0301C259.677 43.8701 259.127 44.4301 258.507 44.5601C259.217 44.6701 259.807 45.4001 259.807 46.2001C259.807 47.2701 259.097 48.0001 257.877 48.0001L254.827 48.0001ZM257.707 47.2601C258.477 47.2601 258.937 46.8101 258.937 46.1001C258.937 45.5001 258.517 44.9501 257.707 44.9501L255.667 44.9501L255.667 47.2601L257.707 47.2601ZM257.657 44.2301C258.407 44.2301 258.807 43.7601 258.807 43.1601C258.807 42.5501 258.407 42.0701 257.657 42.0701L255.667 42.0701L255.667 44.2301L257.657 44.2301ZM263.306 48.0001L263.306 42.4501L261.906 43.9401L261.396 43.4101L263.406 41.3301L264.146 41.3301L264.146 48.0001L263.306 48.0001Z" fill="#FF693D"/>
<path d="M276.165 41.0001L276.165 32.9961L280.005 32.9961C281.457 32.9961 282.273 33.8841 282.273 35.0361C282.273 36.0441 281.625 36.7161 280.881 36.8721C281.733 37.0041 282.429 37.8561 282.429 38.8401C282.429 40.0881 281.589 41.0001 280.101 41.0001L276.165 41.0001ZM279.813 39.8601C280.605 39.8601 281.097 39.4041 281.097 38.6601C281.097 38.0361 280.653 37.4601 279.813 37.4601L277.461 37.4601L277.461 39.8601L279.813 39.8601ZM279.753 36.3681C280.509 36.3681 280.941 35.8881 280.941 35.2521C280.941 34.6161 280.509 34.1361 279.753 34.1361L277.461 34.1361L277.461 36.3681L279.753 36.3681Z" fill="#FF693D"/>
<path d="M293.827 31.0001L293.827 24.3301L296.807 24.3301C297.977 24.3301 298.677 25.0301 298.677 26.0301C298.677 26.8701 298.127 27.4301 297.507 27.5601C298.217 27.6701 298.807 28.4001 298.807 29.2001C298.807 30.2701 298.097 31.0001 296.877 31.0001L293.827 31.0001ZM296.707 30.2601C297.477 30.2601 297.937 29.8101 297.937 29.1001C297.937 28.5001 297.517 27.9501 296.707 27.9501L294.667 27.9501L294.667 30.2601L296.707 30.2601ZM296.657 27.2301C297.407 27.2301 297.807 26.7601 297.807 26.1601C297.807 25.5501 297.407 25.0701 296.657 25.0701L294.667 25.0701L294.667 27.2301L296.657 27.2301ZM299.926 30.3201C302.306 28.3901 303.566 27.3101 303.566 26.1901C303.566 25.3501 302.876 24.9901 302.206 24.9901C301.416 24.9901 300.816 25.3201 300.436 25.8201L299.906 25.2801C300.426 24.6001 301.276 24.2301 302.206 24.2301C303.316 24.2301 304.416 24.8701 304.416 26.1801C304.416 27.5201 303.106 28.7301 301.236 30.2501L304.446 30.2501L304.446 31.0001L299.926 31.0001L299.926 30.3201Z" fill="#FF693D"/>
<path d="M222.498 86.1201C220.608 86.1201 219.088 84.7201 219.088 82.6701C219.088 80.6201 220.608 79.2201 222.498 79.2201C223.718 79.2201 224.538 79.8001 225.068 80.5501L224.358 80.9401C223.978 80.3801 223.288 79.9701 222.498 79.9701C221.078 79.9701 219.968 81.0901 219.968 82.6701C219.968 84.2501 221.078 85.3701 222.498 85.3701C223.288 85.3701 223.978 84.9601 224.358 84.4001L225.078 84.7901C224.518 85.5601 223.718 86.1201 222.498 86.1201ZM228.306 86.0001L228.306 80.4501L226.906 81.9401L226.396 81.4101L228.406 79.3301L229.146 79.3301L229.146 86.0001L228.306 86.0001Z" fill="#FF693D"/>
<path d="M244.488 96.1441C242.184 96.1441 240.348 94.4641 240.348 92.0041C240.348 89.5441 242.184 87.8641 244.488 87.8641C246.096 87.8641 247.092 88.6681 247.704 89.6161L246.6 90.1801C246.192 89.5201 245.412 89.0161 244.488 89.0161C242.916 89.0161 241.692 90.2641 241.692 92.0041C241.692 93.7441 242.916 94.9921 244.488 94.9921C245.412 94.9921 246.192 94.5001 246.6 93.8281L247.716 94.3921C247.08 95.3521 246.096 96.1441 244.488 96.1441Z" fill="#FF693D"/>
<path d="M261.498 98.1201C259.608 98.1201 258.088 96.7201 258.088 94.6701C258.088 92.6201 259.608 91.2201 261.498 91.2201C262.718 91.2201 263.538 91.8001 264.068 92.5501L263.358 92.9401C262.978 92.3801 262.288 91.9701 261.498 91.9701C260.078 91.9701 258.968 93.0901 258.968 94.6701C258.968 96.2501 260.078 97.3701 261.498 97.3701C262.288 97.3701 262.978 96.9601 263.358 96.4001L264.078 96.7901C263.518 97.5601 262.718 98.1201 261.498 98.1201ZM264.926 97.3201C267.306 95.3901 268.566 94.3101 268.566 93.1901C268.566 92.3501 267.876 91.9901 267.206 91.9901C266.416 91.9901 265.816 92.3201 265.436 92.8201L264.906 92.2801C265.426 91.6001 266.276 91.2301 267.206 91.2301C268.316 91.2301 269.416 91.8701 269.416 93.1801C269.416 94.5201 268.106 95.7301 266.236 97.2501L269.446 97.2501L269.446 98.0001L264.926 98.0001L264.926 97.3201Z" fill="#FF693D"/>
<circle cx="245" cy="77.0001" r="3" transform="rotate(-90 245 77.0001)" fill="#FF693D"/>
<circle cx="178" cy="52.2134" r="3" transform="rotate(-90 178 52.2134)" fill="#EAECEF"/>
<path d="M174.09 40.0001L176.77 33.3301L177.81 33.3301L180.5 40.0001L179.57 40.0001L179 38.5201L175.59 38.5201L175.02 40.0001L174.09 40.0001ZM175.88 37.7701L178.71 37.7701L177.29 34.0801L175.88 37.7701Z" fill="#EAECEF"/>
</svg>
