<svg width="345" height="122" viewBox="0 0 345 122" fill="none" xmlns="http://www.w3.org/2000/svg">
<path d="M32 22.3198H345" stroke="#EDEDED" stroke-width="0.5"/>
<path d="M31 77.1421L345 77.1421" stroke="#EDEDED" stroke-width="0.5"/>
<line x1="345" y1="121.25" x2="31" y2="121.25" stroke="#EDEDED" stroke-width="0.5"/>
<path d="M244 77.2931L304 98.4619L326.5 74.7056" stroke="#FF693D" stroke-linecap="square" stroke-dasharray="2 2"/>
<path d="M244 77.1421L178.5 52.1675" stroke="black" stroke-linejoin="round" stroke-dasharray="2 2"/>
<path d="M327 1.00003C308.45 9.08805 298.05 13.6227 279.5 21.7107" stroke="#FF693D" stroke-linecap="square" stroke-dasharray="2 2"/>
<path d="M178 51.7095L211.5 22.9289L244 38.1574L279 21.8618" stroke="black" stroke-linejoin="round" stroke-dasharray="2 2"/>
<path d="M3.29172 24.4752C2.18172 24.4752 1.36172 23.9852 0.951719 23.3752L1.46172 22.8452C1.84172 23.3652 2.50172 23.7252 3.27172 23.7252C4.22172 23.7252 4.78172 23.2452 4.78172 22.4852C4.78172 21.6552 4.11172 21.3152 3.17172 21.3152C2.90172 21.3152 2.59172 21.3152 2.50172 21.3252V20.5552C2.61172 20.5652 2.91172 20.5652 3.17172 20.5652C3.99172 20.5652 4.68172 20.2352 4.68172 19.4752C4.68172 18.7352 4.02172 18.3352 3.23172 18.3352C2.52172 18.3352 1.99172 18.6152 1.51172 19.1452L1.04172 18.6152C1.51172 18.0352 2.28172 17.5852 3.30172 17.5852C4.56172 17.5852 5.52172 18.2352 5.52172 19.3652C5.52172 20.3152 4.75172 20.7952 4.11172 20.9152C4.71172 20.9752 5.62172 21.4952 5.62172 22.5552C5.62172 23.6652 4.74172 24.4752 3.29172 24.4752ZM7.01602 25.3452C7.34602 25.1252 7.63602 24.7252 7.67602 24.3852C7.67602 24.3852 7.58602 24.4152 7.53602 24.4152C7.25602 24.4152 7.03602 24.1852 7.03602 23.8652C7.03602 23.5652 7.27602 23.2952 7.59602 23.2952C7.94602 23.2952 8.25602 23.5952 8.25602 24.0952C8.25602 24.7352 7.89602 25.3252 7.40602 25.6752L7.01602 25.3452ZM11.8671 24.4752C10.0671 24.4752 9.34711 22.6652 9.34711 21.0252C9.34711 19.3752 10.0671 17.5852 11.8671 17.5852C13.6671 17.5852 14.3771 19.3752 14.3771 21.0252C14.3771 22.6652 13.6671 24.4752 11.8671 24.4752ZM11.8671 23.7152C13.0971 23.7152 13.5071 22.3552 13.5071 21.0252C13.5071 19.6952 13.1071 18.3452 11.8671 18.3452C10.6371 18.3452 10.2171 19.6952 10.2171 21.0252C10.2171 22.3552 10.6371 23.7152 11.8671 23.7152ZM17.5214 24.4752C15.7214 24.4752 15.0014 22.6652 15.0014 21.0252C15.0014 19.3752 15.7214 17.5852 17.5214 17.5852C19.3214 17.5852 20.0314 19.3752 20.0314 21.0252C20.0314 22.6652 19.3214 24.4752 17.5214 24.4752ZM17.5214 23.7152C18.7514 23.7152 19.1614 22.3552 19.1614 21.0252C19.1614 19.6952 18.7614 18.3452 17.5214 18.3452C16.2914 18.3452 15.8714 19.6952 15.8714 21.0252C15.8714 22.3552 16.2914 23.7152 17.5214 23.7152ZM23.1757 24.4752C21.3757 24.4752 20.6557 22.6652 20.6557 21.0252C20.6557 19.3752 21.3757 17.5852 23.1757 17.5852C24.9757 17.5852 25.6857 19.3752 25.6857 21.0252C25.6857 22.6652 24.9757 24.4752 23.1757 24.4752ZM23.1757 23.7152C24.4057 23.7152 24.8157 22.3552 24.8157 21.0252C24.8157 19.6952 24.4157 18.3452 23.1757 18.3452C21.9457 18.3452 21.5257 19.6952 21.5257 21.0252C21.5257 22.3552 21.9457 23.7152 23.1757 23.7152Z" fill="#909090"/>
<path d="M3.47172 79.1777V73.6277L2.07172 75.1177L1.56172 74.5877L3.57172 72.5077H4.31172V79.1777H3.47172ZM7.01602 80.1677C7.34602 79.9477 7.63602 79.5477 7.67602 79.2077C7.67602 79.2077 7.58602 79.2377 7.53602 79.2377C7.25602 79.2377 7.03602 79.0077 7.03602 78.6877C7.03602 78.3877 7.27602 78.1177 7.59602 78.1177C7.94602 78.1177 8.25602 78.4177 8.25602 78.9177C8.25602 79.5577 7.89602 80.1477 7.40602 80.4977L7.01602 80.1677ZM11.8371 79.2977C10.7171 79.2977 10.0071 78.8877 9.51711 78.2277L10.0271 77.6777C10.4571 78.2277 11.0271 78.5477 11.8271 78.5477C12.7171 78.5477 13.3271 77.9277 13.3271 77.1277C13.3271 76.2477 12.7271 75.6977 11.8471 75.6977C11.2671 75.6977 10.7771 75.8977 10.3471 76.3177L9.72711 76.1077V72.5077H13.7471V73.2577H10.5671V75.5677C10.8871 75.2477 11.4371 74.9577 12.0971 74.9577C13.1971 74.9577 14.1771 75.7177 14.1771 77.0977C14.1771 78.4477 13.1671 79.2977 11.8371 79.2977ZM17.5214 79.2977C15.7214 79.2977 15.0014 77.4877 15.0014 75.8477C15.0014 74.1977 15.7214 72.4077 17.5214 72.4077C19.3214 72.4077 20.0314 74.1977 20.0314 75.8477C20.0314 77.4877 19.3214 79.2977 17.5214 79.2977ZM17.5214 78.5377C18.7514 78.5377 19.1614 77.1777 19.1614 75.8477C19.1614 74.5177 18.7614 73.1677 17.5214 73.1677C16.2914 73.1677 15.8714 74.5177 15.8714 75.8477C15.8714 77.1777 16.2914 78.5377 17.5214 78.5377ZM23.1757 79.2977C21.3757 79.2977 20.6557 77.4877 20.6557 75.8477C20.6557 74.1977 21.3757 72.4077 23.1757 72.4077C24.9757 72.4077 25.6857 74.1977 25.6857 75.8477C25.6857 77.4877 24.9757 79.2977 23.1757 79.2977ZM23.1757 78.5377C24.4057 78.5377 24.8157 77.1777 24.8157 75.8477C24.8157 74.5177 24.4157 73.1677 23.1757 73.1677C21.9457 73.1677 21.5257 74.5177 21.5257 75.8477C21.5257 77.1777 21.9457 78.5377 23.1757 78.5377Z" fill="#909090"/>
<path d="M32.4995 120L100.269 78.5874L128 91.1523L177.5 51.7095" stroke="black" stroke-linecap="round" stroke-linejoin="round"/>
<circle cx="279" cy="22" r="3" transform="rotate(-90 279 22)" fill="#FF693D"/>
<path d="M276.165 41L276.165 32.996L280.005 32.996C281.457 32.996 282.273 33.884 282.273 35.036C282.273 36.044 281.625 36.716 280.881 36.872C281.733 37.004 282.429 37.856 282.429 38.84C282.429 40.088 281.589 41 280.101 41L276.165 41ZM279.813 39.86C280.605 39.86 281.097 39.404 281.097 38.66C281.097 38.036 280.653 37.46 279.813 37.46L277.461 37.46L277.461 39.86L279.813 39.86ZM279.753 36.368C280.509 36.368 280.941 35.888 280.941 35.252C280.941 34.616 280.509 34.136 279.753 34.136L277.461 34.136L277.461 36.368L279.753 36.368Z" fill="#FF693D"/>
<path d="M243.488 96.144C241.184 96.144 239.348 94.464 239.348 92.004C239.348 89.544 241.184 87.864 243.488 87.864C245.096 87.864 246.092 88.668 246.704 89.616L245.6 90.18C245.192 89.52 244.412 89.016 243.488 89.016C241.916 89.016 240.692 90.264 240.692 92.004C240.692 93.744 241.916 94.992 243.488 94.992C244.412 94.992 245.192 94.5 245.6 93.828L246.716 94.392C246.08 95.352 245.096 96.144 243.488 96.144Z" fill="#FF693D"/>
<circle cx="244" cy="77" r="3" transform="rotate(-90 244 77)" fill="#FF693D"/>
<circle cx="178" cy="52" r="3" transform="rotate(-90 178 52)" fill="black"/>
<path d="M174.09 40L176.77 33.33L177.81 33.33L180.5 40L179.57 40L179 38.52L175.59 38.52L175.02 40L174.09 40ZM175.88 37.77L178.71 37.77L177.29 34.08L175.88 37.77Z" fill="black"/>
</svg>
