<svg width="345" height="122" viewBox="0 0 345 122" fill="none" xmlns="http://www.w3.org/2000/svg">
<path d="M32 22.3198H345" stroke="#333B47" stroke-width="0.5"/>
<path d="M31 77.1422L345 77.1422" stroke="#333B47" stroke-width="0.5"/>
<line x1="345" y1="121.25" x2="31" y2="121.25" stroke="#333B47" stroke-width="0.5"/>
<path d="M244 77.2931L304 98.4619L326.5 74.7056" stroke="#FF693D" stroke-linecap="square" stroke-dasharray="2 2"/>
<path d="M244 77.1422L178.5 52.1675" stroke="#EAECEF" stroke-linejoin="round" stroke-dasharray="2 2"/>
<path d="M327 1C308.45 9.08802 298.05 13.6226 279.5 21.7107" stroke="#FF693D" stroke-linecap="square" stroke-dasharray="2 2"/>
<path d="M178 51.7095L211.5 22.9289L244 38.1574L279 21.8618" stroke="#EAECEF" stroke-linejoin="round" stroke-dasharray="2 2"/>
<path d="M3.29172 24.4753C2.18172 24.4753 1.36172 23.9853 0.951719 23.3753L1.46172 22.8453C1.84172 23.3653 2.50172 23.7253 3.27172 23.7253C4.22172 23.7253 4.78172 23.2453 4.78172 22.4853C4.78172 21.6553 4.11172 21.3153 3.17172 21.3153C2.90172 21.3153 2.59172 21.3153 2.50172 21.3253V20.5553C2.61172 20.5653 2.91172 20.5653 3.17172 20.5653C3.99172 20.5653 4.68172 20.2353 4.68172 19.4753C4.68172 18.7353 4.02172 18.3353 3.23172 18.3353C2.52172 18.3353 1.99172 18.6153 1.51172 19.1453L1.04172 18.6153C1.51172 18.0353 2.28172 17.5853 3.30172 17.5853C4.56172 17.5853 5.52172 18.2353 5.52172 19.3653C5.52172 20.3153 4.75172 20.7953 4.11172 20.9153C4.71172 20.9753 5.62172 21.4953 5.62172 22.5553C5.62172 23.6653 4.74172 24.4753 3.29172 24.4753ZM7.01602 25.3453C7.34602 25.1253 7.63602 24.7253 7.67602 24.3853C7.67602 24.3853 7.58602 24.4153 7.53602 24.4153C7.25602 24.4153 7.03602 24.1853 7.03602 23.8653C7.03602 23.5653 7.27602 23.2953 7.59602 23.2953C7.94602 23.2953 8.25602 23.5953 8.25602 24.0953C8.25602 24.7353 7.89602 25.3253 7.40602 25.6753L7.01602 25.3453ZM11.8671 24.4753C10.0671 24.4753 9.34711 22.6653 9.34711 21.0253C9.34711 19.3753 10.0671 17.5853 11.8671 17.5853C13.6671 17.5853 14.3771 19.3753 14.3771 21.0253C14.3771 22.6653 13.6671 24.4753 11.8671 24.4753ZM11.8671 23.7153C13.0971 23.7153 13.5071 22.3553 13.5071 21.0253C13.5071 19.6953 13.1071 18.3453 11.8671 18.3453C10.6371 18.3453 10.2171 19.6953 10.2171 21.0253C10.2171 22.3553 10.6371 23.7153 11.8671 23.7153ZM17.5214 24.4753C15.7214 24.4753 15.0014 22.6653 15.0014 21.0253C15.0014 19.3753 15.7214 17.5853 17.5214 17.5853C19.3214 17.5853 20.0314 19.3753 20.0314 21.0253C20.0314 22.6653 19.3214 24.4753 17.5214 24.4753ZM17.5214 23.7153C18.7514 23.7153 19.1614 22.3553 19.1614 21.0253C19.1614 19.6953 18.7614 18.3453 17.5214 18.3453C16.2914 18.3453 15.8714 19.6953 15.8714 21.0253C15.8714 22.3553 16.2914 23.7153 17.5214 23.7153ZM23.1757 24.4753C21.3757 24.4753 20.6557 22.6653 20.6557 21.0253C20.6557 19.3753 21.3757 17.5853 23.1757 17.5853C24.9757 17.5853 25.6857 19.3753 25.6857 21.0253C25.6857 22.6653 24.9757 24.4753 23.1757 24.4753ZM23.1757 23.7153C24.4057 23.7153 24.8157 22.3553 24.8157 21.0253C24.8157 19.6953 24.4157 18.3453 23.1757 18.3453C21.9457 18.3453 21.5257 19.6953 21.5257 21.0253C21.5257 22.3553 21.9457 23.7153 23.1757 23.7153Z" fill="#848E9C"/>
<path d="M3.47172 79.1777V73.6277L2.07172 75.1177L1.56172 74.5877L3.57172 72.5077H4.31172V79.1777H3.47172ZM7.01602 80.1677C7.34602 79.9477 7.63602 79.5477 7.67602 79.2077C7.67602 79.2077 7.58602 79.2377 7.53602 79.2377C7.25602 79.2377 7.03602 79.0077 7.03602 78.6877C7.03602 78.3877 7.27602 78.1177 7.59602 78.1177C7.94602 78.1177 8.25602 78.4177 8.25602 78.9177C8.25602 79.5577 7.89602 80.1477 7.40602 80.4977L7.01602 80.1677ZM11.8371 79.2977C10.7171 79.2977 10.0071 78.8877 9.51711 78.2277L10.0271 77.6777C10.4571 78.2277 11.0271 78.5477 11.8271 78.5477C12.7171 78.5477 13.3271 77.9277 13.3271 77.1277C13.3271 76.2477 12.7271 75.6977 11.8471 75.6977C11.2671 75.6977 10.7771 75.8977 10.3471 76.3177L9.72711 76.1077V72.5077H13.7471V73.2577H10.5671V75.5677C10.8871 75.2477 11.4371 74.9577 12.0971 74.9577C13.1971 74.9577 14.1771 75.7177 14.1771 77.0977C14.1771 78.4477 13.1671 79.2977 11.8371 79.2977ZM17.5214 79.2977C15.7214 79.2977 15.0014 77.4877 15.0014 75.8477C15.0014 74.1977 15.7214 72.4077 17.5214 72.4077C19.3214 72.4077 20.0314 74.1977 20.0314 75.8477C20.0314 77.4877 19.3214 79.2977 17.5214 79.2977ZM17.5214 78.5377C18.7514 78.5377 19.1614 77.1777 19.1614 75.8477C19.1614 74.5177 18.7614 73.1677 17.5214 73.1677C16.2914 73.1677 15.8714 74.5177 15.8714 75.8477C15.8714 77.1777 16.2914 78.5377 17.5214 78.5377ZM23.1757 79.2977C21.3757 79.2977 20.6557 77.4877 20.6557 75.8477C20.6557 74.1977 21.3757 72.4077 23.1757 72.4077C24.9757 72.4077 25.6857 74.1977 25.6857 75.8477C25.6857 77.4877 24.9757 79.2977 23.1757 79.2977ZM23.1757 78.5377C24.4057 78.5377 24.8157 77.1777 24.8157 75.8477C24.8157 74.5177 24.4157 73.1677 23.1757 73.1677C21.9457 73.1677 21.5257 74.5177 21.5257 75.8477C21.5257 77.1777 21.9457 78.5377 23.1757 78.5377Z" fill="#848E9C"/>
<path d="M32.4995 120L100.269 78.5874L128 91.1523L177.5 51.7095" stroke="#EAECEF" stroke-linecap="round" stroke-linejoin="round"/>
<circle cx="279" cy="22.0001" r="3" transform="rotate(-90 279 22.0001)" fill="#FF693D"/>
<path d="M276.165 41.0001L276.165 32.9961L280.005 32.9961C281.457 32.9961 282.273 33.8841 282.273 35.0361C282.273 36.0441 281.625 36.7161 280.881 36.8721C281.733 37.0041 282.429 37.8561 282.429 38.8401C282.429 40.0881 281.589 41.0001 280.101 41.0001L276.165 41.0001ZM279.813 39.8601C280.605 39.8601 281.097 39.4041 281.097 38.6601C281.097 38.0361 280.653 37.4601 279.813 37.4601L277.461 37.4601L277.461 39.8601L279.813 39.8601ZM279.753 36.3681C280.509 36.3681 280.941 35.8881 280.941 35.2521C280.941 34.6161 280.509 34.1361 279.753 34.1361L277.461 34.1361L277.461 36.3681L279.753 36.3681Z" fill="#FF693D"/>
<path d="M243.488 96.1441C241.184 96.1441 239.348 94.4641 239.348 92.0041C239.348 89.5441 241.184 87.8641 243.488 87.8641C245.096 87.8641 246.092 88.6681 246.704 89.6161L245.6 90.1801C245.192 89.5201 244.412 89.0161 243.488 89.0161C241.916 89.0161 240.692 90.2641 240.692 92.0041C240.692 93.7441 241.916 94.9921 243.488 94.9921C244.412 94.9921 245.192 94.5001 245.6 93.8281L246.716 94.3921C246.08 95.3521 245.096 96.1441 243.488 96.1441Z" fill="#FF693D"/>
<circle cx="244" cy="77.0001" r="3" transform="rotate(-90 244 77.0001)" fill="#FF693D"/>
<circle cx="178" cy="52.0001" r="3" transform="rotate(-90 178 52.0001)" fill="#EAECEF"/>
<path d="M174.09 40.0001L176.77 33.3301L177.81 33.3301L180.5 40.0001L179.57 40.0001L179 38.5201L175.59 38.5201L175.02 40.0001L174.09 40.0001ZM175.88 37.7701L178.71 37.7701L177.29 34.0801L175.88 37.7701Z" fill="#EAECEF"/>
</svg>
