<svg width="345" height="122" viewBox="0 0 345 122" fill="none" xmlns="http://www.w3.org/2000/svg">
<line x1="345" y1="121.25" x2="30" y2="121.25" stroke="#EDEDED" stroke-width="0.5"/>
<path d="M241.5 76.3061L302 98.3469L324.5 74.4694" stroke="#FF693D" stroke-width="0.51" stroke-linecap="square" stroke-dasharray="2 2"/>
<path d="M30 21.8164L345 21.8164" stroke="#EDEDED" stroke-width="0.5"/>
<path d="M247 78.1428L180 52.4285" stroke="black" stroke-linejoin="round" stroke-dasharray="2 2"/>
<path d="M330 1.00002L280.5 21.2041" stroke="#FF693D" stroke-width="0.51" stroke-linecap="square" stroke-dasharray="2 2"/>
<path d="M177 51.356L213.343 21.8163L242 37.4473L280 21.2041" stroke="black" stroke-linejoin="round" stroke-dasharray="2 2"/>
<path d="M30 76.9182L345 76.9182" stroke="#EDEDED" stroke-width="0.5"/>
<path d="M31.5 121L100.269 78.9832L128 91.6122L176.266 51.7721" stroke="black" stroke-linecap="round" stroke-linejoin="round"/>
<path d="M3.29172 25.12C2.18172 25.12 1.36172 24.63 0.951719 24.02L1.46172 23.49C1.84172 24.01 2.50172 24.37 3.27172 24.37C4.22172 24.37 4.78172 23.89 4.78172 23.13C4.78172 22.3 4.11172 21.96 3.17172 21.96C2.90172 21.96 2.59172 21.96 2.50172 21.97V21.2C2.61172 21.21 2.91172 21.21 3.17172 21.21C3.99172 21.21 4.68172 20.88 4.68172 20.12C4.68172 19.38 4.02172 18.98 3.23172 18.98C2.52172 18.98 1.99172 19.26 1.51172 19.79L1.04172 19.26C1.51172 18.68 2.28172 18.23 3.30172 18.23C4.56172 18.23 5.52172 18.88 5.52172 20.01C5.52172 20.96 4.75172 21.44 4.11172 21.56C4.71172 21.62 5.62172 22.14 5.62172 23.2C5.62172 24.31 4.74172 25.12 3.29172 25.12ZM7.01602 25.99C7.34602 25.77 7.63602 25.37 7.67602 25.03C7.67602 25.03 7.58602 25.06 7.53602 25.06C7.25602 25.06 7.03602 24.83 7.03602 24.51C7.03602 24.21 7.27602 23.94 7.59602 23.94C7.94602 23.94 8.25602 24.24 8.25602 24.74C8.25602 25.38 7.89602 25.97 7.40602 26.32L7.01602 25.99ZM11.8671 25.12C10.0671 25.12 9.34711 23.31 9.34711 21.67C9.34711 20.02 10.0671 18.23 11.8671 18.23C13.6671 18.23 14.3771 20.02 14.3771 21.67C14.3771 23.31 13.6671 25.12 11.8671 25.12ZM11.8671 24.36C13.0971 24.36 13.5071 23 13.5071 21.67C13.5071 20.34 13.1071 18.99 11.8671 18.99C10.6371 18.99 10.2171 20.34 10.2171 21.67C10.2171 23 10.6371 24.36 11.8671 24.36ZM17.5214 25.12C15.7214 25.12 15.0014 23.31 15.0014 21.67C15.0014 20.02 15.7214 18.23 17.5214 18.23C19.3214 18.23 20.0314 20.02 20.0314 21.67C20.0314 23.31 19.3214 25.12 17.5214 25.12ZM17.5214 24.36C18.7514 24.36 19.1614 23 19.1614 21.67C19.1614 20.34 18.7614 18.99 17.5214 18.99C16.2914 18.99 15.8714 20.34 15.8714 21.67C15.8714 23 16.2914 24.36 17.5214 24.36ZM23.1757 25.12C21.3757 25.12 20.6557 23.31 20.6557 21.67C20.6557 20.02 21.3757 18.23 23.1757 18.23C24.9757 18.23 25.6857 20.02 25.6857 21.67C25.6857 23.31 24.9757 25.12 23.1757 25.12ZM23.1757 24.36C24.4057 24.36 24.8157 23 24.8157 21.67C24.8157 20.34 24.4157 18.99 23.1757 18.99C21.9457 18.99 21.5257 20.34 21.5257 21.67C21.5257 23 21.9457 24.36 23.1757 24.36Z" fill="#909090"/>
<path d="M3.47172 79V73.45L2.07172 74.94L1.56172 74.41L3.57172 72.33H4.31172V79H3.47172ZM7.01602 79.99C7.34602 79.77 7.63602 79.37 7.67602 79.03C7.67602 79.03 7.58602 79.06 7.53602 79.06C7.25602 79.06 7.03602 78.83 7.03602 78.51C7.03602 78.21 7.27602 77.94 7.59602 77.94C7.94602 77.94 8.25602 78.24 8.25602 78.74C8.25602 79.38 7.89602 79.97 7.40602 80.32L7.01602 79.99ZM11.8371 79.12C10.7171 79.12 10.0071 78.71 9.51711 78.05L10.0271 77.5C10.4571 78.05 11.0271 78.37 11.8271 78.37C12.7171 78.37 13.3271 77.75 13.3271 76.95C13.3271 76.07 12.7271 75.52 11.8471 75.52C11.2671 75.52 10.7771 75.72 10.3471 76.14L9.72711 75.93V72.33H13.7471V73.08H10.5671V75.39C10.8871 75.07 11.4371 74.78 12.0971 74.78C13.1971 74.78 14.1771 75.54 14.1771 76.92C14.1771 78.27 13.1671 79.12 11.8371 79.12ZM17.5214 79.12C15.7214 79.12 15.0014 77.31 15.0014 75.67C15.0014 74.02 15.7214 72.23 17.5214 72.23C19.3214 72.23 20.0314 74.02 20.0314 75.67C20.0314 77.31 19.3214 79.12 17.5214 79.12ZM17.5214 78.36C18.7514 78.36 19.1614 77 19.1614 75.67C19.1614 74.34 18.7614 72.99 17.5214 72.99C16.2914 72.99 15.8714 74.34 15.8714 75.67C15.8714 77 16.2914 78.36 17.5214 78.36ZM23.1757 79.12C21.3757 79.12 20.6557 77.31 20.6557 75.67C20.6557 74.02 21.3757 72.23 23.1757 72.23C24.9757 72.23 25.6857 74.02 25.6857 75.67C25.6857 77.31 24.9757 79.12 23.1757 79.12ZM23.1757 78.36C24.4057 78.36 24.8157 77 24.8157 75.67C24.8157 74.34 24.4157 72.99 23.1757 72.99C21.9457 72.99 21.5257 74.34 21.5257 75.67C21.5257 77 21.9457 78.36 23.1757 78.36Z" fill="#909090"/>
<ellipse cx="177" cy="51.7351" rx="3.01151" ry="3" transform="rotate(-90 177 51.7351)" fill="black"/>
<path d="M218.5 68.8003C218.5 67.4115 219.621 66.2886 221 66.2886C222.379 66.2886 223.5 67.4115 223.5 68.8003C223.5 70.1892 222.379 71.312 221 71.312C219.621 71.312 218.5 70.1892 218.5 68.8003Z" fill="white" stroke="#FF693D"/>
<ellipse cx="245" cy="77.8349" rx="3.01151" ry="3" transform="rotate(-90 245 77.8349)" fill="#FF693D"/>
<path d="M264.5 84.8616C264.5 83.4728 265.621 82.3499 267 82.3499C268.379 82.3499 269.5 83.4728 269.5 84.8616C269.5 86.2504 268.379 87.3733 267 87.3733C265.621 87.3733 264.5 86.2504 264.5 84.8616Z" fill="white" stroke="#FF693D"/>
<path d="M280 17.6047C281.657 17.6047 283 18.953 283 20.6162C283 22.2794 281.657 23.6277 280 23.6277C278.343 23.6277 277 22.2794 277 20.6162C277 18.953 278.343 17.6047 280 17.6047Z" fill="#FF693D"/>
<path d="M173.09 39.6392L175.77 32.9692L176.81 32.9692L179.5 39.6392L178.57 39.6392L178 38.1592L174.59 38.1592L174.02 39.6392L173.09 39.6392ZM174.88 37.4092L177.71 37.4092L176.29 33.7192L174.88 37.4092Z" fill="black"/>
<path d="M219.498 87.1198C217.608 87.1198 216.088 85.7198 216.088 83.6698C216.088 81.6198 217.608 80.2198 219.498 80.2198C220.718 80.2198 221.538 80.7998 222.068 81.5498L221.358 81.9398C220.978 81.3798 220.288 80.9698 219.498 80.9698C218.078 80.9698 216.968 82.0898 216.968 83.6698C216.968 85.2498 218.078 86.3698 219.498 86.3698C220.288 86.3698 220.978 85.9598 221.358 85.3998L222.078 85.7898C221.518 86.5598 220.718 87.1198 219.498 87.1198ZM225.306 86.9998L225.306 81.4498L223.906 82.9398L223.396 82.4098L225.406 80.3298L226.146 80.3298L226.146 86.9998L225.306 86.9998Z" fill="#FF693D"/>
<path d="M244.488 96.998C242.184 96.998 240.348 95.318 240.348 92.858C240.348 90.398 242.184 88.718 244.488 88.718C246.096 88.718 247.092 89.522 247.704 90.47L246.6 91.034C246.192 90.374 245.412 89.87 244.488 89.87C242.916 89.87 241.692 91.118 241.692 92.858C241.692 94.598 242.916 95.846 244.488 95.846C245.412 95.846 246.192 95.354 246.6 94.682L247.716 95.246C247.08 96.206 246.096 96.998 244.488 96.998Z" fill="#FF693D"/>
<path d="M272.567 11.4742L272.567 10.2502L276.755 8.57025L272.567 6.86625L272.567 5.63025L277.931 7.93425L277.931 9.17025L272.567 11.4742ZM272.579 12.8542L272.579 11.8102L277.943 11.8102L277.943 12.8542L272.579 12.8542ZM279.165 12.8542L279.165 4.85025L283.005 4.85025C284.457 4.85025 285.273 5.73825 285.273 6.89025C285.273 7.89825 284.625 8.57025 283.881 8.72625C284.733 8.85825 285.429 9.71025 285.429 10.6942C285.429 11.9422 284.589 12.8542 283.101 12.8542L279.165 12.8542ZM282.813 11.7142C283.605 11.7142 284.097 11.2582 284.097 10.5142C284.097 9.89025 283.653 9.31425 282.813 9.31425L280.461 9.31425L280.461 11.7142L282.813 11.7142ZM282.753 8.22225C283.509 8.22225 283.941 7.74225 283.941 7.10625C283.941 6.47025 283.509 5.99025 282.753 5.99025L280.461 5.99025L280.461 8.22225L282.753 8.22225Z" fill="#FF693D"/>
<path d="M265.498 100.12C263.608 100.12 262.088 98.7198 262.088 96.6698C262.088 94.6198 263.608 93.2198 265.498 93.2198C266.718 93.2198 267.538 93.7998 268.068 94.5498L267.358 94.9398C266.978 94.3798 266.288 93.9698 265.498 93.9698C264.078 93.9698 262.968 95.0898 262.968 96.6698C262.968 98.2498 264.078 99.3698 265.498 99.3698C266.288 99.3698 266.978 98.9598 267.358 98.3998L268.078 98.7898C267.518 99.5598 266.718 100.12 265.498 100.12ZM268.926 99.3198C271.306 97.3898 272.566 96.3098 272.566 95.1898C272.566 94.3498 271.876 93.9898 271.206 93.9898C270.416 93.9898 269.816 94.3198 269.436 94.8198L268.906 94.2798C269.426 93.5998 270.276 93.2298 271.206 93.2298C272.316 93.2298 273.416 93.8698 273.416 95.1798C273.416 96.5198 272.106 97.7298 270.236 99.2498L273.446 99.2498L273.446 99.9998L268.926 99.9998L268.926 99.3198Z" fill="#FF693D"/>
</svg>
