<svg width="345" height="122" viewBox="0 0 345 122" fill="none" xmlns="http://www.w3.org/2000/svg">
    <path d="M29.9988 76.9184H345" stroke="#333B47" stroke-width="0.5"/>
    <path d="M29.9968 21.8163H344.997" stroke="#333B47" stroke-width="0.5"/>
    <line x1="345" y1="121.25" x2="30" y2="121.25" stroke="#333B47" stroke-width="0.5"/>
    <path d="M31.4998 121L100.268 78.9832L128 91.6122L177.074 51.0348" stroke="#EAECEF" stroke-linecap="round" stroke-linejoin="round"/>
    <path d="M241.5 75.0816L303 97.1224L325.5 73.2449" stroke="#FF693D" stroke-linecap="square" stroke-dasharray="2 2"/>
    <path d="M243.5 75.6939L180 52.4286" stroke="#EAECEF" stroke-linejoin="round" stroke-dasharray="2 2"/>
    <path d="M329 1.00002L277 23.0408" stroke="#FF693D" stroke-linecap="square" stroke-dasharray="2 2"/>
    <path d="M176.996 51.1404L212.066 21.8163L242 38.3469L281 21.204" stroke="#EAECEF" stroke-linejoin="round" stroke-dasharray="2 2"/>
    <path d="M3.29147 25.12C2.18147 25.12 1.36147 24.63 0.951475 24.02L1.46147 23.49C1.84147 24.01 2.50147 24.37 3.27147 24.37C4.22147 24.37 4.78147 23.89 4.78147 23.13C4.78147 22.3 4.11147 21.96 3.17147 21.96C2.90147 21.96 2.59147 21.96 2.50147 21.97V21.2C2.61147 21.21 2.91147 21.21 3.17147 21.21C3.99147 21.21 4.68147 20.88 4.68147 20.12C4.68147 19.38 4.02147 18.98 3.23147 18.98C2.52147 18.98 1.99147 19.26 1.51147 19.79L1.04147 19.26C1.51147 18.68 2.28147 18.23 3.30147 18.23C4.56147 18.23 5.52148 18.88 5.52148 20.01C5.52148 20.96 4.75147 21.44 4.11147 21.56C4.71147 21.62 5.62147 22.14 5.62147 23.2C5.62147 24.31 4.74147 25.12 3.29147 25.12ZM7.01577 25.99C7.34577 25.77 7.63577 25.37 7.67577 25.03C7.67577 25.03 7.58577 25.06 7.53577 25.06C7.25577 25.06 7.03577 24.83 7.03577 24.51C7.03577 24.21 7.27577 23.94 7.59577 23.94C7.94577 23.94 8.25577 24.24 8.25577 24.74C8.25577 25.38 7.89577 25.97 7.40577 26.32L7.01577 25.99ZM11.8669 25.12C10.0669 25.12 9.34687 23.31 9.34687 21.67C9.34687 20.02 10.0669 18.23 11.8669 18.23C13.6669 18.23 14.3769 20.02 14.3769 21.67C14.3769 23.31 13.6669 25.12 11.8669 25.12ZM11.8669 24.36C13.0969 24.36 13.5069 23 13.5069 21.67C13.5069 20.34 13.1069 18.99 11.8669 18.99C10.6369 18.99 10.2169 20.34 10.2169 21.67C10.2169 23 10.6369 24.36 11.8669 24.36ZM17.5212 25.12C15.7212 25.12 15.0012 23.31 15.0012 21.67C15.0012 20.02 15.7212 18.23 17.5212 18.23C19.3212 18.23 20.0312 20.02 20.0312 21.67C20.0312 23.31 19.3212 25.12 17.5212 25.12ZM17.5212 24.36C18.7512 24.36 19.1612 23 19.1612 21.67C19.1612 20.34 18.7612 18.99 17.5212 18.99C16.2912 18.99 15.8712 20.34 15.8712 21.67C15.8712 23 16.2912 24.36 17.5212 24.36ZM23.1755 25.12C21.3755 25.12 20.6555 23.31 20.6555 21.67C20.6555 20.02 21.3755 18.23 23.1755 18.23C24.9755 18.23 25.6855 20.02 25.6855 21.67C25.6855 23.31 24.9755 25.12 23.1755 25.12ZM23.1755 24.36C24.4055 24.36 24.8155 23 24.8155 21.67C24.8155 20.34 24.4155 18.99 23.1755 18.99C21.9455 18.99 21.5255 20.34 21.5255 21.67C21.5255 23 21.9455 24.36 23.1755 24.36Z" fill="#848E9C"/>
    <path d="M3.47147 79V73.45L2.07147 74.94L1.56147 74.41L3.57147 72.33H4.31147V79H3.47147ZM7.01577 79.99C7.34577 79.77 7.63577 79.37 7.67577 79.03C7.67577 79.03 7.58577 79.06 7.53577 79.06C7.25577 79.06 7.03577 78.83 7.03577 78.51C7.03577 78.21 7.27577 77.94 7.59577 77.94C7.94577 77.94 8.25577 78.24 8.25577 78.74C8.25577 79.38 7.89577 79.97 7.40577 80.32L7.01577 79.99ZM11.8369 79.12C10.7169 79.12 10.0069 78.71 9.51687 78.05L10.0269 77.5C10.4569 78.05 11.0269 78.37 11.8269 78.37C12.7169 78.37 13.3269 77.75 13.3269 76.95C13.3269 76.07 12.7269 75.52 11.8469 75.52C11.2669 75.52 10.7769 75.72 10.3469 76.14L9.72687 75.93V72.33H13.7469V73.08H10.5669V75.39C10.8869 75.07 11.4369 74.78 12.0969 74.78C13.1969 74.78 14.1769 75.54 14.1769 76.92C14.1769 78.27 13.1669 79.12 11.8369 79.12ZM17.5212 79.12C15.7212 79.12 15.0012 77.31 15.0012 75.67C15.0012 74.02 15.7212 72.23 17.5212 72.23C19.3212 72.23 20.0312 74.02 20.0312 75.67C20.0312 77.31 19.3212 79.12 17.5212 79.12ZM17.5212 78.36C18.7512 78.36 19.1612 77 19.1612 75.67C19.1612 74.34 18.7612 72.99 17.5212 72.99C16.2912 72.99 15.8712 74.34 15.8712 75.67C15.8712 77 16.2912 78.36 17.5212 78.36ZM23.1755 79.12C21.3755 79.12 20.6555 77.31 20.6555 75.67C20.6555 74.02 21.3755 72.23 23.1755 72.23C24.9755 72.23 25.6855 74.02 25.6855 75.67C25.6855 77.31 24.9755 79.12 23.1755 79.12ZM23.1755 78.36C24.4055 78.36 24.8155 77 24.8155 75.67C24.8155 74.34 24.4155 72.99 23.1755 72.99C21.9455 72.99 21.5255 74.34 21.5255 75.67C21.5255 77 21.9455 78.36 23.1755 78.36Z" fill="#848E9C"/>
    <circle cx="177" cy="50.9999" r="3" transform="rotate(-90 177 50.9999)" fill="#EAECEF"/>
    <circle cx="260" cy="29.9999" r="2.5" transform="rotate(-90 260 29.9999)" fill="#202630" stroke="#FF693D"/>
    <circle cx="244" cy="75.9999" r="3" transform="rotate(-90 244 75.9999)" fill="#FF693D"/>
    <circle cx="279" cy="20.9999" r="3" transform="rotate(-90 279 20.9999)" fill="#FF693D"/>
    <circle cx="299" cy="13.9999" r="2.5" transform="rotate(-90 299 13.9999)" fill="#202630" stroke="#FF693D"/>
    <path d="M173.09 38.9999L175.77 32.3299L176.81 32.3299L179.5 38.9999L178.57 38.9999L178 37.5199L174.59 37.5199L174.02 38.9999L173.09 38.9999ZM174.88 36.7699L177.71 36.7699L176.29 33.0799L174.88 36.7699Z" fill="#EAECEF"/>
    <path d="M255.827 47.9999L255.827 41.3299L258.807 41.3299C259.977 41.3299 260.677 42.0299 260.677 43.0299C260.677 43.8699 260.127 44.4299 259.507 44.5599C260.217 44.6699 260.807 45.3999 260.807 46.1999C260.807 47.2699 260.097 47.9999 258.877 47.9999L255.827 47.9999ZM258.707 47.2599C259.477 47.2599 259.937 46.8099 259.937 46.0999C259.937 45.4999 259.517 44.9499 258.707 44.9499L256.667 44.9499L256.667 47.2599L258.707 47.2599ZM258.657 44.2299C259.407 44.2299 259.807 43.7599 259.807 43.1599C259.807 42.5499 259.407 42.0699 258.657 42.0699L256.667 42.0699L256.667 44.2299L258.657 44.2299ZM261.926 47.3199C264.306 45.3899 265.566 44.3099 265.566 43.1899C265.566 42.3499 264.876 41.9899 264.206 41.9899C263.416 41.9899 262.816 42.3199 262.436 42.8199L261.906 42.2799C262.426 41.5999 263.276 41.2299 264.206 41.2299C265.316 41.2299 266.416 41.8699 266.416 43.1799C266.416 44.5199 265.106 45.7299 263.236 47.2499L266.446 47.2499L266.446 47.9999L261.926 47.9999L261.926 47.3199Z" fill="#FF693D"/>
    <path d="M276.165 39.9999L276.165 31.9959L280.005 31.9959C281.457 31.9959 282.273 32.8839 282.273 34.0359C282.273 35.0439 281.625 35.7159 280.881 35.8719C281.733 36.0039 282.429 36.8559 282.429 37.8399C282.429 39.0879 281.589 39.9999 280.101 39.9999L276.165 39.9999ZM279.813 38.8599C280.605 38.8599 281.097 38.4039 281.097 37.6599C281.097 37.0359 280.653 36.4599 279.813 36.4599L277.461 36.4599L277.461 38.8599L279.813 38.8599ZM279.753 35.3679C280.509 35.3679 280.941 34.8879 280.941 34.2519C280.941 33.6159 280.509 33.1359 279.753 33.1359L277.461 33.1359L277.461 35.3679L279.753 35.3679Z" fill="#FF693D"/>
    <path d="M293.827 31.9999L293.827 25.3299L296.807 25.3299C297.977 25.3299 298.677 26.0299 298.677 27.0299C298.677 27.8699 298.127 28.4299 297.507 28.5599C298.217 28.6699 298.807 29.3999 298.807 30.1999C298.807 31.2699 298.097 31.9999 296.877 31.9999L293.827 31.9999ZM296.707 31.2599C297.477 31.2599 297.937 30.8099 297.937 30.0999C297.937 29.4999 297.517 28.9499 296.707 28.9499L294.667 28.9499L294.667 31.2599L296.707 31.2599ZM296.657 28.2299C297.407 28.2299 297.807 27.7599 297.807 27.1599C297.807 26.5499 297.407 26.0699 296.657 26.0699L294.667 26.0699L294.667 28.2299L296.657 28.2299ZM302.306 31.9999L302.306 26.4499L300.906 27.9399L300.396 27.4099L302.406 25.3299L303.146 25.3299L303.146 31.9999L302.306 31.9999Z" fill="#FF693D"/>
    <path d="M237.11 91.3159L237.11 90.0799L242.486 87.7759L242.486 89.0119L238.298 90.7159L242.486 92.3959L242.486 93.6199L237.11 91.3159ZM237.11 94.9999L237.11 93.9559L242.486 93.9559L242.486 94.9999L237.11 94.9999ZM247.488 95.1439C245.184 95.1439 243.348 93.4639 243.348 91.0039C243.348 88.5439 245.184 86.8639 247.488 86.8639C249.096 86.8639 250.092 87.6679 250.704 88.6159L249.6 89.1799C249.192 88.5199 248.412 88.0159 247.488 88.0159C245.916 88.0159 244.692 89.2639 244.692 91.0039C244.692 92.7439 245.916 93.9919 247.488 93.9919C248.412 93.9919 249.192 93.4999 249.6 92.8279L250.716 93.3919C250.08 94.3519 249.096 95.1439 247.488 95.1439Z" fill="#FF693D"/>
</svg>
