<svg width="345" height="121" viewBox="0 0 345 121" fill="none" xmlns="http://www.w3.org/2000/svg">
<path d="M31 88.9224H343" stroke="#FF693D" stroke-linecap="square"/>
<path d="M157.78 13.5002L157.78 6.83024L160.76 6.83024C161.93 6.83024 162.63 7.53024 162.63 8.53024C162.63 9.37024 162.08 9.93024 161.46 10.0602C162.17 10.1702 162.76 10.9002 162.76 11.7002C162.76 12.7702 162.05 13.5002 160.83 13.5002L157.78 13.5002ZM160.66 12.7602C161.43 12.7602 161.89 12.3102 161.89 11.6002C161.89 11.0002 161.47 10.4502 160.66 10.4502L158.62 10.4502L158.62 12.7602L160.66 12.7602ZM160.61 9.73024C161.36 9.73024 161.76 9.26024 161.76 8.66024C161.76 8.05024 161.36 7.57024 160.61 7.57024L158.62 7.57024L158.62 9.73024L160.61 9.73024Z" fill="black"/>
<path d="M157.09 46.3423L159.77 39.6723L160.81 39.6723L163.5 46.3423L162.57 46.3423L162 44.8623L158.59 44.8623L158.02 46.3423L157.09 46.3423ZM158.88 44.1123L161.71 44.1123L160.29 40.4223L158.88 44.1123Z" fill="black"/>
<path d="M250.503 105.107L250.503 104.337L254.943 102.287L254.943 103.107L251.313 104.737L254.943 106.357L254.943 107.167L250.503 105.107ZM250.503 108.237L250.503 107.547L254.943 107.547L254.943 108.237L250.503 108.237ZM259.152 108.357C257.262 108.357 255.742 106.957 255.742 104.907C255.742 102.857 257.262 101.457 259.152 101.457C260.372 101.457 261.192 102.037 261.722 102.787L261.012 103.177C260.632 102.617 259.942 102.207 259.152 102.207C257.732 102.207 256.622 103.327 256.622 104.907C256.622 106.487 257.732 107.607 259.152 107.607C259.942 107.607 260.632 107.197 261.012 106.637L261.732 107.027C261.172 107.797 260.372 108.357 259.152 108.357Z" fill="#FF693D"/>
<circle cx="152" cy="10.6582" r="3" transform="rotate(-90 152 10.6582)" fill="#FF693D"/>
<line x1="345" y1="120.75" x2="30" y2="120.75" stroke="#EDEDED" stroke-width="0.5"/>
<path d="M31.5 119L98.7687 55.0514L121.789 74.5003L152 44.7108" stroke="black" stroke-linecap="round" stroke-linejoin="round"/>
<path d="M254 88.2898L185 13.7635L153 43.4477" stroke="black" stroke-linecap="round" stroke-linejoin="round" stroke-dasharray="2 2"/>
<circle cx="254" cy="88.7117" r="3" transform="rotate(-90 254 88.7117)" fill="#FF693D"/>
<path d="M345 88.9213V120.5H30V88.9213H345Z" fill="url(#paint0_linear_32920_2574)"/>
<path d="M283 94.6056L266.5 102.185L254.5 89.553" stroke="#FF693D" stroke-linecap="square" stroke-dasharray="2 2"/>
<path d="M3.29172 31.62C2.18172 31.62 1.36172 31.13 0.951719 30.52L1.46172 29.99C1.84172 30.51 2.50172 30.87 3.27172 30.87C4.22172 30.87 4.78172 30.39 4.78172 29.63C4.78172 28.8 4.11172 28.46 3.17172 28.46C2.90172 28.46 2.59172 28.46 2.50172 28.47V27.7C2.61172 27.71 2.91172 27.71 3.17172 27.71C3.99172 27.71 4.68172 27.38 4.68172 26.62C4.68172 25.88 4.02172 25.48 3.23172 25.48C2.52172 25.48 1.99172 25.76 1.51172 26.29L1.04172 25.76C1.51172 25.18 2.28172 24.73 3.30172 24.73C4.56172 24.73 5.52172 25.38 5.52172 26.51C5.52172 27.46 4.75172 27.94 4.11172 28.06C4.71172 28.12 5.62172 28.64 5.62172 29.7C5.62172 30.81 4.74172 31.62 3.29172 31.62ZM7.01602 32.49C7.34602 32.27 7.63602 31.87 7.67602 31.53C7.67602 31.53 7.58602 31.56 7.53602 31.56C7.25602 31.56 7.03602 31.33 7.03602 31.01C7.03602 30.71 7.27602 30.44 7.59602 30.44C7.94602 30.44 8.25602 30.74 8.25602 31.24C8.25602 31.88 7.89602 32.47 7.40602 32.82L7.01602 32.49ZM11.8671 31.62C10.0671 31.62 9.34711 29.81 9.34711 28.17C9.34711 26.52 10.0671 24.73 11.8671 24.73C13.6671 24.73 14.3771 26.52 14.3771 28.17C14.3771 29.81 13.6671 31.62 11.8671 31.62ZM11.8671 30.86C13.0971 30.86 13.5071 29.5 13.5071 28.17C13.5071 26.84 13.1071 25.49 11.8671 25.49C10.6371 25.49 10.2171 26.84 10.2171 28.17C10.2171 29.5 10.6371 30.86 11.8671 30.86ZM17.5214 31.62C15.7214 31.62 15.0014 29.81 15.0014 28.17C15.0014 26.52 15.7214 24.73 17.5214 24.73C19.3214 24.73 20.0314 26.52 20.0314 28.17C20.0314 29.81 19.3214 31.62 17.5214 31.62ZM17.5214 30.86C18.7514 30.86 19.1614 29.5 19.1614 28.17C19.1614 26.84 18.7614 25.49 17.5214 25.49C16.2914 25.49 15.8714 26.84 15.8714 28.17C15.8714 29.5 16.2914 30.86 17.5214 30.86ZM23.1757 31.62C21.3757 31.62 20.6557 29.81 20.6557 28.17C20.6557 26.52 21.3757 24.73 23.1757 24.73C24.9757 24.73 25.6857 26.52 25.6857 28.17C25.6857 29.81 24.9757 31.62 23.1757 31.62ZM23.1757 30.86C24.4057 30.86 24.8157 29.5 24.8157 28.17C24.8157 26.84 24.4157 25.49 23.1757 25.49C21.9457 25.49 21.5257 26.84 21.5257 28.17C21.5257 29.5 21.9457 30.86 23.1757 30.86Z" fill="#909090"/>
<path d="M3.47172 92.5002V86.9502L2.07172 88.4402L1.56172 87.9102L3.57172 85.8302H4.31172V92.5002H3.47172ZM7.01602 93.4902C7.34602 93.2702 7.63602 92.8702 7.67602 92.5302C7.67602 92.5302 7.58602 92.5602 7.53602 92.5602C7.25602 92.5602 7.03602 92.3302 7.03602 92.0102C7.03602 91.7102 7.27602 91.4402 7.59602 91.4402C7.94602 91.4402 8.25602 91.7402 8.25602 92.2402C8.25602 92.8802 7.89602 93.4702 7.40602 93.8202L7.01602 93.4902ZM11.8371 92.6202C10.7171 92.6202 10.0071 92.2102 9.51711 91.5502L10.0271 91.0002C10.4571 91.5502 11.0271 91.8702 11.8271 91.8702C12.7171 91.8702 13.3271 91.2502 13.3271 90.4502C13.3271 89.5702 12.7271 89.0202 11.8471 89.0202C11.2671 89.0202 10.7771 89.2202 10.3471 89.6402L9.72711 89.4302V85.8302H13.7471V86.5802H10.5671V88.8902C10.8871 88.5702 11.4371 88.2802 12.0971 88.2802C13.1971 88.2802 14.1771 89.0402 14.1771 90.4202C14.1771 91.7702 13.1671 92.6202 11.8371 92.6202ZM17.5214 92.6202C15.7214 92.6202 15.0014 90.8102 15.0014 89.1702C15.0014 87.5202 15.7214 85.7302 17.5214 85.7302C19.3214 85.7302 20.0314 87.5202 20.0314 89.1702C20.0314 90.8102 19.3214 92.6202 17.5214 92.6202ZM17.5214 91.8602C18.7514 91.8602 19.1614 90.5002 19.1614 89.1702C19.1614 87.8402 18.7614 86.4902 17.5214 86.4902C16.2914 86.4902 15.8714 87.8402 15.8714 89.1702C15.8714 90.5002 16.2914 91.8602 17.5214 91.8602ZM23.1757 92.6202C21.3757 92.6202 20.6557 90.8102 20.6557 89.1702C20.6557 87.5202 21.3757 85.7302 23.1757 85.7302C24.9757 85.7302 25.6857 87.5202 25.6857 89.1702C25.6857 90.8102 24.9757 92.6202 23.1757 92.6202ZM23.1757 91.8602C24.4057 91.8602 24.8157 90.5002 24.8157 89.1702C24.8157 87.8402 24.4157 86.4902 23.1757 86.4902C21.9457 86.4902 21.5257 87.8402 21.5257 89.1702C21.5257 90.5002 21.9457 91.8602 23.1757 91.8602Z" fill="#909090"/>
<circle cx="152" cy="44.5005" r="3" transform="rotate(-90 152 44.5005)" fill="black"/>
<defs>
<linearGradient id="paint0_linear_32920_2574" x1="255.792" y1="64.1535" x2="255.792" y2="120.5" gradientUnits="userSpaceOnUse">
<stop stop-color="#FF693D" stop-opacity="0.2"/>
<stop offset="1" stop-color="#FF693D" stop-opacity="0"/>
</linearGradient>
</defs>
</svg>
