<svg width="32" height="32" viewBox="0 0 32 32" fill="none" xmlns="http://www.w3.org/2000/svg">
<path fill-rule="evenodd" clip-rule="evenodd" d="M18 10C18 13.3137 15.3137 16 12 16C8.68629 16 6 13.3137 6 10C6 6.68629 8.68629 4 12 4C15.3137 4 18 6.68629 18 10ZM12 13.3333C13.841 13.3333 15.3333 11.8409 15.3333 10C15.3333 8.15905 13.841 6.66667 12 6.66667C10.1591 6.66667 8.66667 8.15905 8.66667 10C8.66667 11.8409 10.1591 13.3333 12 13.3333ZM17.3333 25.3333V24C17.3333 22.5272 16.1394 21.3333 14.6667 21.3333H9.33333C7.86057 21.3333 6.66667 22.5272 6.66667 24V25.3333L17.3333 25.3333ZM9.33333 18.6667C6.38781 18.6667 4 21.0545 4 24L4 28L20 28V24C20 21.0545 17.6122 18.6667 14.6667 18.6667H9.33333ZM28 9.33333H21.3333V12H28V9.33333ZM21.3333 14.6667H28L28 17.3333H21.3333L21.3333 14.6667ZM28 4L21.3333 4V6.66667L28 6.66667V4Z" fill="white"/>
</svg>
