<svg width="32" height="32" viewBox="0 0 32 32" fill="none" xmlns="http://www.w3.org/2000/svg">
    <path fill-rule="evenodd" clip-rule="evenodd" d="M14.4881 9.38086L15.2692 10.7337C15.7476 10.6445 16.2434 10.642 16.7316 10.7327L17.512 9.38093L19.8214 10.7143L19.041 12.0661C19.3637 12.4435 19.6094 12.8742 19.7714 13.3331L21.3334 13.3331L21.3334 15.9998H19.772C19.6914 16.227 19.589 16.4501 19.4642 16.6664C19.3393 16.8827 19.1973 17.0829 19.0408 17.2663L19.8215 18.6185L17.5121 19.9518L16.7311 18.5991C16.2526 18.6883 15.7568 18.6908 15.2686 18.6001L14.4881 19.9519L12.1787 18.6185L12.9592 17.2667C12.6365 16.8894 12.3908 16.4587 12.2288 15.9998H10.6667L10.6667 13.3331H12.228C12.3087 13.1059 12.4111 12.8827 12.536 12.6664C12.6609 12.4501 12.8029 12.2498 12.9594 12.0664L12.1787 10.7142L14.4881 9.38086ZM17.3334 16C18.0698 15.2636 18.0698 14.0697 17.3334 13.3333C16.597 12.5969 15.4031 12.5969 14.6667 13.3333C13.9303 14.0697 13.9303 15.2636 14.6667 16C15.4031 16.7364 16.597 16.7364 17.3334 16Z" fill="white"/>
    <path fill-rule="evenodd" clip-rule="evenodd" d="M2.66666 4L2.66666 25.3333H8L8 30.6668H11.2189L16.5524 25.3333H29.3333L29.3333 4L2.66666 4ZM12.7811 25.3333L15.4478 22.6667H26.6667L26.6667 6.66667L5.33333 6.66667L5.33333 22.6667H10.6667V27.4478L12.7811 25.3333Z" fill="white"/>
</svg>