<svg width="24" height="24" viewBox="-1 -1 14 14" fill="none" xmlns="http://www.w3.org/2000/svg">
<path fill-rule="evenodd" clip-rule="evenodd" d="M9.00009 3.00013L12 6.00004L9.00009 9.00012C7.34321 10.657 4.65684 10.657 2.99994 9.00014L0 6.00004L2.99994 3.0001C4.65684 1.3432 7.34321 1.34325 9.00009 3.00013ZM8 6C8 7.10457 7.10457 8 6 8C4.89543 8 4 7.10457 4 6C4 4.89543 4.89543 4 6 4C6.02839 4 6.05663 4.00059 6.08473 4.00176C6.02985 4.15765 6 4.32534 6 4.5C6 5.32843 6.67157 6 7.5 6C7.67466 6 7.84235 5.97015 7.99824 5.91527C7.99941 5.94337 8 5.97161 8 6Z" fill="white"/>
</svg>
