<svg width="96" height="96" viewBox="0 0 96 96" fill="none" xmlns="http://www.w3.org/2000/svg">
    <defs>
        <linearGradient id="paint0_linear_17292_160822" x1="22" y1="12" x2="22" y2="4" gradientUnits="userSpaceOnUse">
            <stop stop-color="#02C076"/>
            <stop offset="1" stop-color="#28D294"/>
        </linearGradient>
        <linearGradient id="paint1_linear_17292_160822" x1="88" y1="79" x2="88" y2="73" gradientUnits="userSpaceOnUse">
            <stop stop-color="#02C076"/>
            <stop offset="1" stop-color="#28D294"/>
        </linearGradient>
        <linearGradient id="paint2_linear_17292_160822" x1="88" y1="22" x2="88" y2="18" gradientUnits="userSpaceOnUse">
            <stop stop-color="#02C076"/>
            <stop offset="1" stop-color="#28D294"/>
        </linearGradient>
        <linearGradient id="paint3_linear_17292_160822" x1="8" y1="48" x2="88" y2="48" gradientUnits="userSpaceOnUse">
            <stop stop-color="#28D294" stop-opacity="0"/>
            <stop offset="1" stop-color="#28D294"/>
        </linearGradient>
        <linearGradient id="paint4_linear_17292_160822" x1="3" y1="50" x2="3" y2="44" gradientUnits="userSpaceOnUse">
            <stop stop-color="#02C076"/>
            <stop offset="1" stop-color="#28D294"/>
        </linearGradient>
        <linearGradient id="paint5_linear_17292_160822" x1="29" y1="0" x2="29" y2="58" gradientUnits="userSpaceOnUse">
            <stop stop-color="#02C076"/>
            <stop offset="1" stop-color="#28D294"/>
        </linearGradient>
    </defs>
<path d="M18 8L22 12L26 8L22 4L18 8Z" fill="url(#paint0_linear_17292_160822)"/>
<path d="M85 76L88 79L91 76L88 73L85 76Z" fill="url(#paint1_linear_17292_160822)"/>
<path d="M86 20L88 22L90 20L88 18L86 20Z" fill="url(#paint2_linear_17292_160822)"/>
<path fill-rule="evenodd" clip-rule="evenodd" d="M88 48C88 70.0914 70.0914 88 48 88C25.9086 88 8 70.0914 8 48C8 25.9086 25.9086 8 48 8C70.0914 8 88 25.9086 88 48Z" fill="url(#paint3_linear_17292_160822)"/>
<path d="M0 47L3 50L6 47L3 44L0 47Z" fill="url(#paint4_linear_17292_160822)"/>
<circle r="29" transform="matrix(1 0 0 -1 48 48)" fill="url(#paint5_linear_17292_160822)"/>
<path d="M43.4749 61L31.0002 48.3353L35.1581 44.1241L43.4749 52.547L59.8119 36L64 40.2413L43.4749 61Z" fill="white"/>
</svg>
