<svg width="64" height="64" viewBox="0 0 64 64" fill="none" xmlns="http://www.w3.org/2000/svg">
    <defs>
        <linearGradient id="paint0_linear_16018_6516" x1="14" y1="33.333" x2="22.6667" y2="33.333" gradientUnits="userSpaceOnUse">
            <stop stop-color="#76808F"/>
            <stop offset="1" stop-color="#929AA5"/>
        </linearGradient>
        <linearGradient id="paint1_linear_16018_6516" x1="25.9998" y1="27.2596" x2="58.6665" y2="27.2596" gradientUnits="userSpaceOnUse">
            <stop stop-color="#FAFAFA"/>
            <stop offset="1" stop-color="#E6E8EA"/>
        </linearGradient>
        <linearGradient id="paint2_linear_16018_6516" x1="41.3335" y1="40.667" x2="61.3335" y2="40.667" gradientUnits="userSpaceOnUse">
            <stop stop-color="#F0B90B"/>
            <stop offset="1" stop-color="#F8D33A"/>
        </linearGradient>
    </defs>
    <path d="M53.3335 17.333H5.3335V53.333H53.3335V17.333Z" fill="#76808F"/>
    <rect x="14" y="33.333" width="8.66667" height="4" transform="rotate(-180 14 33.333)" fill="url(#paint0_linear_16018_6516)"/>
    <path fill-rule="evenodd" clip-rule="evenodd" d="M58.6665 48H10.6665V10.6667H58.6665V48Z" fill="#CACED3"/>
    <path d="M24.6665 48.0003H28.6665L28.6665 30.163L33.8381 35.3348L36.6665 32.5063L31.4938 27.3337L58.6665 27.3337V23.3337L31.4956 23.3337L36.6665 18.1626L33.8384 15.3337V15.3345L28.6665 20.5063L28.6665 10.667L24.6665 10.667L24.6665 20.5063L19.4946 15.3345V15.3337L16.6665 18.1626L21.8374 23.3337L10.6665 23.3337V27.3337L21.8392 27.3337L16.6665 32.5063L19.4949 35.3348L24.6665 30.163L24.6665 48.0003Z" fill="url(#paint1_linear_16018_6516)"/>
    <path d="M51.3335 30.667C45.8107 30.667 41.3335 35.1441 41.3335 40.667C41.3335 46.1898 45.8106 50.667 51.3335 50.667C56.8563 50.667 61.3335 46.1898 61.3335 40.667C61.3335 35.1441 56.8563 30.667 51.3335 30.667Z" fill="url(#paint2_linear_16018_6516)"/>
    <path d="M52.3335 46.667H50.3335V44.667H52.3335V46.667Z" fill="#14151A"/>
    <path d="M50.3335 42.667V34.667H52.3335V42.667L50.3335 42.667Z" fill="#14151A"/>
</svg>
