<svg width="24" height="24" viewBox="0 0 24 24" fill="none" xmlns="http://www.w3.org/2000/svg">
<path fill-rule="evenodd" clip-rule="evenodd" d="M4.5 3.5H12.25L17.5 7.80421V9.99816C16.7304 9.67723 15.8859 9.5 15 9.5C11.4101 9.5 8.5 12.4101 8.5 16C8.5 17.7465 9.1888 19.3321 10.3096 20.5H4.5V3.5ZM19.5 16C19.5 18.4853 17.4853 20.5 15 20.5C12.5147 20.5 10.5 18.4853 10.5 16C10.5 13.5147 12.5147 11.5 15 11.5C17.4853 11.5 19.5 13.5147 19.5 16ZM15.71 13.125H13.71V17.125L16.741 18.875L17.741 17.1429L15.71 15.9703V13.125Z" fill="#202630"/>
</svg>
