<svg width="40" height="23" viewBox="0 0 40 23" fill="none" xmlns="http://www.w3.org/2000/svg">
<rect width="40" height="20" rx="10" fill="#F6465D"/>
<path d="M17 20H23L20 23L17 20Z" fill="#F6465D"/>
<path d="M8.94742 5.432V14H10.2554V7.556H10.3034L14.7314 14H16.0034V5.432H14.6954V11.804H14.6474L10.2674 5.432H8.94742ZM20.1976 7.628C19.2856 7.628 18.5536 7.94 18.0256 8.576C17.4736 9.2 17.2096 9.968 17.2096 10.892C17.2096 11.912 17.4976 12.716 18.0736 13.316C18.6016 13.88 19.3336 14.168 20.2456 14.168C21.0736 14.168 21.7576 13.928 22.2976 13.46C22.7296 13.076 23.0056 12.584 23.1496 12.008H21.8776C21.7096 12.368 21.5296 12.644 21.3136 12.812C21.0376 13.016 20.6776 13.124 20.2336 13.124C19.7296 13.124 19.3336 12.956 19.0456 12.644C18.7576 12.32 18.6016 11.852 18.5536 11.252H23.2576C23.2456 10.148 22.9936 9.284 22.5136 8.66C21.9856 7.964 21.2056 7.628 20.1976 7.628ZM20.2336 8.672C21.2416 8.672 21.8056 9.212 21.9256 10.292H18.5776C18.6496 9.764 18.8296 9.368 19.0936 9.092C19.3816 8.804 19.7536 8.672 20.2336 8.672ZM23.683 7.796L25.783 14H26.959L28.255 9.356L29.551 14H30.727L32.827 7.796H31.423L30.115 12.488L28.843 7.796H27.667L26.395 12.488L25.087 7.796H23.683Z" fill="white"/>
</svg>
