<svg width="120" height="120" viewBox="0 0 120 120" fill="none" xmlns="http://www.w3.org/2000/svg">
    <defs>
        <linearGradient id="paint0_linear_18925_171442" x1="35" y1="0" x2="35" y2="70" gradientUnits="userSpaceOnUse">
            <stop stop-color="#F0B90B"/>
            <stop offset="1" stop-color="#F8D33A"/>
        </linearGradient>
    </defs>
<circle r="35" transform="matrix(1 0 0 -1 60 64.0001)" fill="url(#paint0_linear_18925_171442)"/>
<circle r="3.88889" transform="matrix(1 0 0 -1 45.9992 56.2204)" fill="#9C7000"/>
<circle r="3.88889" transform="matrix(1 0 0 -1 73.9992 56.2204)" fill="#9C7000"/>
<ellipse rx="8.8" ry="11" transform="matrix(1 0 0 -1 60.2443 76.5574)" fill="#9C7000"/>
<path d="M24 14.0001L27 11.0001L30 14.0001L27 17.0001L24 14.0001Z" fill="#AEB4BC"/>
<path d="M8 35.5001L11.5 32.0001L15 35.5001L11.5 39.0001L8 35.5001Z" fill="#F8D33A"/>
<path d="M9 104L13 100L17 104L13 108L9 104Z" fill="#CACED3"/>
<path d="M100 26.0001L106 20.0001L112 26.0001L106 32.0001L100 26.0001Z" fill="#AEB4BC"/>
<path d="M104 88.5001L108.5 84.0001L113 88.5001L108.5 93.0001L104 88.5001Z" fill="#D0980B"/>
</svg>
