<svg width="205" height="124" viewBox="0 0 205 124" fill="none" xmlns="http://www.w3.org/2000/svg">
    <defs>
        <linearGradient id="paint0_linear_18925_171311" x1="138.704" y1="55.5985" x2="128.2" y2="66.1023" gradientUnits="userSpaceOnUse">
            <stop/>
            <stop offset="1" stop-opacity="0"/>
        </linearGradient>
        <linearGradient id="paint1_linear_18925_171311" x1="158.609" y1="124.527" x2="144.719" y2="124.527" gradientUnits="userSpaceOnUse">
            <stop/>
            <stop offset="1" stop-opacity="0"/>
        </linearGradient>
        <linearGradient id="paint2_linear_18925_171311" x1="163.015" y1="101.319" x2="163.015" y2="60.848" gradientUnits="userSpaceOnUse">
            <stop/>
            <stop offset="1" stop-opacity="0"/>
        </linearGradient>
        <linearGradient id="paint3_linear_18925_171311" x1="163.347" y1="24.1754" x2="179.171" y2="8.35121" gradientUnits="userSpaceOnUse">
            <stop/>
            <stop offset="1" stop-opacity="0"/>
        </linearGradient>
        <linearGradient id="paint4_linear_18925_171311" x1="159.517" y1="30.2524" x2="137.336" y2="52.4334" gradientUnits="userSpaceOnUse">
            <stop/>
            <stop offset="1" stop-opacity="0"/>
        </linearGradient>
        <clipPath id="clip0_18925_171311">
            <rect width="204" height="124" fill="white" transform="translate(0.00195312)"/>
        </clipPath>
    </defs>
<g clip-path="url(#clip0_18925_171311)">
<path d="M46.733 12.7721L53.551 10.578L56.9367 21.0989L61.9823 11.2651L68.3548 14.5348L63.31 24.3671L73.8293 20.982L76.0234 27.8001L38.5241 39.8676L36.3301 33.0495L46.8502 29.6641L37.0186 24.6196L40.2882 18.2471L50.1178 23.2905L46.733 12.7721Z" fill="#FC6E75"/>
<g style="mix-blend-mode:screen">
<path fill-rule="evenodd" clip-rule="evenodd" d="M126.253 52.2692L118.791 44.8067L110.688 52.91L121.207 63.4293C127.298 69.5206 137.713 65.2065 137.713 56.5921L137.713 41.1114L126.253 41.1114L126.253 52.2692Z" fill="white"/>
</g>
<path opacity="0.1" fill-rule="evenodd" clip-rule="evenodd" d="M126.253 52.2692L118.791 44.8067L110.688 52.91L121.207 63.4293C127.298 69.5206 137.713 65.2065 137.713 56.5921L137.713 41.1114L126.253 41.1114L126.253 52.2692Z" fill="url(#paint0_linear_18925_171311)"/>
<path d="M142.851 8.78805C142.851 11.1615 140.927 13.0855 138.553 13.0855H134.256V8.78805C134.256 6.41464 136.18 4.4906 138.553 4.4906C140.927 4.4906 142.851 6.41464 142.851 8.78805Z" fill="#0B0E11"/>
<path d="M138.914 20.6592C138.914 15.5168 134.745 11.348 129.603 11.348C124.461 11.348 120.292 15.5168 120.292 20.6592L138.914 20.6592Z" fill="#0B0E11"/>
<path d="M158.609 114.434L148.638 114.434L138.555 124.461L158.609 124.461L158.609 114.434Z" fill="#2B2F36"/>
<g style="mix-blend-mode:soft-light" opacity="0.6">
<path d="M158.609 114.434L148.638 114.434L138.555 124.461L158.609 124.461L158.609 114.434Z" fill="url(#paint1_linear_18925_171311)"/>
</g>
<path d="M158.609 114.434L158.609 104.406L148.582 104.406L148.582 114.434L158.609 114.434Z" fill="#FC6E75"/>
<path fill-rule="evenodd" clip-rule="evenodd" d="M159.281 44.7772L152.357 51.7019C149.939 54.1196 148.581 57.3989 148.581 60.8181L148.581 104.406H162.905L162.905 61.4115L169.41 54.9064L159.281 44.7772Z" fill="#2B2F36"/>
<g style="mix-blend-mode:soft-light" opacity="0.6">
<path fill-rule="evenodd" clip-rule="evenodd" d="M159.281 44.7772L152.357 51.7019C149.939 54.1196 148.581 57.3989 148.581 60.8181L148.581 104.406H162.905L162.905 61.4115L169.41 54.9064L159.281 44.7772Z" fill="url(#paint2_linear_18925_171311)"/>
</g>
<path fill-rule="evenodd" clip-rule="evenodd" d="M152.056 43.8802L160.757 52.5805L160.757 104.406H175.082L175.082 52.5805C175.082 48.7813 173.572 45.1378 170.886 42.4513L162.186 33.751L152.056 43.8802Z" fill="#2B2F36"/>
<path d="M120.299 20.6061C120.299 25.7485 124.468 29.9172 129.61 29.9172C134.752 29.9172 138.921 25.7485 138.921 20.6061L120.299 20.6061Z" fill="#CB8C54"/>
<path d="M102.383 46.3907L102.383 36.3634L112.41 36.3634L112.41 46.3907L102.383 46.3907Z" fill="#CB8C54"/>
<path fill-rule="evenodd" clip-rule="evenodd" d="M148.331 19.1705L159.309 8.13924C166.52 0.893104 178.892 6.00018 178.892 16.2232L178.892 26.3778L167.432 26.3777L167.432 16.2231L156.454 27.2543L148.331 19.1705Z" fill="white"/>
<path d="M178.652 35.5743L172.01 42.2162L165.369 35.5743L172.01 28.9324L178.652 35.5743Z" fill="#CB8C54"/>
<path d="M132.109 35.3238H139.698V27.7351L148.598 18.835L170.903 41.1399L148.598 63.4448L126.293 41.1399L132.109 35.3238Z" fill="#FCEA9C"/>
<path d="M132.109 35.3238H139.698V27.7351L148.598 18.835L170.903 41.1399L148.598 63.4448L126.293 41.1399L132.109 35.3238Z" fill="white"/>
<path opacity="0.05" fill-rule="evenodd" clip-rule="evenodd" d="M148.331 19.1705L159.309 8.13927C166.52 0.893135 178.892 6.00021 178.892 16.2232L178.892 26.3778L167.432 26.3777L167.432 16.2231L156.454 27.2543L148.331 19.1705Z" fill="url(#paint3_linear_18925_171311)"/>
<path opacity="0.05" d="M132.109 35.3238H139.698V27.7351L148.598 18.835L170.903 41.1399L148.598 63.4449L126.293 41.1399L132.109 35.3238Z" fill="url(#paint4_linear_18925_171311)"/>
<path d="M170.785 114.434L160.813 114.434L150.73 124.461L170.785 124.461L170.785 114.434Z" fill="#2B2F36"/>
<path d="M170.785 114.434L170.785 104.406L160.758 104.406L160.758 114.434L170.785 114.434Z" fill="#FC6E75"/>
<path d="M29.3262 59.9993H107.397V124.461H29.3262V59.9993Z" fill="#F5F5F5"/>
<path d="M15.002 47.4371L102.955 19.1337L107.343 32.7687L19.3897 61.0722L15.002 47.4371Z" fill="white"/>
<path d="M61.1992 59.9993H75.5241V124.461H61.1992V59.9993Z" fill="#FC6E75"/>
<path d="M50.4551 36.0289L64.0913 31.6408L68.4791 45.2762L54.843 49.6643L50.4551 36.0289Z" fill="#FC6E75"/>
<path d="M82.6875 12.9063L84.299 11.2948L85.9106 12.9063L84.299 14.5179L82.6875 12.9063Z" fill="#FF7E0D"/>
<path d="M76.957 51.4043L79.1058 49.2556L81.2545 51.4043L79.1058 53.5531L76.957 51.4043Z" fill="#F8D33A"/>
<path d="M113.484 68.9523L115.275 67.1617L117.066 68.9523L115.275 70.743L113.484 68.9523Z" fill="white"/>
<path d="M103.1 2.34184L105.248 0.193115L107.397 2.34184L105.248 4.49057L103.1 2.34184Z" fill="white"/>
<path d="M108.471 22.9338L111.515 19.8898L114.559 22.9338L111.515 25.9778L108.471 22.9338Z" fill="#FF7E0D"/>
</g>
</svg>
