<svg width="16" height="16" viewBox="0 0 16 16" fill="none" xmlns="http://www.w3.org/2000/svg">
<rect width="16" height="16" rx="8" fill="#F84960"/>
<path fill-rule="evenodd" clip-rule="evenodd" d="M7.99999 3.29419C6.9604 3.29419 6.11764 4.13695 6.11764 5.17654V8.00007C6.11764 8.34918 6.21267 8.67609 6.37829 8.95634L5.69849 9.63613C5.36979 9.17456 5.17646 8.60989 5.17646 8.00007V6.58831H4.23529V8.00007C4.23529 8.87007 4.53039 9.67115 5.02597 10.3087L3.29504 12.0396L3.96056 12.7051L5.69149 10.9742L6.36405 10.3017L7.04382 9.62183L7.75631 8.9094L12.705 3.96062L12.0395 3.29511L9.88235 5.45228V5.17654C9.88235 4.13695 9.03959 3.29419 7.99999 3.29419Z" fill="white"/>
<path d="M7.17979 10.7026L6.45035 11.4321C6.78661 11.5841 7.1492 11.6882 7.5294 11.7357V13.1765H8.47058V11.7357C10.3277 11.5041 11.7647 9.91989 11.7647 8.00007V6.58831H11.2941L10.8235 7.0589V8.00007C10.8235 9.55946 9.55938 10.8236 7.99999 10.8236C7.71473 10.8236 7.43936 10.7813 7.17979 10.7026Z" fill="white"/>
<path d="M7.99999 9.88243C9.03959 9.88243 9.88235 9.03967 9.88235 8.00007L7.99999 9.88243Z" fill="white"/>
</svg>
