<svg width="20" height="20" viewBox="0 0 20 20" fill="none" xmlns="http://www.w3.org/2000/svg">
<path fill-rule="evenodd" clip-rule="evenodd" d="M17.5 3.15967H2.43335V14.724H5.7815V18.8541L9.96668 14.724H17.5V3.15967ZM10.0917 6.38198C9.72197 6.38198 9.42224 6.68171 9.42224 7.05145V7.31924H8.08329V7.05145C8.08329 5.94223 8.98249 5.04303 10.0917 5.04303C11.2009 5.04303 12.1001 5.94223 12.1001 7.05145C12.1001 7.60588 11.8746 8.1089 11.5119 8.47162L10.7612 9.22231V9.99713H9.42224V8.6677L10.5651 7.52484C10.687 7.40296 10.7612 7.23651 10.7612 7.05145C10.7612 6.68171 10.4615 6.38198 10.0917 6.38198ZM9.42224 12.4072V11.0683H10.7612V12.4072H9.42224Z" fill="#F84960"/>
</svg>
