<svg width="134" height="203" viewBox="0 0 134 203" fill="none" xmlns="http://www.w3.org/2000/svg">
<path d="M73.5221 39.6728L56.9564 10.9802L31.3912 25.7403L47.9569 54.4329L8.49702 43.9329L0.82053 72.3847L33.568 81.0986L0.51502 100.182L15.224 125.658L72.7458 92.4483L58.0368 66.9715L79.3411 54.6715L94.0501 80.1482L151.572 46.938L136.863 21.4613L103.81 40.5445L112.637 7.82741L84.1588 0.249585L73.5221 39.6728Z" fill="#FFEDE2"/>
<path d="M27.4815 146.889L59.3511 202.089L116.873 168.879L85.0033 113.679L27.4815 146.889Z" fill="#FFEDE2"/>
<path d="M138.177 156.578L195.699 123.368L163.829 68.1686L106.308 101.379L138.177 156.578Z" fill="#FFEDE2"/>
</svg>
