<svg width="78" height="88" viewBox="0 0 78 88" fill="none" xmlns="http://www.w3.org/2000/svg">
<path d="M56.8109 23.58L63.9657 11.1875L52.9239 4.81248L45.7691 17.205L41.175 0.177826L28.875 3.45075L32.6876 17.5815L18.4118 9.33936L12.0588 20.343L36.9029 34.6867L43.2559 23.6831L52.4574 28.9956L46.1044 39.9992L70.9486 54.343L77.3015 43.3394L63.0256 35.0972L77.1695 31.3336L73.8539 19.045L56.8109 23.58Z" fill="#FFEDE2"/>
<path d="M6.76471 29.5127L-7 53.3538L17.8441 67.6976L31.6088 43.8564L6.76471 29.5127Z" fill="#FFEDE2"/>
<path d="M27.0456 73.0101L51.8897 87.3538L65.6544 63.5127L40.8103 49.1689L27.0456 73.0101Z" fill="#FFEDE2"/>
</svg>
