<svg width="24" height="24" viewBox="0 0 24 24" fill="none" xmlns="http://www.w3.org/2000/svg">
<path fill-rule="evenodd" clip-rule="evenodd" d="M14.5 16C18.0898 16 21 13.0899 21 9.5C21 5.91015 18.0898 3 14.5 3C10.9101 3 7.99998 5.91015 7.99998 9.5C7.99998 10.7359 8.34492 11.8913 8.94378 12.875L6.24529 15.5735L3.99611 13.3244L1.88567 15.4348L4.13484 17.684L1.88281 19.936L4.00452 22.0577L6.25655 19.8057L8.50562 22.0548L10.6161 19.9443L8.36699 17.6952L11.0514 15.0108C12.051 15.6376 13.2332 16 14.5 16ZM14.5 13C16.433 13 18 11.433 18 9.5C18 7.567 16.433 6 14.5 6C12.567 6 11 7.567 11 9.5C11 11.433 12.567 13 14.5 13Z" fill="#FC6E75"/>
</svg>
