<svg width="24" height="24" viewBox="0 0 24 24" fill="none" xmlns="http://www.w3.org/2000/svg">
<path fill-rule="evenodd" clip-rule="evenodd" d="M18 3H12V6H15.7753L12.8479 8.92736C11.8701 8.33863 10.7246 8 9.5 8C5.91015 8 3 10.9101 3 14.5C3 18.0898 5.91015 21 9.5 21C13.0899 21 16 18.0898 16 14.5C16 13.2232 15.6319 12.0324 14.9959 11.0279L18 8.02381V12H21V6V3H18ZM13 14.5C13 16.433 11.433 18 9.5 18C7.567 18 6 16.433 6 14.5C6 12.567 7.567 11 9.5 11C11.433 11 13 12.567 13 14.5Z" fill="#328DFD"/>
</svg>
