<svg width="24" height="24" viewBox="0 0 24 24" fill="none" xmlns="http://www.w3.org/2000/svg">
<path d="M12.7 11.2998C13.5 12.0998 13.5 13.3998 12.7 14.1998L10.1 16.7998C9.3 17.5998 8 17.5998 7.1 16.7998C6.3 15.9998 6.3 14.6998 7.1 13.7998L7.39999 13.4998C7.09999 12.7998 6.89999 11.9998 6.89999 11.1998L5.70001 12.3998C4.10001 13.9998 4.10001 16.5998 5.70001 18.1998C7.30001 19.7998 9.9 19.7998 11.5 18.1998L14.1 15.5998C14.4 15.2998 14.6 14.9998 14.8 14.6998C15.7 13.1998 15.5 11.0998 14.1 9.7998L12.7 11.2998Z" fill="#202630"/>
<path d="M11.3 12.6996C10.5 11.8996 10.5 10.5996 11.3 9.79961L13.9 7.19961C14.7 6.39961 16 6.39961 16.9 7.19961C17.7 7.99961 17.7 9.29961 16.9 10.1996L16.6 10.4996C16.9 11.1996 17.1 11.9996 17.1 12.7996L18.3 11.5996C19.9 9.99961 19.9 7.39961 18.3 5.79961C16.7 4.19961 14.1 4.19961 12.5 5.79961L9.89999 8.39961C9.59999 8.69961 9.40001 8.99961 9.20001 9.29961C8.30001 10.7996 8.49999 12.8996 9.89999 14.1996L11.3 12.6996Z" fill="#202630"/>
</svg>
