<svg width="20" height="20" viewBox="0 0 20 20" fill="none" xmlns="http://www.w3.org/2000/svg">
<path d="M9.375 1.22687C9.76175 1.00358 10.2382 1.00358 10.625 1.22687L17.2853 5.07217C17.672 5.29546 17.9103 5.70812 17.9103 6.1547V13.8453C17.9103 14.2919 17.672 14.7045 17.2853 14.9278L10.625 18.7731C10.2382 18.9964 9.76175 18.9964 9.375 18.7731L2.71475 14.9278C2.32799 14.7045 2.08975 14.2919 2.08975 13.8453V6.1547C2.08975 5.70812 2.32799 5.29546 2.71475 5.07217L9.375 1.22687Z" fill="#F0B90B" stroke="#F8D33A" stroke-width="1.5"/>
<path fill-rule="evenodd" clip-rule="evenodd" d="M15.6482 6.47084L10.0001 3.33301L6.91442 5.04729L4.35178 6.47098L8.04402 8.57694L10.0001 7.44759L11.956 8.57681L15.6482 6.47084ZM12.3755 9.61752V11.5619L10.6856 12.5375V16.6665L16.1716 13.6187V7.45235L12.3755 9.61752ZM9.31418 16.6662V12.5373L7.62473 11.5619V9.61778L3.8287 7.45264V13.6187L9.31418 16.6662Z" fill="#FCEA9C"/>
</svg>
