<svg width="36" height="36" viewBox="0 0 36 36" fill="none" xmlns="http://www.w3.org/2000/svg">
<path fill-rule="evenodd" clip-rule="evenodd" d="M0 18C0 8.05888 8.05888 0 18 0C27.9411 0 36 8.05888 36 18C36 27.9411 27.9411 36 18 36C8.05888 36 0 27.9411 0 18Z" fill="white" fill-opacity="0.2"/>
<path d="M16.5859 18.0001L10.293 11.7073L11.0001 11.0002L11.7072 10.293L18.0001 16.5859L24.2928 10.293L24.9999 11.0001L25.707 11.7072L19.4143 18.0001L25.707 24.2928L24.2928 25.707L18.0001 19.4143L11.7071 25.7072L11 25.0001L10.2929 24.293L16.5859 18.0001Z" fill="white"/>
</svg>
