<svg width="16" height="16" viewBox="0 0 16 16" fill="none" xmlns="http://www.w3.org/2000/svg">
<path d="M8.625 1.22687L13.5532 4.07217C13.94 4.29546 14.1782 4.70812 14.1782 5.1547V10.8453C14.1782 11.2919 13.94 11.7045 13.5532 11.9278L8.625 14.7731C8.23825 14.9964 7.76175 14.9964 7.375 14.7731L2.4468 11.9278C2.06005 11.7045 1.8218 11.2919 1.8218 10.8453V5.1547C1.8218 4.70812 2.06005 4.29546 2.4468 4.07217L7.375 1.22687C7.76175 1.00358 8.23825 1.00358 8.625 1.22687Z" fill="#F0B90B" stroke="#F8D33A" stroke-width="1.5"/>
<path fill-rule="evenodd" clip-rule="evenodd" d="M12.5186 5.17726L8.00013 2.66699L5.53156 4.03842L3.48145 5.17737L6.43524 6.86214L8.00012 5.95866L9.56481 6.86204L12.5186 5.17726ZM9.90042 7.6946V9.25009L8.54851 10.0306V13.3338L12.9373 10.8956V5.96247L9.90042 7.6946ZM7.45136 13.3336V10.0304L6.09981 9.25009V7.69481L3.06299 5.9627V10.8956L7.45136 13.3336Z" fill="#FCEA9C"/>
</svg>
