<svg width="343" height="170" viewBox="0 0 343 170" fill="none" xmlns="http://www.w3.org/2000/svg">
    <defs>
        <filter id="filter0_d_15840_124222" x="199.18" y="46.1805" width="38.9834" height="38.9838" filterUnits="userSpaceOnUse" color-interpolation-filters="sRGB">
            <feFlood flood-opacity="0" result="BackgroundImageFix"/>
            <feColorMatrix in="SourceAlpha" type="matrix" values="0 0 0 0 0 0 0 0 0 0 0 0 0 0 0 0 0 0 127 0" result="hardAlpha"/>
            <feOffset/>
            <feGaussianBlur stdDeviation="5.40977"/>
            <feColorMatrix type="matrix" values="0 0 0 0 1 0 0 0 0 1 0 0 0 0 1 0 0 0 1 0"/>
            <feBlend mode="normal" in2="BackgroundImageFix" result="effect1_dropShadow_15840_124222"/>
            <feBlend mode="normal" in="SourceGraphic" in2="effect1_dropShadow_15840_124222" result="shape"/>
        </filter>
        <filter id="filter1_d_15840_124222" x="107.18" y="72.1805" width="38.9834" height="38.9838" filterUnits="userSpaceOnUse" color-interpolation-filters="sRGB">
            <feFlood flood-opacity="0" result="BackgroundImageFix"/>
            <feColorMatrix in="SourceAlpha" type="matrix" values="0 0 0 0 0 0 0 0 0 0 0 0 0 0 0 0 0 0 127 0" result="hardAlpha"/>
            <feOffset/>
            <feGaussianBlur stdDeviation="5.40977"/>
            <feColorMatrix type="matrix" values="0 0 0 0 1 0 0 0 0 1 0 0 0 0 1 0 0 0 1 0"/>
            <feBlend mode="normal" in2="BackgroundImageFix" result="effect1_dropShadow_15840_124222"/>
            <feBlend mode="normal" in="SourceGraphic" in2="effect1_dropShadow_15840_124222" result="shape"/>
        </filter>
        <filter id="filter2_d_15840_124222" x="157.18" y="6.18046" width="31.3042" height="31.3041" filterUnits="userSpaceOnUse" color-interpolation-filters="sRGB">
            <feFlood flood-opacity="0" result="BackgroundImageFix"/>
            <feColorMatrix in="SourceAlpha" type="matrix" values="0 0 0 0 0 0 0 0 0 0 0 0 0 0 0 0 0 0 127 0" result="hardAlpha"/>
            <feOffset/>
            <feGaussianBlur stdDeviation="5.40977"/>
            <feColorMatrix type="matrix" values="0 0 0 0 1 0 0 0 0 1 0 0 0 0 1 0 0 0 1 0"/>
            <feBlend mode="normal" in2="BackgroundImageFix" result="effect1_dropShadow_15840_124222"/>
            <feBlend mode="normal" in="SourceGraphic" in2="effect1_dropShadow_15840_124222" result="shape"/>
        </filter>
        <filter id="filter3_d_15840_124222" x="82.1805" y="111.18" width="31.3042" height="31.3041" filterUnits="userSpaceOnUse" color-interpolation-filters="sRGB">
            <feFlood flood-opacity="0" result="BackgroundImageFix"/>
            <feColorMatrix in="SourceAlpha" type="matrix" values="0 0 0 0 0 0 0 0 0 0 0 0 0 0 0 0 0 0 127 0" result="hardAlpha"/>
            <feOffset/>
            <feGaussianBlur stdDeviation="5.40977"/>
            <feColorMatrix type="matrix" values="0 0 0 0 1 0 0 0 0 1 0 0 0 0 1 0 0 0 1 0"/>
            <feBlend mode="normal" in2="BackgroundImageFix" result="effect1_dropShadow_15840_124222"/>
            <feBlend mode="normal" in="SourceGraphic" in2="effect1_dropShadow_15840_124222" result="shape"/>
        </filter>
        <filter id="filter4_d_15840_124222" x="65.1805" y="33.1805" width="31.3042" height="31.3041" filterUnits="userSpaceOnUse" color-interpolation-filters="sRGB">
            <feFlood flood-opacity="0" result="BackgroundImageFix"/>
            <feColorMatrix in="SourceAlpha" type="matrix" values="0 0 0 0 0 0 0 0 0 0 0 0 0 0 0 0 0 0 127 0" result="hardAlpha"/>
            <feOffset/>
            <feGaussianBlur stdDeviation="5.40977"/>
            <feColorMatrix type="matrix" values="0 0 0 0 1 0 0 0 0 1 0 0 0 0 1 0 0 0 1 0"/>
            <feBlend mode="normal" in2="BackgroundImageFix" result="effect1_dropShadow_15840_124222"/>
            <feBlend mode="normal" in="SourceGraphic" in2="effect1_dropShadow_15840_124222" result="shape"/>
        </filter>
        <filter id="filter5_d_15840_124222" x="224.29" y="108.291" width="34.3774" height="34.3774" filterUnits="userSpaceOnUse" color-interpolation-filters="sRGB">
            <feFlood flood-opacity="0" result="BackgroundImageFix"/>
            <feColorMatrix in="SourceAlpha" type="matrix" values="0 0 0 0 0 0 0 0 0 0 0 0 0 0 0 0 0 0 127 0" result="hardAlpha"/>
            <feOffset/>
            <feGaussianBlur stdDeviation="5.40977"/>
            <feColorMatrix type="matrix" values="0 0 0 0 1 0 0 0 0 1 0 0 0 0 1 0 0 0 1 0"/>
            <feBlend mode="normal" in2="BackgroundImageFix" result="effect1_dropShadow_15840_124222"/>
            <feBlend mode="normal" in="SourceGraphic" in2="effect1_dropShadow_15840_124222" result="shape"/>
        </filter>
        <filter id="filter6_d_15840_124222" x="282.18" y="60.1805" width="34.3774" height="34.3774" filterUnits="userSpaceOnUse" color-interpolation-filters="sRGB">
            <feFlood flood-opacity="0" result="BackgroundImageFix"/>
            <feColorMatrix in="SourceAlpha" type="matrix" values="0 0 0 0 0 0 0 0 0 0 0 0 0 0 0 0 0 0 127 0" result="hardAlpha"/>
            <feOffset/>
            <feGaussianBlur stdDeviation="5.40977"/>
            <feColorMatrix type="matrix" values="0 0 0 0 1 0 0 0 0 1 0 0 0 0 1 0 0 0 1 0"/>
            <feBlend mode="normal" in2="BackgroundImageFix" result="effect1_dropShadow_15840_124222"/>
            <feBlend mode="normal" in="SourceGraphic" in2="effect1_dropShadow_15840_124222" result="shape"/>
        </filter>
        <filter id="filter7_d_15840_124222" x="17.1805" y="59.1805" width="35.1458" height="35.1459" filterUnits="userSpaceOnUse" color-interpolation-filters="sRGB">
            <feFlood flood-opacity="0" result="BackgroundImageFix"/>
            <feColorMatrix in="SourceAlpha" type="matrix" values="0 0 0 0 0 0 0 0 0 0 0 0 0 0 0 0 0 0 127 0" result="hardAlpha"/>
            <feOffset/>
            <feGaussianBlur stdDeviation="5.40977"/>
            <feColorMatrix type="matrix" values="0 0 0 0 1 0 0 0 0 1 0 0 0 0 1 0 0 0 1 0"/>
            <feBlend mode="normal" in2="BackgroundImageFix" result="effect1_dropShadow_15840_124222"/>
            <feBlend mode="normal" in="SourceGraphic" in2="effect1_dropShadow_15840_124222" result="shape"/>
        </filter>
        <linearGradient id="paint0_linear_15840_124222" x1="0" y1="0" x2="4.26998e-06" y2="170" gradientUnits="userSpaceOnUse">
            <stop stop-color="#F8D33A"/>
            <stop offset="1" stop-color="#FFEB93"/>
        </linearGradient>
        <linearGradient id="paint1_linear_15840_124222" x1="171.5" y1="0" x2="171.5" y2="170" gradientUnits="userSpaceOnUse">
            <stop stop-color="#F0B90B"/>
            <stop offset="1" stop-color="#F8D33A"/>
        </linearGradient>
        <radialGradient id="paint2_radial_15840_124222" cx="0" cy="0" r="1" gradientUnits="userSpaceOnUse" gradientTransform="translate(171.144 198.722) rotate(-89.8934) scale(193.559 243.976)">
            <stop stop-color="white"/>
            <stop offset="1" stop-color="#FFCE00" stop-opacity="0"/>
        </radialGradient>
    </defs>
<mask id="mask0_15840_124222" style="mask-type:alpha" maskUnits="userSpaceOnUse" x="0" y="0" width="343" height="170">
<rect width="343" height="170" fill="url(#paint0_linear_15840_124222)"/>
</mask>
<g mask="url(#mask0_15840_124222)">
<rect width="343" height="170" fill="url(#paint1_linear_15840_124222)"/>
<path opacity="0.6" fill-rule="evenodd" clip-rule="evenodd" d="M166.251 220.423L166.545 221L166.381 219.955L166.573 219.799L166.545 219.966L166.676 219.714L343 75.8463L303.045 45.6484L166.974 219.145L273.164 16.209L203.322 2.06445L166.603 219.618L166.374 219.91L132.027 0L61.1649 14.2209L166.24 220.402L39.9548 51.0243L0 81.2223L166.251 220.423Z" fill="url(#paint2_radial_15840_124222)"/>
<g filter="url(#filter0_d_15840_124222)">
<path d="M218.672 57L220.021 64.3231L227.344 65.6722L220.021 67.0212L218.672 74.3443L217.323 67.0212L210 65.6722L217.323 64.3231L218.672 57Z" fill="#FFF4C2"/>
</g>
<g filter="url(#filter1_d_15840_124222)">
<path d="M126.672 83L128.021 90.3231L135.344 91.6722L128.021 93.0212L126.672 100.344L125.323 93.0212L118 91.6722L125.323 90.3231L126.672 83Z" fill="#FFF4C2"/>
</g>
<g filter="url(#filter2_d_15840_124222)">
<path d="M172.833 17L173.584 21.0808L177.665 21.8326L173.584 22.5844L172.833 26.6652L172.081 22.5844L168 21.8326L172.081 21.0808L172.833 17Z" fill="#FFF4C2"/>
</g>
<g filter="url(#filter3_d_15840_124222)">
<path d="M97.8326 122L98.5844 126.081L102.665 126.833L98.5844 127.584L97.8326 131.665L97.0808 127.584L93 126.833L97.0808 126.081L97.8326 122Z" fill="#FFF4C2"/>
</g>
<g filter="url(#filter4_d_15840_124222)">
<path d="M80.8326 44L81.5844 48.0808L85.6652 48.8326L81.5844 49.5844L80.8326 53.6652L80.0808 49.5844L76 48.8326L80.0808 48.0808L80.8326 44Z" fill="#FFF4C2"/>
</g>
<g filter="url(#filter5_d_15840_124222)">
<path d="M241.479 119.11L242.469 124.489L247.848 125.48L242.469 126.47L241.479 131.849L240.488 126.47L235.109 125.48L240.488 124.489L241.479 119.11Z" fill="#FFF4C2"/>
</g>
<g filter="url(#filter6_d_15840_124222)">
<path d="M299.369 71L300.36 76.3784L305.738 77.3692L300.36 78.36L299.369 83.7384L298.378 78.36L293 77.3692L298.378 76.3784L299.369 71Z" fill="#FFF4C2"/>
</g>
<g filter="url(#filter7_d_15840_124222)">
<path d="M34.7533 70L35.8039 75.7028L41.5067 76.7533L35.8039 77.8039L34.7533 83.5067L33.7028 77.8039L28 76.7533L33.7028 75.7028L34.7533 70Z" fill="#FFF4C2"/>
</g>
</g>
</svg>
