<svg width="32" height="32" viewBox="0 0 32 32" fill="none" xmlns="http://www.w3.org/2000/svg">
<path d="M23.864 22.1909C24.6759 20.8251 25.1422 19.2298 25.1422 17.5256C25.1422 15.0008 24.1189 12.7151 22.4644 11.0606L25.6968 7.82812C28.1786 10.3099 29.7137 13.7385 29.7137 17.5256C29.7137 20.4913 28.7723 23.2371 27.1721 25.4805C26.4391 26.5083 24.9732 26.4994 24.0806 25.6068C23.188 24.7142 23.2189 23.276 23.864 22.1909Z" fill="#F63C55"/>
<path d="M15.9987 8.3788C13.474 8.3788 11.1883 9.40215 9.53375 11.0567L6.30127 7.8242C8.78307 5.3424 12.2116 3.80737 15.9987 3.80737C19.7858 3.80737 23.2144 5.3424 25.6962 7.8242L22.4637 11.0567C20.8092 9.40215 18.5235 8.3788 15.9987 8.3788Z" fill="#F0B90B"/>
<path d="M6.85707 17.5256C6.85707 19.2298 7.32336 20.8251 8.13531 22.1909C8.78038 23.276 8.81134 24.7142 7.91871 25.6068C7.02608 26.4994 5.56025 26.5083 4.82721 25.4805C3.227 23.2371 2.28564 20.4913 2.28564 17.5256C2.28564 13.7385 3.82067 10.3099 6.30247 7.82812L9.53495 11.0606C7.88042 12.7151 6.85707 15.0008 6.85707 17.5256Z" fill="#28A473"/>
<path fill-rule="evenodd" clip-rule="evenodd" d="M21.3333 17.526C21.3333 20.4715 18.9455 22.8593 15.9999 22.8593C13.7255 22.8593 11.7836 21.4356 11.0168 19.4307H2.41687C2.33036 18.8082 2.28564 18.1723 2.28564 17.5259C2.28564 16.8796 2.33036 16.2437 2.41685 15.6212H11.0168C11.7836 13.6163 13.7255 12.1926 15.9999 12.1926C18.9455 12.1926 21.3333 14.5804 21.3333 17.526ZM17.5237 17.526C17.5237 18.3675 16.8415 19.0498 15.9999 19.0498C15.1584 19.0498 14.4761 18.3675 14.4761 17.526C14.4761 16.6844 15.1584 16.0022 15.9999 16.0022C16.8415 16.0022 17.5237 16.6844 17.5237 17.526Z" fill="white"/>
</svg>
